G04 #@! TF.FileFunction,Soldermask,Top*
%FSLAX46Y46*%
G04 Gerber Fmt 4.6, Leading zero omitted, Abs format (unit mm)*
G04 Created by KiCad (PCBNEW 4.0.5) date 12/30/18 13:58:42*
%MOMM*%
%LPD*%
G01*
G04 APERTURE LIST*
%ADD10C,0.150000*%
%ADD11R,2.908300X1.508760*%
%ADD12R,2.908300X1.308100*%
%ADD13R,2.598420X0.998220*%
%ADD14C,2.184400*%
%ADD15C,2.308860*%
%ADD16R,4.008120X4.008120*%
%ADD17C,2.540000*%
%ADD18C,2.108200*%
%ADD19O,2.108200X4.907280*%
%ADD20O,2.506980X3.909060*%
%ADD21O,3.909060X2.506980*%
%ADD22C,7.007860*%
%ADD23R,2.506980X2.506980*%
%ADD24C,2.707640*%
%ADD25C,2.506980*%
%ADD26C,3.048000*%
%ADD27R,3.007360X3.007360*%
%ADD28C,3.007360*%
%ADD29R,2.082800X2.794000*%
%ADD30O,2.082800X2.794000*%
%ADD31C,2.413000*%
%ADD32R,2.413000X2.413000*%
%ADD33R,2.794000X2.794000*%
%ADD34C,2.794000*%
%ADD35R,2.540000X2.540000*%
%ADD36R,1.907540X1.107440*%
%ADD37O,2.308860X3.048000*%
G04 APERTURE END LIST*
D10*
D11*
X32766000Y14097000D03*
X32766000Y16637000D03*
X32766000Y19177000D03*
X32766000Y21717000D03*
X32766000Y23876000D03*
X32766000Y26416000D03*
D12*
X32766000Y28829000D03*
D13*
X32766000Y30480000D03*
D11*
X32766000Y11557000D03*
D13*
X32766000Y31750000D03*
D14*
X29464000Y32385000D03*
D15*
X29464000Y11303000D03*
D13*
X32766000Y32893000D03*
D16*
X4826000Y35560000D03*
X4826000Y4445000D03*
D17*
X58674000Y39116000D03*
X56134000Y39116000D03*
D18*
X58801000Y18669000D03*
X58801000Y21209000D03*
X56261000Y18669000D03*
X56261000Y21209000D03*
X53721000Y18669000D03*
X53721000Y21209000D03*
D14*
X5080000Y56515000D03*
X5080000Y53975000D03*
X5080000Y48895000D03*
X5080000Y51435000D03*
D19*
X14351000Y42926000D03*
D20*
X8255000Y42926000D03*
D21*
X11049000Y38481000D03*
D22*
X89535000Y6350000D03*
D23*
X83185000Y53340000D03*
D17*
X83185000Y50800000D03*
X83185000Y48260000D03*
X83185000Y45720000D03*
X83185000Y43180000D03*
X83185000Y40640000D03*
D24*
X72898000Y50165000D03*
X79248000Y50165000D03*
D25*
X64897000Y10541000D03*
X64897000Y16637000D03*
D26*
X42164000Y33147000D03*
X42164000Y40767000D03*
D17*
X72390000Y10922000D03*
X69342000Y10922000D03*
D27*
X21971000Y47625000D03*
D28*
X42037000Y47625000D03*
D29*
X69596000Y15240000D03*
D30*
X72136000Y15240000D03*
X74676000Y15240000D03*
X77216000Y15240000D03*
X77216000Y22860000D03*
X74676000Y22860000D03*
X72136000Y22860000D03*
X69596000Y22860000D03*
D17*
X62992000Y42926000D03*
X57912000Y42926000D03*
D31*
X53340000Y11176000D03*
D32*
X53340000Y13716000D03*
D31*
X50800000Y11176000D03*
D33*
X88646000Y44577000D03*
D34*
X88646000Y42037000D03*
X88646000Y39497000D03*
X88646000Y36957000D03*
X88646000Y34417000D03*
X88646000Y31877000D03*
X88646000Y29337000D03*
X88646000Y26797000D03*
D17*
X43815000Y12065000D03*
X36195000Y12065000D03*
X82931000Y11684000D03*
X82931000Y19304000D03*
X80264000Y11684000D03*
X80264000Y19304000D03*
X72009000Y45974000D03*
X79629000Y45974000D03*
X16510000Y52705000D03*
X8890000Y52705000D03*
X36195000Y6985000D03*
X43815000Y6985000D03*
X78994000Y25654000D03*
X71374000Y25654000D03*
X43815000Y9525000D03*
X36195000Y9525000D03*
X43815000Y19685000D03*
X36195000Y19685000D03*
X36195000Y17145000D03*
X43815000Y17145000D03*
X36195000Y22225000D03*
X43815000Y22225000D03*
X88646000Y14859000D03*
X88646000Y22479000D03*
X16510000Y55880000D03*
X8890000Y55880000D03*
X36195000Y14605000D03*
X43815000Y14605000D03*
D35*
X71501000Y41021000D03*
D17*
X68961000Y41021000D03*
D35*
X64389000Y22860000D03*
D17*
X64389000Y20320000D03*
D35*
X48006000Y14732000D03*
D17*
X48006000Y17272000D03*
D35*
X59436000Y11176000D03*
D17*
X59436000Y13716000D03*
D31*
X68707000Y46228000D03*
X68707000Y51308000D03*
X83185000Y56515000D03*
X88265000Y56515000D03*
D14*
X83185000Y24003000D03*
X80645000Y24003000D03*
D30*
X78994000Y35814000D03*
X76454000Y35814000D03*
X73914000Y35814000D03*
X71374000Y35814000D03*
X68834000Y35814000D03*
X66294000Y35814000D03*
X63754000Y35814000D03*
X61214000Y35814000D03*
X58674000Y35814000D03*
X56134000Y35814000D03*
X53594000Y35814000D03*
X51054000Y35814000D03*
X48514000Y35814000D03*
D29*
X81534000Y35814000D03*
D30*
X48514000Y28194000D03*
X51054000Y28194000D03*
X53594000Y28194000D03*
X56134000Y28194000D03*
X58674000Y28194000D03*
X61214000Y28194000D03*
X63754000Y28194000D03*
X66294000Y28194000D03*
X68834000Y28194000D03*
X71374000Y28194000D03*
X73914000Y28194000D03*
X76454000Y28194000D03*
X78994000Y28194000D03*
X81534000Y28194000D03*
D17*
X36195000Y24765000D03*
X43815000Y24765000D03*
D26*
X38735000Y40767000D03*
X38735000Y33147000D03*
D22*
X89535000Y50165000D03*
X18415000Y37465000D03*
D17*
X61976000Y39116000D03*
X64516000Y39116000D03*
D36*
X76206000Y20955000D03*
X70606000Y20955000D03*
X76206000Y19685000D03*
X76206000Y18415000D03*
X76206000Y17145000D03*
X70606000Y19685000D03*
X70606000Y18415000D03*
X70606000Y17145000D03*
D37*
X78994000Y6604000D03*
X76454000Y6604000D03*
X73914000Y6604000D03*
X66294000Y6604000D03*
X68834000Y6604000D03*
X71374000Y6604000D03*
X61214000Y6604000D03*
X58674000Y6604000D03*
X56134000Y6604000D03*
X51054000Y6604000D03*
X48514000Y6604000D03*
X78994000Y54864000D03*
X76454000Y54864000D03*
X73914000Y54864000D03*
X71374000Y54864000D03*
X68834000Y54864000D03*
X66294000Y54864000D03*
X63754000Y54864000D03*
X61214000Y54864000D03*
X57150000Y54864000D03*
X54610000Y54864000D03*
X52070000Y54864000D03*
X49530000Y54864000D03*
X46990000Y54864000D03*
X44450000Y54864000D03*
X41910000Y54864000D03*
X39370000Y54864000D03*
X53594000Y6604000D03*
M02*
