G04 #@! TF.FileFunction,Copper,L2,Bot,Signal*
%FSLAX46Y46*%
G04 Gerber Fmt 4.6, Leading zero omitted, Abs format (unit mm)*
G04 Created by KiCad (PCBNEW 4.0.5) date 12/30/18 13:58:41*
%MOMM*%
%LPD*%
G01*
G04 APERTURE LIST*
%ADD10C,0.150000*%
%ADD11C,0.304800*%
%ADD12C,0.002540*%
%ADD13C,1.676400*%
%ADD14C,1.800860*%
%ADD15C,0.099060*%
%ADD16C,2.032000*%
%ADD17C,1.600200*%
%ADD18O,1.600200X4.399280*%
%ADD19O,1.998980X3.401060*%
%ADD20O,3.401060X1.998980*%
%ADD21C,6.499860*%
%ADD22R,1.998980X1.998980*%
%ADD23C,2.199640*%
%ADD24C,1.998980*%
%ADD25C,2.540000*%
%ADD26R,2.499360X2.499360*%
%ADD27C,2.499360*%
%ADD28R,1.574800X2.286000*%
%ADD29O,1.574800X2.286000*%
%ADD30C,1.905000*%
%ADD31R,1.905000X1.905000*%
%ADD32R,2.286000X2.286000*%
%ADD33C,2.286000*%
%ADD34R,2.032000X2.032000*%
%ADD35O,1.800860X2.540000*%
%ADD36C,0.889000*%
%ADD37C,0.508000*%
%ADD38C,0.254000*%
G04 APERTURE END LIST*
D10*
D11*
X14955762Y26615572D02*
X14859000Y26543001D01*
X14762238Y26397858D01*
X14762238Y26035001D01*
X14859000Y25889858D01*
X14955762Y25817287D01*
X15149286Y25744715D01*
X15342810Y25744715D01*
X15633095Y25817287D01*
X16794238Y26688144D01*
X16794238Y25744715D01*
X16794238Y25019000D02*
X16794238Y24728715D01*
X16697476Y24583572D01*
X16600714Y24511000D01*
X16310429Y24365858D01*
X15923381Y24293286D01*
X15149286Y24293286D01*
X14955762Y24365858D01*
X14859000Y24438429D01*
X14762238Y24583572D01*
X14762238Y24873858D01*
X14859000Y25019000D01*
X14955762Y25091572D01*
X15149286Y25164143D01*
X15633095Y25164143D01*
X15826619Y25091572D01*
X15923381Y25019000D01*
X16020143Y24873858D01*
X16020143Y24583572D01*
X15923381Y24438429D01*
X15826619Y24365858D01*
X15633095Y24293286D01*
X14665476Y22551571D02*
X17278048Y23857857D01*
X16794238Y21245286D02*
X16794238Y22116143D01*
X16794238Y21680715D02*
X14762238Y21680715D01*
X15052524Y21825858D01*
X15246048Y21971000D01*
X15342810Y22116143D01*
X16794238Y19793857D02*
X16794238Y20664714D01*
X16794238Y20229286D02*
X14762238Y20229286D01*
X15052524Y20374429D01*
X15246048Y20519571D01*
X15342810Y20664714D01*
X14665476Y18052142D02*
X17278048Y19358428D01*
X16794238Y16745857D02*
X16794238Y17616714D01*
X16794238Y17181286D02*
X14762238Y17181286D01*
X15052524Y17326429D01*
X15246048Y17471571D01*
X15342810Y17616714D01*
X14762238Y15439571D02*
X14762238Y15729857D01*
X14859000Y15875000D01*
X14955762Y15947571D01*
X15246048Y16092714D01*
X15633095Y16165285D01*
X16407190Y16165285D01*
X16600714Y16092714D01*
X16697476Y16020142D01*
X16794238Y15875000D01*
X16794238Y15584714D01*
X16697476Y15439571D01*
X16600714Y15367000D01*
X16407190Y15294428D01*
X15923381Y15294428D01*
X15729857Y15367000D01*
X15633095Y15439571D01*
X15536333Y15584714D01*
X15536333Y15875000D01*
X15633095Y16020142D01*
X15729857Y16092714D01*
X15923381Y16165285D01*
X11629571Y34816141D02*
X12984238Y34525855D01*
X12016619Y34235569D01*
X12984238Y33945284D01*
X11629571Y33654998D01*
X11629571Y33219570D02*
X12984238Y32929284D01*
X12016619Y32638998D01*
X12984238Y32348713D01*
X11629571Y32058427D01*
X11629571Y31622999D02*
X12984238Y31332713D01*
X12016619Y31042427D01*
X12984238Y30752142D01*
X11629571Y30461856D01*
X12790714Y29881285D02*
X12887476Y29808713D01*
X12984238Y29881285D01*
X12887476Y29953856D01*
X12790714Y29881285D01*
X12984238Y29881285D01*
X12984238Y29155571D02*
X11629571Y29155571D01*
X12016619Y29155571D02*
X11823095Y29082999D01*
X11726333Y29010428D01*
X11629571Y28865285D01*
X11629571Y28720142D01*
X12887476Y27631570D02*
X12984238Y27776713D01*
X12984238Y28066999D01*
X12887476Y28212142D01*
X12693952Y28284713D01*
X11919857Y28284713D01*
X11726333Y28212142D01*
X11629571Y28066999D01*
X11629571Y27776713D01*
X11726333Y27631570D01*
X11919857Y27558999D01*
X12113381Y27558999D01*
X12306905Y28284713D01*
X12210143Y26905856D02*
X12210143Y25744713D01*
X12984238Y25018999D02*
X11629571Y25018999D01*
X10952238Y25018999D02*
X11049000Y25091570D01*
X11145762Y25018999D01*
X11049000Y24946427D01*
X10952238Y25018999D01*
X11145762Y25018999D01*
X11629571Y24293285D02*
X12984238Y24293285D01*
X11823095Y24293285D02*
X11726333Y24220713D01*
X11629571Y24075571D01*
X11629571Y23857856D01*
X11726333Y23712713D01*
X11919857Y23640142D01*
X12984238Y23640142D01*
X11629571Y22914428D02*
X12984238Y22914428D01*
X11823095Y22914428D02*
X11726333Y22841856D01*
X11629571Y22696714D01*
X11629571Y22478999D01*
X11726333Y22333856D01*
X11919857Y22261285D01*
X12984238Y22261285D01*
X12984238Y21317857D02*
X12887476Y21462999D01*
X12790714Y21535571D01*
X12597190Y21608142D01*
X12016619Y21608142D01*
X11823095Y21535571D01*
X11726333Y21462999D01*
X11629571Y21317857D01*
X11629571Y21100142D01*
X11726333Y20954999D01*
X11823095Y20882428D01*
X12016619Y20809857D01*
X12597190Y20809857D01*
X12790714Y20882428D01*
X12887476Y20954999D01*
X12984238Y21100142D01*
X12984238Y21317857D01*
X11629571Y20301857D02*
X12984238Y19939000D01*
X11629571Y19576142D01*
X12984238Y18342428D02*
X11919857Y18342428D01*
X11726333Y18414999D01*
X11629571Y18560142D01*
X11629571Y18850428D01*
X11726333Y18995571D01*
X12887476Y18342428D02*
X12984238Y18487571D01*
X12984238Y18850428D01*
X12887476Y18995571D01*
X12693952Y19068142D01*
X12500429Y19068142D01*
X12306905Y18995571D01*
X12210143Y18850428D01*
X12210143Y18487571D01*
X12113381Y18342428D01*
X11629571Y17834428D02*
X11629571Y17253857D01*
X10952238Y17616714D02*
X12693952Y17616714D01*
X12887476Y17544142D01*
X12984238Y17399000D01*
X12984238Y17253857D01*
X12984238Y16745857D02*
X11629571Y16745857D01*
X10952238Y16745857D02*
X11049000Y16818428D01*
X11145762Y16745857D01*
X11049000Y16673285D01*
X10952238Y16745857D01*
X11145762Y16745857D01*
X12984238Y15802429D02*
X12887476Y15947571D01*
X12790714Y16020143D01*
X12597190Y16092714D01*
X12016619Y16092714D01*
X11823095Y16020143D01*
X11726333Y15947571D01*
X11629571Y15802429D01*
X11629571Y15584714D01*
X11726333Y15439571D01*
X11823095Y15367000D01*
X12016619Y15294429D01*
X12597190Y15294429D01*
X12790714Y15367000D01*
X12887476Y15439571D01*
X12984238Y15584714D01*
X12984238Y15802429D01*
X11629571Y14641286D02*
X12984238Y14641286D01*
X11823095Y14641286D02*
X11726333Y14568714D01*
X11629571Y14423572D01*
X11629571Y14205857D01*
X11726333Y14060714D01*
X11919857Y13988143D01*
X12984238Y13988143D01*
X12790714Y13262429D02*
X12887476Y13189857D01*
X12984238Y13262429D01*
X12887476Y13335000D01*
X12790714Y13262429D01*
X12984238Y13262429D01*
X12887476Y11883572D02*
X12984238Y12028715D01*
X12984238Y12319001D01*
X12887476Y12464143D01*
X12790714Y12536715D01*
X12597190Y12609286D01*
X12016619Y12609286D01*
X11823095Y12536715D01*
X11726333Y12464143D01*
X11629571Y12319001D01*
X11629571Y12028715D01*
X11726333Y11883572D01*
X12984238Y11012715D02*
X12887476Y11157857D01*
X12790714Y11230429D01*
X12597190Y11303000D01*
X12016619Y11303000D01*
X11823095Y11230429D01*
X11726333Y11157857D01*
X11629571Y11012715D01*
X11629571Y10795000D01*
X11726333Y10649857D01*
X11823095Y10577286D01*
X12016619Y10504715D01*
X12597190Y10504715D01*
X12790714Y10577286D01*
X12887476Y10649857D01*
X12984238Y10795000D01*
X12984238Y11012715D01*
X12790714Y9851572D02*
X12887476Y9779000D01*
X12984238Y9851572D01*
X12887476Y9924143D01*
X12790714Y9851572D01*
X12984238Y9851572D01*
X11629571Y8472715D02*
X12984238Y8472715D01*
X11629571Y9125858D02*
X12693952Y9125858D01*
X12887476Y9053286D01*
X12984238Y8908144D01*
X12984238Y8690429D01*
X12887476Y8545286D01*
X12790714Y8472715D01*
X12984238Y7747001D02*
X10952238Y7747001D01*
X12210143Y7601858D02*
X12984238Y7166429D01*
X11629571Y7166429D02*
X12403667Y7747001D01*
X9863667Y29645428D02*
X9863667Y28919714D01*
X10444238Y29790571D02*
X8412238Y29282571D01*
X10444238Y28774571D01*
X10444238Y27395714D02*
X9476619Y27903714D01*
X10444238Y28266571D02*
X8412238Y28266571D01*
X8412238Y27685999D01*
X8509000Y27540857D01*
X8605762Y27468285D01*
X8799286Y27395714D01*
X9089571Y27395714D01*
X9283095Y27468285D01*
X9379857Y27540857D01*
X9476619Y27685999D01*
X9476619Y28266571D01*
X10444238Y26742571D02*
X8412238Y26742571D01*
X8412238Y26379714D01*
X8509000Y26161999D01*
X8702524Y26016857D01*
X8896048Y25944285D01*
X9283095Y25871714D01*
X9573381Y25871714D01*
X9960429Y25944285D01*
X10153952Y26016857D01*
X10347476Y26161999D01*
X10444238Y26379714D01*
X10444238Y26742571D01*
X8412238Y25218571D02*
X10057190Y25218571D01*
X10250714Y25145999D01*
X10347476Y25073428D01*
X10444238Y24928285D01*
X10444238Y24637999D01*
X10347476Y24492857D01*
X10250714Y24420285D01*
X10057190Y24347714D01*
X8412238Y24347714D01*
X10444238Y23622000D02*
X8412238Y23622000D01*
X10444238Y22896286D02*
X8412238Y22896286D01*
X10444238Y22025429D01*
X8412238Y22025429D01*
X8412238Y21009429D02*
X8412238Y20719143D01*
X8509000Y20574001D01*
X8702524Y20428858D01*
X9089571Y20356286D01*
X9766905Y20356286D01*
X10153952Y20428858D01*
X10347476Y20574001D01*
X10444238Y20719143D01*
X10444238Y21009429D01*
X10347476Y21154572D01*
X10153952Y21299715D01*
X9766905Y21372286D01*
X9089571Y21372286D01*
X8702524Y21299715D01*
X8509000Y21154572D01*
X8412238Y21009429D01*
X10444238Y18542001D02*
X8412238Y18542001D01*
X8412238Y18179144D01*
X8509000Y17961429D01*
X8702524Y17816287D01*
X8896048Y17743715D01*
X9283095Y17671144D01*
X9573381Y17671144D01*
X9960429Y17743715D01*
X10153952Y17816287D01*
X10347476Y17961429D01*
X10444238Y18179144D01*
X10444238Y18542001D01*
X9863667Y17090572D02*
X9863667Y16364858D01*
X10444238Y17235715D02*
X8412238Y16727715D01*
X10444238Y16219715D01*
X10637762Y14695715D02*
X10541000Y14840858D01*
X10347476Y14986001D01*
X10057190Y15203715D01*
X9960429Y15348858D01*
X9960429Y15494001D01*
X10444238Y15421429D02*
X10347476Y15566572D01*
X10153952Y15711715D01*
X9766905Y15784286D01*
X9089571Y15784286D01*
X8702524Y15711715D01*
X8509000Y15566572D01*
X8412238Y15421429D01*
X8412238Y15131143D01*
X8509000Y14986001D01*
X8702524Y14840858D01*
X9089571Y14768286D01*
X9766905Y14768286D01*
X10153952Y14840858D01*
X10347476Y14986001D01*
X10444238Y15131143D01*
X10444238Y15421429D01*
X9089571Y13099144D02*
X10444238Y12736287D01*
X9089571Y12373429D01*
X8605762Y11865429D02*
X8509000Y11792858D01*
X8412238Y11647715D01*
X8412238Y11284858D01*
X8509000Y11139715D01*
X8605762Y11067144D01*
X8799286Y10994572D01*
X8992810Y10994572D01*
X9283095Y11067144D01*
X10444238Y11938001D01*
X10444238Y10994572D01*
D12*
G36*
X24236680Y9725660D02*
X24236680Y9166860D01*
X24236680Y9080500D01*
X24236680Y9001760D01*
X24236680Y8933180D01*
X24236680Y8872220D01*
X24236680Y8818880D01*
X24236680Y8770620D01*
X24236680Y8729980D01*
X24236680Y8694420D01*
X24234140Y8666480D01*
X24234140Y8643620D01*
X24234140Y8625840D01*
X24234140Y8610600D01*
X24231600Y8600440D01*
X24231600Y8595360D01*
X24231600Y8592820D01*
X24218900Y8575040D01*
X24201120Y8562340D01*
X24180800Y8554720D01*
X24173180Y8552180D01*
X24157940Y8549640D01*
X24135080Y8547100D01*
X24104600Y8539480D01*
X24069040Y8534400D01*
X24025860Y8524240D01*
X23977600Y8516620D01*
X23926800Y8506460D01*
X23868380Y8496300D01*
X23809960Y8483600D01*
X23746460Y8473440D01*
X23680420Y8460740D01*
X23649940Y8455660D01*
X23571200Y8440420D01*
X23500080Y8427720D01*
X23436580Y8415020D01*
X23380700Y8404860D01*
X23332440Y8394700D01*
X23289260Y8387080D01*
X23251160Y8379460D01*
X23220680Y8374380D01*
X23195280Y8369300D01*
X23172420Y8364220D01*
X23154640Y8359140D01*
X23141940Y8354060D01*
X23129240Y8351520D01*
X23121620Y8348980D01*
X23116540Y8343900D01*
X23111460Y8341360D01*
X23106380Y8338820D01*
X23103840Y8333740D01*
X23101300Y8331200D01*
X23101300Y8328660D01*
X23098760Y8323580D01*
X23093680Y8310880D01*
X23083520Y8288020D01*
X23073360Y8262620D01*
X23060660Y8229600D01*
X23042880Y8191500D01*
X23025100Y8145780D01*
X23007320Y8100060D01*
X22987000Y8046720D01*
X22964140Y7993380D01*
X22941280Y7934960D01*
X22928580Y7901940D01*
X22900640Y7833360D01*
X22875240Y7769860D01*
X22852380Y7716520D01*
X22834600Y7668260D01*
X22816820Y7625080D01*
X22804120Y7589520D01*
X22791420Y7559040D01*
X22781260Y7533640D01*
X22776180Y7513320D01*
X22768560Y7495540D01*
X22766020Y7480300D01*
X22763480Y7470140D01*
X22760940Y7459980D01*
X22760940Y7452360D01*
X22760940Y7447280D01*
X22763480Y7442200D01*
X22766020Y7437120D01*
X22766020Y7432040D01*
X22768560Y7426960D01*
X22778720Y7414260D01*
X22791420Y7396480D01*
X22806660Y7371080D01*
X22826980Y7340600D01*
X22849840Y7305040D01*
X22877780Y7266940D01*
X22908260Y7223760D01*
X22938740Y7175500D01*
X22974300Y7124700D01*
X23009860Y7071360D01*
X23047960Y7018020D01*
X23065740Y6990080D01*
X23103840Y6934200D01*
X23141940Y6880860D01*
X23177500Y6827520D01*
X23210520Y6779260D01*
X23241000Y6733540D01*
X23268940Y6692900D01*
X23294340Y6657340D01*
X23317200Y6624320D01*
X23334980Y6596380D01*
X23350220Y6576060D01*
X23360380Y6560820D01*
X23365460Y6553200D01*
X23365460Y6550660D01*
X23370540Y6532880D01*
X23368000Y6512560D01*
X23365460Y6504940D01*
X23362920Y6499860D01*
X23352760Y6487160D01*
X23334980Y6471920D01*
X23314660Y6449060D01*
X23289260Y6421120D01*
X23256240Y6390640D01*
X23220680Y6352540D01*
X23180040Y6311900D01*
X23136860Y6268720D01*
X23088600Y6220460D01*
X23037800Y6169660D01*
X22984460Y6116320D01*
X22961600Y6093460D01*
X22903180Y6035040D01*
X22849840Y5981700D01*
X22801580Y5933440D01*
X22760940Y5892800D01*
X22722840Y5854700D01*
X22689820Y5824220D01*
X22661880Y5796280D01*
X22639020Y5770880D01*
X22616160Y5753100D01*
X22598380Y5735320D01*
X22585680Y5722620D01*
X22572980Y5712460D01*
X22562820Y5704840D01*
X22555200Y5699760D01*
X22547580Y5694680D01*
X22542500Y5694680D01*
X22537420Y5692140D01*
X22532340Y5694680D01*
X22527260Y5694680D01*
X22524720Y5697220D01*
X22522180Y5697220D01*
X22517100Y5699760D01*
X22504400Y5707380D01*
X22484080Y5720080D01*
X22461220Y5735320D01*
X22430740Y5755640D01*
X22395180Y5781040D01*
X22354540Y5806440D01*
X22311360Y5834380D01*
X22265640Y5867400D01*
X22217380Y5900420D01*
X22166580Y5935980D01*
X22128480Y5961380D01*
X22057360Y6009640D01*
X21996400Y6052820D01*
X21940520Y6090920D01*
X21889720Y6126480D01*
X21846540Y6154420D01*
X21808440Y6182360D01*
X21772880Y6205220D01*
X21744940Y6223000D01*
X21722080Y6240780D01*
X21701760Y6253480D01*
X21683980Y6266180D01*
X21671280Y6273800D01*
X21658580Y6281420D01*
X21650960Y6286500D01*
X21643340Y6289040D01*
X21638260Y6291580D01*
X21635720Y6291580D01*
X21633180Y6291580D01*
X21630640Y6291580D01*
X21625560Y6291580D01*
X21623020Y6291580D01*
X21620480Y6291580D01*
X21615400Y6291580D01*
X21607780Y6291580D01*
X21602700Y6289040D01*
X21592540Y6286500D01*
X21584920Y6283960D01*
X21569680Y6276340D01*
X21554440Y6268720D01*
X21531580Y6258560D01*
X21506180Y6243320D01*
X21475700Y6228080D01*
X21435060Y6207760D01*
X21399500Y6187440D01*
X21351240Y6162040D01*
X21313140Y6141720D01*
X21277580Y6123940D01*
X21252180Y6108700D01*
X21229320Y6098540D01*
X21211540Y6090920D01*
X21196300Y6085840D01*
X21186140Y6083300D01*
X21178520Y6083300D01*
X21170900Y6083300D01*
X21165820Y6088380D01*
X21160740Y6090920D01*
X21158200Y6096000D01*
X21155660Y6101080D01*
X21148040Y6113780D01*
X21140420Y6134100D01*
X21127720Y6162040D01*
X21112480Y6195060D01*
X21097240Y6235700D01*
X21076920Y6281420D01*
X21056600Y6332220D01*
X21031200Y6388100D01*
X21008340Y6446520D01*
X20980400Y6510020D01*
X20952460Y6578600D01*
X20924520Y6647180D01*
X20894040Y6718300D01*
X20863560Y6791960D01*
X20833080Y6868160D01*
X20800060Y6944360D01*
X20769580Y7020560D01*
X20736560Y7099300D01*
X20703540Y7175500D01*
X20673060Y7251700D01*
X20642580Y7325360D01*
X20612100Y7399020D01*
X20584160Y7470140D01*
X20556220Y7536180D01*
X20528280Y7602220D01*
X20502880Y7663180D01*
X20480020Y7721600D01*
X20459700Y7772400D01*
X20439380Y7820660D01*
X20421600Y7863840D01*
X20406360Y7901940D01*
X20396200Y7932420D01*
X20386040Y7955280D01*
X20378420Y7970520D01*
X20375880Y7980680D01*
X20375880Y7980680D01*
X20375880Y7993380D01*
X20378420Y8003540D01*
X20386040Y8016240D01*
X20396200Y8026400D01*
X20413980Y8041640D01*
X20439380Y8056880D01*
X20459700Y8072120D01*
X20482560Y8087360D01*
X20507960Y8102600D01*
X20528280Y8117840D01*
X20546060Y8130540D01*
X20553680Y8133080D01*
X20568920Y8145780D01*
X20586700Y8161020D01*
X20609560Y8176260D01*
X20632420Y8194040D01*
X20637500Y8196580D01*
X20690840Y8239760D01*
X20744180Y8288020D01*
X20794980Y8343900D01*
X20845780Y8399780D01*
X20888960Y8458200D01*
X20916900Y8496300D01*
X20967700Y8585200D01*
X21010880Y8676640D01*
X21046440Y8770620D01*
X21076920Y8867140D01*
X21094700Y8966200D01*
X21107400Y9065260D01*
X21109940Y9166860D01*
X21104860Y9265920D01*
X21092160Y9364980D01*
X21071840Y9464040D01*
X21041360Y9560560D01*
X21028660Y9596120D01*
X20985480Y9692640D01*
X20934680Y9784080D01*
X20878800Y9870440D01*
X20815300Y9949180D01*
X20744180Y10022840D01*
X20667980Y10091420D01*
X20584160Y10152380D01*
X20497800Y10208260D01*
X20436840Y10238740D01*
X20345400Y10279380D01*
X20256500Y10312400D01*
X20167600Y10335260D01*
X20073620Y10350500D01*
X19979640Y10360660D01*
X19903440Y10363200D01*
X19857720Y10360660D01*
X19817080Y10360660D01*
X19781520Y10358120D01*
X19745960Y10353040D01*
X19705320Y10347960D01*
X19677380Y10342880D01*
X19583400Y10320020D01*
X19489420Y10289540D01*
X19397980Y10251440D01*
X19309080Y10208260D01*
X19225260Y10154920D01*
X19146520Y10096500D01*
X19070320Y10033000D01*
X19009360Y9969500D01*
X18943320Y9888220D01*
X18882360Y9804400D01*
X18831560Y9715500D01*
X18788380Y9621520D01*
X18752820Y9525000D01*
X18724880Y9423400D01*
X18704560Y9316720D01*
X18702020Y9301480D01*
X18699480Y9273540D01*
X18696940Y9240520D01*
X18696940Y9202420D01*
X18696940Y9161780D01*
X18696940Y9118600D01*
X18699480Y9077960D01*
X18702020Y9042400D01*
X18704560Y9009380D01*
X18704560Y8999220D01*
X18722340Y8895080D01*
X18750280Y8793480D01*
X18785840Y8696960D01*
X18829020Y8602980D01*
X18879820Y8514080D01*
X18940780Y8425180D01*
X18950940Y8409940D01*
X18978880Y8376920D01*
X19011900Y8341360D01*
X19047460Y8305800D01*
X19085560Y8267700D01*
X19121120Y8234680D01*
X19156680Y8206740D01*
X19169380Y8196580D01*
X19189700Y8181340D01*
X19212560Y8163560D01*
X19235420Y8148320D01*
X19250660Y8135620D01*
X19253200Y8133080D01*
X19268440Y8122920D01*
X19288760Y8110220D01*
X19311620Y8094980D01*
X19334480Y8079740D01*
X19347180Y8072120D01*
X19375120Y8051800D01*
X19397980Y8036560D01*
X19413220Y8023860D01*
X19423380Y8011160D01*
X19428460Y8001000D01*
X19431000Y7990840D01*
X19431000Y7980680D01*
X19428460Y7975600D01*
X19423380Y7960360D01*
X19413220Y7940040D01*
X19403060Y7912100D01*
X19390360Y7876540D01*
X19372580Y7835900D01*
X19354800Y7790180D01*
X19334480Y7739380D01*
X19311620Y7683500D01*
X19286220Y7622540D01*
X19260820Y7559040D01*
X19232880Y7493000D01*
X19202400Y7421880D01*
X19174460Y7350760D01*
X19143980Y7277100D01*
X19110960Y7200900D01*
X19080480Y7124700D01*
X19047460Y7048500D01*
X19016980Y6969760D01*
X18983960Y6893560D01*
X18953480Y6817360D01*
X18923000Y6743700D01*
X18892520Y6670040D01*
X18862040Y6601460D01*
X18834100Y6532880D01*
X18808700Y6469380D01*
X18780760Y6408420D01*
X18757900Y6350000D01*
X18735040Y6299200D01*
X18717260Y6250940D01*
X18696940Y6207760D01*
X18681700Y6172200D01*
X18669000Y6141720D01*
X18658840Y6118860D01*
X18653760Y6103620D01*
X18648680Y6096000D01*
X18648680Y6096000D01*
X18643600Y6090920D01*
X18638520Y6085840D01*
X18633440Y6083300D01*
X18625820Y6083300D01*
X18615660Y6083300D01*
X18605500Y6088380D01*
X18590260Y6093460D01*
X18569940Y6103620D01*
X18544540Y6113780D01*
X18516600Y6129020D01*
X18481040Y6149340D01*
X18437860Y6172200D01*
X18407380Y6187440D01*
X18361660Y6210300D01*
X18326100Y6230620D01*
X18293080Y6248400D01*
X18270220Y6261100D01*
X18249900Y6271260D01*
X18232120Y6278880D01*
X18219420Y6283960D01*
X18211800Y6286500D01*
X18204180Y6289040D01*
X18196560Y6291580D01*
X18191480Y6291580D01*
X18186400Y6291580D01*
X18181320Y6291580D01*
X18178780Y6291580D01*
X18176240Y6291580D01*
X18173700Y6291580D01*
X18171160Y6291580D01*
X18166080Y6291580D01*
X18161000Y6289040D01*
X18153380Y6283960D01*
X18143220Y6278880D01*
X18133060Y6271260D01*
X18117820Y6263640D01*
X18100040Y6250940D01*
X18077180Y6235700D01*
X18051780Y6217920D01*
X18021300Y6197600D01*
X17985740Y6172200D01*
X17945100Y6144260D01*
X17899380Y6113780D01*
X17846040Y6078220D01*
X17787620Y6035040D01*
X17724120Y5991860D01*
X17670780Y5956300D01*
X17619980Y5920740D01*
X17569180Y5887720D01*
X17523460Y5854700D01*
X17480280Y5826760D01*
X17439640Y5798820D01*
X17404080Y5775960D01*
X17376140Y5753100D01*
X17350740Y5737860D01*
X17330420Y5725160D01*
X17320260Y5717540D01*
X17315180Y5712460D01*
X17292320Y5699760D01*
X17272000Y5694680D01*
X17251680Y5694680D01*
X17251680Y5694680D01*
X17246600Y5697220D01*
X17236440Y5707380D01*
X17218660Y5722620D01*
X17195800Y5745480D01*
X17167860Y5773420D01*
X17132300Y5806440D01*
X17091660Y5847080D01*
X17043400Y5895340D01*
X16990060Y5946140D01*
X16931640Y6007100D01*
X16865600Y6073140D01*
X16840200Y6098540D01*
X16781780Y6156960D01*
X16728440Y6210300D01*
X16680180Y6258560D01*
X16639540Y6299200D01*
X16601440Y6337300D01*
X16568420Y6367780D01*
X16543020Y6398260D01*
X16517620Y6421120D01*
X16497300Y6441440D01*
X16482060Y6459220D01*
X16469360Y6471920D01*
X16459200Y6484620D01*
X16449040Y6494780D01*
X16443960Y6502400D01*
X16441420Y6507480D01*
X16438880Y6510020D01*
X16436340Y6515100D01*
X16436340Y6515100D01*
X16433800Y6530340D01*
X16436340Y6543040D01*
X16436340Y6545580D01*
X16441420Y6550660D01*
X16449040Y6563360D01*
X16459200Y6581140D01*
X16476980Y6606540D01*
X16497300Y6634480D01*
X16520160Y6670040D01*
X16548100Y6710680D01*
X16576040Y6753860D01*
X16609060Y6802120D01*
X16644620Y6850380D01*
X16680180Y6903720D01*
X16718280Y6959600D01*
X16736060Y6985000D01*
X16774160Y7040880D01*
X16809720Y7094220D01*
X16845280Y7145020D01*
X16878300Y7195820D01*
X16911320Y7239000D01*
X16939260Y7282180D01*
X16964660Y7320280D01*
X16987520Y7353300D01*
X17005300Y7378700D01*
X17020540Y7401560D01*
X17030700Y7416800D01*
X17035780Y7426960D01*
X17035780Y7426960D01*
X17038320Y7432040D01*
X17040860Y7437120D01*
X17043400Y7444740D01*
X17045940Y7449820D01*
X17045940Y7457440D01*
X17043400Y7467600D01*
X17040860Y7477760D01*
X17038320Y7490460D01*
X17033240Y7508240D01*
X17025620Y7528560D01*
X17015460Y7553960D01*
X17005300Y7584440D01*
X16990060Y7620000D01*
X16974820Y7660640D01*
X16957040Y7706360D01*
X16934180Y7762240D01*
X16911320Y7823200D01*
X16883380Y7891780D01*
X16878300Y7901940D01*
X16855440Y7960360D01*
X16832580Y8016240D01*
X16809720Y8069580D01*
X16791940Y8120380D01*
X16771620Y8166100D01*
X16756380Y8206740D01*
X16741140Y8244840D01*
X16728440Y8275320D01*
X16718280Y8298180D01*
X16710660Y8315960D01*
X16705580Y8326120D01*
X16705580Y8328660D01*
X16703040Y8333740D01*
X16700500Y8336280D01*
X16697960Y8338820D01*
X16692880Y8343900D01*
X16687800Y8346440D01*
X16680180Y8348980D01*
X16670020Y8354060D01*
X16657320Y8356600D01*
X16642080Y8361680D01*
X16621760Y8366760D01*
X16596360Y8371840D01*
X16568420Y8376920D01*
X16532860Y8384540D01*
X16492220Y8392160D01*
X16446500Y8399780D01*
X16393160Y8409940D01*
X16334740Y8422640D01*
X16266160Y8435340D01*
X16189960Y8448040D01*
X16154400Y8455660D01*
X16088360Y8468360D01*
X16024860Y8478520D01*
X15961360Y8491220D01*
X15902940Y8501380D01*
X15849600Y8511540D01*
X15798800Y8521700D01*
X15753080Y8529320D01*
X15714980Y8536940D01*
X15681960Y8544560D01*
X15656560Y8549640D01*
X15636240Y8552180D01*
X15626080Y8554720D01*
X15623540Y8554720D01*
X15603220Y8564880D01*
X15585440Y8580120D01*
X15572740Y8597900D01*
X15572740Y8602980D01*
X15570200Y8610600D01*
X15570200Y8623300D01*
X15570200Y8643620D01*
X15567660Y8669020D01*
X15567660Y8704580D01*
X15567660Y8747760D01*
X15567660Y8798560D01*
X15567660Y8854440D01*
X15567660Y8923020D01*
X15567660Y8996680D01*
X15567660Y9080500D01*
X15567660Y9171940D01*
X15567660Y9174480D01*
X15570200Y9725660D01*
X15582900Y9743440D01*
X15593060Y9753600D01*
X15603220Y9761220D01*
X15605760Y9763760D01*
X15613380Y9766300D01*
X15626080Y9768840D01*
X15648940Y9771380D01*
X15676880Y9779000D01*
X15712440Y9784080D01*
X15755620Y9791700D01*
X15801340Y9801860D01*
X15854680Y9812020D01*
X15910560Y9822180D01*
X15971520Y9834880D01*
X16035020Y9845040D01*
X16101060Y9857740D01*
X16151860Y9867900D01*
X16235680Y9883140D01*
X16316960Y9898380D01*
X16388080Y9911080D01*
X16454120Y9923780D01*
X16512540Y9936480D01*
X16563340Y9944100D01*
X16606520Y9954260D01*
X16642080Y9961880D01*
X16670020Y9966960D01*
X16687800Y9972040D01*
X16700500Y9974580D01*
X16700500Y9974580D01*
X16715740Y9984740D01*
X16728440Y9997440D01*
X16730980Y9999980D01*
X16733520Y10007600D01*
X16741140Y10022840D01*
X16751300Y10043160D01*
X16764000Y10071100D01*
X16779240Y10104120D01*
X16794480Y10139680D01*
X16812260Y10182860D01*
X16832580Y10226040D01*
X16852900Y10274300D01*
X16873220Y10322560D01*
X16893540Y10373360D01*
X16916400Y10424160D01*
X16936720Y10472420D01*
X16959580Y10523220D01*
X16979900Y10571480D01*
X16997680Y10614660D01*
X17015460Y10657840D01*
X17030700Y10695940D01*
X17045940Y10728960D01*
X17056100Y10759440D01*
X17066260Y10779760D01*
X17071340Y10797540D01*
X17076420Y10805160D01*
X17076420Y10805160D01*
X17076420Y10822940D01*
X17071340Y10838180D01*
X17071340Y10840720D01*
X17068800Y10845800D01*
X17061180Y10858500D01*
X17048480Y10878820D01*
X17030700Y10904220D01*
X17010380Y10934700D01*
X16987520Y10970260D01*
X16959580Y11010900D01*
X16929100Y11054080D01*
X16896080Y11102340D01*
X16863060Y11153140D01*
X16824960Y11206480D01*
X16786860Y11264900D01*
X16756380Y11308080D01*
X16718280Y11366500D01*
X16680180Y11422380D01*
X16642080Y11475720D01*
X16609060Y11526520D01*
X16576040Y11572240D01*
X16545560Y11615420D01*
X16520160Y11653520D01*
X16497300Y11689080D01*
X16476980Y11717020D01*
X16461740Y11742420D01*
X16449040Y11760200D01*
X16441420Y11770360D01*
X16438880Y11772900D01*
X16436340Y11788140D01*
X16436340Y11805920D01*
X16436340Y11811000D01*
X16438880Y11813540D01*
X16438880Y11816080D01*
X16441420Y11821160D01*
X16446500Y11826240D01*
X16451580Y11833860D01*
X16459200Y11844020D01*
X16469360Y11854180D01*
X16482060Y11869420D01*
X16497300Y11884660D01*
X16517620Y11904980D01*
X16540480Y11927840D01*
X16565880Y11955780D01*
X16598900Y11986260D01*
X16634460Y12021820D01*
X16675100Y12062460D01*
X16720820Y12110720D01*
X16771620Y12161520D01*
X16830040Y12219940D01*
X16837660Y12227560D01*
X16896080Y12285980D01*
X16949420Y12339320D01*
X16997680Y12385040D01*
X17038320Y12428220D01*
X17076420Y12463780D01*
X17109440Y12496800D01*
X17137380Y12524740D01*
X17160240Y12547600D01*
X17180560Y12567920D01*
X17198340Y12583160D01*
X17211040Y12595860D01*
X17223740Y12606020D01*
X17231360Y12613640D01*
X17238980Y12621260D01*
X17244060Y12623800D01*
X17249140Y12626340D01*
X17251680Y12628880D01*
X17254220Y12628880D01*
X17269460Y12628880D01*
X17284700Y12626340D01*
X17284700Y12626340D01*
X17289780Y12623800D01*
X17302480Y12616180D01*
X17322800Y12603480D01*
X17345660Y12588240D01*
X17376140Y12567920D01*
X17411700Y12542520D01*
X17452340Y12517120D01*
X17495520Y12486640D01*
X17543780Y12453620D01*
X17594580Y12418060D01*
X17647920Y12382500D01*
X17706340Y12344400D01*
X17752060Y12311380D01*
X17810480Y12270740D01*
X17866360Y12232640D01*
X17919700Y12197080D01*
X17970500Y12161520D01*
X18018760Y12128500D01*
X18061940Y12098020D01*
X18102580Y12072620D01*
X18138140Y12047220D01*
X18168620Y12026900D01*
X18191480Y12011660D01*
X18209260Y11998960D01*
X18221960Y11991340D01*
X18227040Y11988800D01*
X18232120Y11983720D01*
X18237200Y11981180D01*
X18244820Y11981180D01*
X18249900Y11978640D01*
X18257520Y11978640D01*
X18267680Y11978640D01*
X18280380Y11981180D01*
X18295620Y11986260D01*
X18313400Y11991340D01*
X18336260Y11998960D01*
X18361660Y12009120D01*
X18392140Y12021820D01*
X18430240Y12037060D01*
X18473420Y12054840D01*
X18521680Y12075160D01*
X18577560Y12098020D01*
X18641060Y12123420D01*
X18676620Y12136120D01*
X18750280Y12166600D01*
X18813780Y12194540D01*
X18872200Y12217400D01*
X18920460Y12237720D01*
X18961100Y12255500D01*
X18996660Y12270740D01*
X19024600Y12283440D01*
X19044920Y12293600D01*
X19060160Y12298680D01*
X19067780Y12303760D01*
X19067780Y12303760D01*
X19077940Y12316460D01*
X19085560Y12331700D01*
X19088100Y12334240D01*
X19088100Y12341860D01*
X19093180Y12357100D01*
X19095720Y12379960D01*
X19103340Y12410440D01*
X19108420Y12446000D01*
X19118580Y12489180D01*
X19126200Y12537440D01*
X19136360Y12590780D01*
X19149060Y12646660D01*
X19159220Y12707620D01*
X19171920Y12773660D01*
X19184620Y12839700D01*
X19194780Y12903200D01*
X19207480Y12971780D01*
X19220180Y13037820D01*
X19232880Y13101320D01*
X19245580Y13162280D01*
X19255740Y13218160D01*
X19265900Y13271500D01*
X19273520Y13317220D01*
X19281140Y13357860D01*
X19288760Y13393420D01*
X19293840Y13421360D01*
X19298920Y13444220D01*
X19301460Y13456920D01*
X19304000Y13462000D01*
X19311620Y13472160D01*
X19321780Y13482320D01*
X19324320Y13484860D01*
X19339560Y13495020D01*
X19903440Y13495020D01*
X20467320Y13495020D01*
X20482560Y13482320D01*
X20495260Y13472160D01*
X20502880Y13462000D01*
X20505420Y13459460D01*
X20505420Y13451840D01*
X20507960Y13439140D01*
X20513040Y13416280D01*
X20518120Y13385800D01*
X20525740Y13350240D01*
X20533360Y13309600D01*
X20543520Y13261340D01*
X20553680Y13208000D01*
X20563840Y13152120D01*
X20576540Y13091160D01*
X20586700Y13027660D01*
X20599400Y12959080D01*
X20612100Y12890500D01*
X20627340Y12809220D01*
X20642580Y12733020D01*
X20655280Y12666980D01*
X20665440Y12606020D01*
X20675600Y12555220D01*
X20685760Y12509500D01*
X20693380Y12468860D01*
X20698460Y12435840D01*
X20706080Y12405360D01*
X20711160Y12382500D01*
X20716240Y12362180D01*
X20718780Y12346940D01*
X20723860Y12331700D01*
X20726400Y12321540D01*
X20728940Y12313920D01*
X20734020Y12308840D01*
X20736560Y12306300D01*
X20739100Y12301220D01*
X20744180Y12298680D01*
X20746720Y12296140D01*
X20749260Y12296140D01*
X20754340Y12293600D01*
X20767040Y12285980D01*
X20787360Y12278360D01*
X20815300Y12268200D01*
X20848320Y12252960D01*
X20886420Y12237720D01*
X20929600Y12219940D01*
X20975320Y12199620D01*
X21026120Y12179300D01*
X21079460Y12158980D01*
X21135340Y12136120D01*
X21135340Y12136120D01*
X21201380Y12108180D01*
X21262340Y12082780D01*
X21313140Y12062460D01*
X21358860Y12042140D01*
X21399500Y12026900D01*
X21432520Y12014200D01*
X21460460Y12004040D01*
X21485860Y11993880D01*
X21506180Y11988800D01*
X21521420Y11983720D01*
X21536660Y11981180D01*
X21546820Y11978640D01*
X21554440Y11978640D01*
X21562060Y11981180D01*
X21569680Y11981180D01*
X21574760Y11986260D01*
X21582380Y11988800D01*
X21587460Y11993880D01*
X21595080Y11996420D01*
X21607780Y12006580D01*
X21628100Y12019280D01*
X21656040Y12037060D01*
X21686520Y12059920D01*
X21722080Y12085320D01*
X21765260Y12113260D01*
X21808440Y12143740D01*
X21859240Y12176760D01*
X21910040Y12212320D01*
X21963380Y12250420D01*
X22019260Y12288520D01*
X22059900Y12316460D01*
X22118320Y12354560D01*
X22171660Y12392660D01*
X22225000Y12428220D01*
X22275800Y12463780D01*
X22321520Y12494260D01*
X22364700Y12524740D01*
X22405340Y12550140D01*
X22438360Y12573000D01*
X22466300Y12590780D01*
X22489160Y12608560D01*
X22506940Y12618720D01*
X22517100Y12623800D01*
X22522180Y12626340D01*
X22534880Y12628880D01*
X22550120Y12628880D01*
X22552660Y12628880D01*
X22555200Y12626340D01*
X22560280Y12626340D01*
X22565360Y12621260D01*
X22570440Y12616180D01*
X22580600Y12608560D01*
X22590760Y12600940D01*
X22603460Y12588240D01*
X22618700Y12573000D01*
X22639020Y12555220D01*
X22661880Y12532360D01*
X22687280Y12506960D01*
X22717760Y12476480D01*
X22753320Y12440920D01*
X22793960Y12400280D01*
X22839680Y12357100D01*
X22890480Y12306300D01*
X22946360Y12247880D01*
X22969220Y12227560D01*
X23027640Y12169140D01*
X23078440Y12115800D01*
X23126700Y12067540D01*
X23167340Y12026900D01*
X23205440Y11991340D01*
X23235920Y11958320D01*
X23263860Y11930380D01*
X23286720Y11907520D01*
X23307040Y11887200D01*
X23322280Y11869420D01*
X23334980Y11856720D01*
X23345140Y11844020D01*
X23352760Y11836400D01*
X23360380Y11828780D01*
X23362920Y11821160D01*
X23365460Y11818620D01*
X23368000Y11813540D01*
X23370540Y11811000D01*
X23370540Y11808460D01*
X23370540Y11805920D01*
X23370540Y11788140D01*
X23365460Y11772900D01*
X23362920Y11767820D01*
X23355300Y11755120D01*
X23342600Y11737340D01*
X23324820Y11711940D01*
X23304500Y11681460D01*
X23281640Y11645900D01*
X23253700Y11605260D01*
X23223220Y11562080D01*
X23190200Y11513820D01*
X23157180Y11463020D01*
X23119080Y11409680D01*
X23080980Y11353800D01*
X23053040Y11313160D01*
X23012400Y11254740D01*
X22974300Y11201400D01*
X22938740Y11148060D01*
X22905720Y11097260D01*
X22872700Y11049000D01*
X22842220Y11005820D01*
X22816820Y10967720D01*
X22793960Y10932160D01*
X22773640Y10901680D01*
X22758400Y10878820D01*
X22745700Y10861040D01*
X22740620Y10850880D01*
X22738080Y10845800D01*
X22730460Y10822940D01*
X22730460Y10807700D01*
X22733000Y10802620D01*
X22738080Y10787380D01*
X22745700Y10767060D01*
X22758400Y10739120D01*
X22771100Y10706100D01*
X22786340Y10668000D01*
X22804120Y10627360D01*
X22821900Y10584180D01*
X22842220Y10535920D01*
X22862540Y10487660D01*
X22885400Y10436860D01*
X22905720Y10386060D01*
X22926040Y10335260D01*
X22948900Y10287000D01*
X22969220Y10238740D01*
X22989540Y10193020D01*
X23007320Y10149840D01*
X23025100Y10111740D01*
X23037800Y10078720D01*
X23053040Y10048240D01*
X23063200Y10025380D01*
X23070820Y10010140D01*
X23073360Y9999980D01*
X23075900Y9999980D01*
X23086060Y9987280D01*
X23101300Y9977120D01*
X23103840Y9974580D01*
X23111460Y9972040D01*
X23129240Y9969500D01*
X23152100Y9964420D01*
X23185120Y9956800D01*
X23225760Y9949180D01*
X23274020Y9939020D01*
X23329900Y9928860D01*
X23393400Y9916160D01*
X23461980Y9903460D01*
X23540720Y9888220D01*
X23622000Y9872980D01*
X23647400Y9867900D01*
X23715980Y9855200D01*
X23782020Y9845040D01*
X23845520Y9832340D01*
X23903940Y9822180D01*
X23959820Y9812020D01*
X24010620Y9801860D01*
X24056340Y9791700D01*
X24096980Y9784080D01*
X24130000Y9779000D01*
X24157940Y9773920D01*
X24175720Y9768840D01*
X24188420Y9766300D01*
X24190960Y9766300D01*
X24208740Y9756140D01*
X24223980Y9743440D01*
X24236680Y9725660D01*
X24236680Y9725660D01*
X24236680Y9725660D01*
G37*
X24236680Y9725660D02*
X24236680Y9166860D01*
X24236680Y9080500D01*
X24236680Y9001760D01*
X24236680Y8933180D01*
X24236680Y8872220D01*
X24236680Y8818880D01*
X24236680Y8770620D01*
X24236680Y8729980D01*
X24236680Y8694420D01*
X24234140Y8666480D01*
X24234140Y8643620D01*
X24234140Y8625840D01*
X24234140Y8610600D01*
X24231600Y8600440D01*
X24231600Y8595360D01*
X24231600Y8592820D01*
X24218900Y8575040D01*
X24201120Y8562340D01*
X24180800Y8554720D01*
X24173180Y8552180D01*
X24157940Y8549640D01*
X24135080Y8547100D01*
X24104600Y8539480D01*
X24069040Y8534400D01*
X24025860Y8524240D01*
X23977600Y8516620D01*
X23926800Y8506460D01*
X23868380Y8496300D01*
X23809960Y8483600D01*
X23746460Y8473440D01*
X23680420Y8460740D01*
X23649940Y8455660D01*
X23571200Y8440420D01*
X23500080Y8427720D01*
X23436580Y8415020D01*
X23380700Y8404860D01*
X23332440Y8394700D01*
X23289260Y8387080D01*
X23251160Y8379460D01*
X23220680Y8374380D01*
X23195280Y8369300D01*
X23172420Y8364220D01*
X23154640Y8359140D01*
X23141940Y8354060D01*
X23129240Y8351520D01*
X23121620Y8348980D01*
X23116540Y8343900D01*
X23111460Y8341360D01*
X23106380Y8338820D01*
X23103840Y8333740D01*
X23101300Y8331200D01*
X23101300Y8328660D01*
X23098760Y8323580D01*
X23093680Y8310880D01*
X23083520Y8288020D01*
X23073360Y8262620D01*
X23060660Y8229600D01*
X23042880Y8191500D01*
X23025100Y8145780D01*
X23007320Y8100060D01*
X22987000Y8046720D01*
X22964140Y7993380D01*
X22941280Y7934960D01*
X22928580Y7901940D01*
X22900640Y7833360D01*
X22875240Y7769860D01*
X22852380Y7716520D01*
X22834600Y7668260D01*
X22816820Y7625080D01*
X22804120Y7589520D01*
X22791420Y7559040D01*
X22781260Y7533640D01*
X22776180Y7513320D01*
X22768560Y7495540D01*
X22766020Y7480300D01*
X22763480Y7470140D01*
X22760940Y7459980D01*
X22760940Y7452360D01*
X22760940Y7447280D01*
X22763480Y7442200D01*
X22766020Y7437120D01*
X22766020Y7432040D01*
X22768560Y7426960D01*
X22778720Y7414260D01*
X22791420Y7396480D01*
X22806660Y7371080D01*
X22826980Y7340600D01*
X22849840Y7305040D01*
X22877780Y7266940D01*
X22908260Y7223760D01*
X22938740Y7175500D01*
X22974300Y7124700D01*
X23009860Y7071360D01*
X23047960Y7018020D01*
X23065740Y6990080D01*
X23103840Y6934200D01*
X23141940Y6880860D01*
X23177500Y6827520D01*
X23210520Y6779260D01*
X23241000Y6733540D01*
X23268940Y6692900D01*
X23294340Y6657340D01*
X23317200Y6624320D01*
X23334980Y6596380D01*
X23350220Y6576060D01*
X23360380Y6560820D01*
X23365460Y6553200D01*
X23365460Y6550660D01*
X23370540Y6532880D01*
X23368000Y6512560D01*
X23365460Y6504940D01*
X23362920Y6499860D01*
X23352760Y6487160D01*
X23334980Y6471920D01*
X23314660Y6449060D01*
X23289260Y6421120D01*
X23256240Y6390640D01*
X23220680Y6352540D01*
X23180040Y6311900D01*
X23136860Y6268720D01*
X23088600Y6220460D01*
X23037800Y6169660D01*
X22984460Y6116320D01*
X22961600Y6093460D01*
X22903180Y6035040D01*
X22849840Y5981700D01*
X22801580Y5933440D01*
X22760940Y5892800D01*
X22722840Y5854700D01*
X22689820Y5824220D01*
X22661880Y5796280D01*
X22639020Y5770880D01*
X22616160Y5753100D01*
X22598380Y5735320D01*
X22585680Y5722620D01*
X22572980Y5712460D01*
X22562820Y5704840D01*
X22555200Y5699760D01*
X22547580Y5694680D01*
X22542500Y5694680D01*
X22537420Y5692140D01*
X22532340Y5694680D01*
X22527260Y5694680D01*
X22524720Y5697220D01*
X22522180Y5697220D01*
X22517100Y5699760D01*
X22504400Y5707380D01*
X22484080Y5720080D01*
X22461220Y5735320D01*
X22430740Y5755640D01*
X22395180Y5781040D01*
X22354540Y5806440D01*
X22311360Y5834380D01*
X22265640Y5867400D01*
X22217380Y5900420D01*
X22166580Y5935980D01*
X22128480Y5961380D01*
X22057360Y6009640D01*
X21996400Y6052820D01*
X21940520Y6090920D01*
X21889720Y6126480D01*
X21846540Y6154420D01*
X21808440Y6182360D01*
X21772880Y6205220D01*
X21744940Y6223000D01*
X21722080Y6240780D01*
X21701760Y6253480D01*
X21683980Y6266180D01*
X21671280Y6273800D01*
X21658580Y6281420D01*
X21650960Y6286500D01*
X21643340Y6289040D01*
X21638260Y6291580D01*
X21635720Y6291580D01*
X21633180Y6291580D01*
X21630640Y6291580D01*
X21625560Y6291580D01*
X21623020Y6291580D01*
X21620480Y6291580D01*
X21615400Y6291580D01*
X21607780Y6291580D01*
X21602700Y6289040D01*
X21592540Y6286500D01*
X21584920Y6283960D01*
X21569680Y6276340D01*
X21554440Y6268720D01*
X21531580Y6258560D01*
X21506180Y6243320D01*
X21475700Y6228080D01*
X21435060Y6207760D01*
X21399500Y6187440D01*
X21351240Y6162040D01*
X21313140Y6141720D01*
X21277580Y6123940D01*
X21252180Y6108700D01*
X21229320Y6098540D01*
X21211540Y6090920D01*
X21196300Y6085840D01*
X21186140Y6083300D01*
X21178520Y6083300D01*
X21170900Y6083300D01*
X21165820Y6088380D01*
X21160740Y6090920D01*
X21158200Y6096000D01*
X21155660Y6101080D01*
X21148040Y6113780D01*
X21140420Y6134100D01*
X21127720Y6162040D01*
X21112480Y6195060D01*
X21097240Y6235700D01*
X21076920Y6281420D01*
X21056600Y6332220D01*
X21031200Y6388100D01*
X21008340Y6446520D01*
X20980400Y6510020D01*
X20952460Y6578600D01*
X20924520Y6647180D01*
X20894040Y6718300D01*
X20863560Y6791960D01*
X20833080Y6868160D01*
X20800060Y6944360D01*
X20769580Y7020560D01*
X20736560Y7099300D01*
X20703540Y7175500D01*
X20673060Y7251700D01*
X20642580Y7325360D01*
X20612100Y7399020D01*
X20584160Y7470140D01*
X20556220Y7536180D01*
X20528280Y7602220D01*
X20502880Y7663180D01*
X20480020Y7721600D01*
X20459700Y7772400D01*
X20439380Y7820660D01*
X20421600Y7863840D01*
X20406360Y7901940D01*
X20396200Y7932420D01*
X20386040Y7955280D01*
X20378420Y7970520D01*
X20375880Y7980680D01*
X20375880Y7980680D01*
X20375880Y7993380D01*
X20378420Y8003540D01*
X20386040Y8016240D01*
X20396200Y8026400D01*
X20413980Y8041640D01*
X20439380Y8056880D01*
X20459700Y8072120D01*
X20482560Y8087360D01*
X20507960Y8102600D01*
X20528280Y8117840D01*
X20546060Y8130540D01*
X20553680Y8133080D01*
X20568920Y8145780D01*
X20586700Y8161020D01*
X20609560Y8176260D01*
X20632420Y8194040D01*
X20637500Y8196580D01*
X20690840Y8239760D01*
X20744180Y8288020D01*
X20794980Y8343900D01*
X20845780Y8399780D01*
X20888960Y8458200D01*
X20916900Y8496300D01*
X20967700Y8585200D01*
X21010880Y8676640D01*
X21046440Y8770620D01*
X21076920Y8867140D01*
X21094700Y8966200D01*
X21107400Y9065260D01*
X21109940Y9166860D01*
X21104860Y9265920D01*
X21092160Y9364980D01*
X21071840Y9464040D01*
X21041360Y9560560D01*
X21028660Y9596120D01*
X20985480Y9692640D01*
X20934680Y9784080D01*
X20878800Y9870440D01*
X20815300Y9949180D01*
X20744180Y10022840D01*
X20667980Y10091420D01*
X20584160Y10152380D01*
X20497800Y10208260D01*
X20436840Y10238740D01*
X20345400Y10279380D01*
X20256500Y10312400D01*
X20167600Y10335260D01*
X20073620Y10350500D01*
X19979640Y10360660D01*
X19903440Y10363200D01*
X19857720Y10360660D01*
X19817080Y10360660D01*
X19781520Y10358120D01*
X19745960Y10353040D01*
X19705320Y10347960D01*
X19677380Y10342880D01*
X19583400Y10320020D01*
X19489420Y10289540D01*
X19397980Y10251440D01*
X19309080Y10208260D01*
X19225260Y10154920D01*
X19146520Y10096500D01*
X19070320Y10033000D01*
X19009360Y9969500D01*
X18943320Y9888220D01*
X18882360Y9804400D01*
X18831560Y9715500D01*
X18788380Y9621520D01*
X18752820Y9525000D01*
X18724880Y9423400D01*
X18704560Y9316720D01*
X18702020Y9301480D01*
X18699480Y9273540D01*
X18696940Y9240520D01*
X18696940Y9202420D01*
X18696940Y9161780D01*
X18696940Y9118600D01*
X18699480Y9077960D01*
X18702020Y9042400D01*
X18704560Y9009380D01*
X18704560Y8999220D01*
X18722340Y8895080D01*
X18750280Y8793480D01*
X18785840Y8696960D01*
X18829020Y8602980D01*
X18879820Y8514080D01*
X18940780Y8425180D01*
X18950940Y8409940D01*
X18978880Y8376920D01*
X19011900Y8341360D01*
X19047460Y8305800D01*
X19085560Y8267700D01*
X19121120Y8234680D01*
X19156680Y8206740D01*
X19169380Y8196580D01*
X19189700Y8181340D01*
X19212560Y8163560D01*
X19235420Y8148320D01*
X19250660Y8135620D01*
X19253200Y8133080D01*
X19268440Y8122920D01*
X19288760Y8110220D01*
X19311620Y8094980D01*
X19334480Y8079740D01*
X19347180Y8072120D01*
X19375120Y8051800D01*
X19397980Y8036560D01*
X19413220Y8023860D01*
X19423380Y8011160D01*
X19428460Y8001000D01*
X19431000Y7990840D01*
X19431000Y7980680D01*
X19428460Y7975600D01*
X19423380Y7960360D01*
X19413220Y7940040D01*
X19403060Y7912100D01*
X19390360Y7876540D01*
X19372580Y7835900D01*
X19354800Y7790180D01*
X19334480Y7739380D01*
X19311620Y7683500D01*
X19286220Y7622540D01*
X19260820Y7559040D01*
X19232880Y7493000D01*
X19202400Y7421880D01*
X19174460Y7350760D01*
X19143980Y7277100D01*
X19110960Y7200900D01*
X19080480Y7124700D01*
X19047460Y7048500D01*
X19016980Y6969760D01*
X18983960Y6893560D01*
X18953480Y6817360D01*
X18923000Y6743700D01*
X18892520Y6670040D01*
X18862040Y6601460D01*
X18834100Y6532880D01*
X18808700Y6469380D01*
X18780760Y6408420D01*
X18757900Y6350000D01*
X18735040Y6299200D01*
X18717260Y6250940D01*
X18696940Y6207760D01*
X18681700Y6172200D01*
X18669000Y6141720D01*
X18658840Y6118860D01*
X18653760Y6103620D01*
X18648680Y6096000D01*
X18648680Y6096000D01*
X18643600Y6090920D01*
X18638520Y6085840D01*
X18633440Y6083300D01*
X18625820Y6083300D01*
X18615660Y6083300D01*
X18605500Y6088380D01*
X18590260Y6093460D01*
X18569940Y6103620D01*
X18544540Y6113780D01*
X18516600Y6129020D01*
X18481040Y6149340D01*
X18437860Y6172200D01*
X18407380Y6187440D01*
X18361660Y6210300D01*
X18326100Y6230620D01*
X18293080Y6248400D01*
X18270220Y6261100D01*
X18249900Y6271260D01*
X18232120Y6278880D01*
X18219420Y6283960D01*
X18211800Y6286500D01*
X18204180Y6289040D01*
X18196560Y6291580D01*
X18191480Y6291580D01*
X18186400Y6291580D01*
X18181320Y6291580D01*
X18178780Y6291580D01*
X18176240Y6291580D01*
X18173700Y6291580D01*
X18171160Y6291580D01*
X18166080Y6291580D01*
X18161000Y6289040D01*
X18153380Y6283960D01*
X18143220Y6278880D01*
X18133060Y6271260D01*
X18117820Y6263640D01*
X18100040Y6250940D01*
X18077180Y6235700D01*
X18051780Y6217920D01*
X18021300Y6197600D01*
X17985740Y6172200D01*
X17945100Y6144260D01*
X17899380Y6113780D01*
X17846040Y6078220D01*
X17787620Y6035040D01*
X17724120Y5991860D01*
X17670780Y5956300D01*
X17619980Y5920740D01*
X17569180Y5887720D01*
X17523460Y5854700D01*
X17480280Y5826760D01*
X17439640Y5798820D01*
X17404080Y5775960D01*
X17376140Y5753100D01*
X17350740Y5737860D01*
X17330420Y5725160D01*
X17320260Y5717540D01*
X17315180Y5712460D01*
X17292320Y5699760D01*
X17272000Y5694680D01*
X17251680Y5694680D01*
X17251680Y5694680D01*
X17246600Y5697220D01*
X17236440Y5707380D01*
X17218660Y5722620D01*
X17195800Y5745480D01*
X17167860Y5773420D01*
X17132300Y5806440D01*
X17091660Y5847080D01*
X17043400Y5895340D01*
X16990060Y5946140D01*
X16931640Y6007100D01*
X16865600Y6073140D01*
X16840200Y6098540D01*
X16781780Y6156960D01*
X16728440Y6210300D01*
X16680180Y6258560D01*
X16639540Y6299200D01*
X16601440Y6337300D01*
X16568420Y6367780D01*
X16543020Y6398260D01*
X16517620Y6421120D01*
X16497300Y6441440D01*
X16482060Y6459220D01*
X16469360Y6471920D01*
X16459200Y6484620D01*
X16449040Y6494780D01*
X16443960Y6502400D01*
X16441420Y6507480D01*
X16438880Y6510020D01*
X16436340Y6515100D01*
X16436340Y6515100D01*
X16433800Y6530340D01*
X16436340Y6543040D01*
X16436340Y6545580D01*
X16441420Y6550660D01*
X16449040Y6563360D01*
X16459200Y6581140D01*
X16476980Y6606540D01*
X16497300Y6634480D01*
X16520160Y6670040D01*
X16548100Y6710680D01*
X16576040Y6753860D01*
X16609060Y6802120D01*
X16644620Y6850380D01*
X16680180Y6903720D01*
X16718280Y6959600D01*
X16736060Y6985000D01*
X16774160Y7040880D01*
X16809720Y7094220D01*
X16845280Y7145020D01*
X16878300Y7195820D01*
X16911320Y7239000D01*
X16939260Y7282180D01*
X16964660Y7320280D01*
X16987520Y7353300D01*
X17005300Y7378700D01*
X17020540Y7401560D01*
X17030700Y7416800D01*
X17035780Y7426960D01*
X17035780Y7426960D01*
X17038320Y7432040D01*
X17040860Y7437120D01*
X17043400Y7444740D01*
X17045940Y7449820D01*
X17045940Y7457440D01*
X17043400Y7467600D01*
X17040860Y7477760D01*
X17038320Y7490460D01*
X17033240Y7508240D01*
X17025620Y7528560D01*
X17015460Y7553960D01*
X17005300Y7584440D01*
X16990060Y7620000D01*
X16974820Y7660640D01*
X16957040Y7706360D01*
X16934180Y7762240D01*
X16911320Y7823200D01*
X16883380Y7891780D01*
X16878300Y7901940D01*
X16855440Y7960360D01*
X16832580Y8016240D01*
X16809720Y8069580D01*
X16791940Y8120380D01*
X16771620Y8166100D01*
X16756380Y8206740D01*
X16741140Y8244840D01*
X16728440Y8275320D01*
X16718280Y8298180D01*
X16710660Y8315960D01*
X16705580Y8326120D01*
X16705580Y8328660D01*
X16703040Y8333740D01*
X16700500Y8336280D01*
X16697960Y8338820D01*
X16692880Y8343900D01*
X16687800Y8346440D01*
X16680180Y8348980D01*
X16670020Y8354060D01*
X16657320Y8356600D01*
X16642080Y8361680D01*
X16621760Y8366760D01*
X16596360Y8371840D01*
X16568420Y8376920D01*
X16532860Y8384540D01*
X16492220Y8392160D01*
X16446500Y8399780D01*
X16393160Y8409940D01*
X16334740Y8422640D01*
X16266160Y8435340D01*
X16189960Y8448040D01*
X16154400Y8455660D01*
X16088360Y8468360D01*
X16024860Y8478520D01*
X15961360Y8491220D01*
X15902940Y8501380D01*
X15849600Y8511540D01*
X15798800Y8521700D01*
X15753080Y8529320D01*
X15714980Y8536940D01*
X15681960Y8544560D01*
X15656560Y8549640D01*
X15636240Y8552180D01*
X15626080Y8554720D01*
X15623540Y8554720D01*
X15603220Y8564880D01*
X15585440Y8580120D01*
X15572740Y8597900D01*
X15572740Y8602980D01*
X15570200Y8610600D01*
X15570200Y8623300D01*
X15570200Y8643620D01*
X15567660Y8669020D01*
X15567660Y8704580D01*
X15567660Y8747760D01*
X15567660Y8798560D01*
X15567660Y8854440D01*
X15567660Y8923020D01*
X15567660Y8996680D01*
X15567660Y9080500D01*
X15567660Y9171940D01*
X15567660Y9174480D01*
X15570200Y9725660D01*
X15582900Y9743440D01*
X15593060Y9753600D01*
X15603220Y9761220D01*
X15605760Y9763760D01*
X15613380Y9766300D01*
X15626080Y9768840D01*
X15648940Y9771380D01*
X15676880Y9779000D01*
X15712440Y9784080D01*
X15755620Y9791700D01*
X15801340Y9801860D01*
X15854680Y9812020D01*
X15910560Y9822180D01*
X15971520Y9834880D01*
X16035020Y9845040D01*
X16101060Y9857740D01*
X16151860Y9867900D01*
X16235680Y9883140D01*
X16316960Y9898380D01*
X16388080Y9911080D01*
X16454120Y9923780D01*
X16512540Y9936480D01*
X16563340Y9944100D01*
X16606520Y9954260D01*
X16642080Y9961880D01*
X16670020Y9966960D01*
X16687800Y9972040D01*
X16700500Y9974580D01*
X16700500Y9974580D01*
X16715740Y9984740D01*
X16728440Y9997440D01*
X16730980Y9999980D01*
X16733520Y10007600D01*
X16741140Y10022840D01*
X16751300Y10043160D01*
X16764000Y10071100D01*
X16779240Y10104120D01*
X16794480Y10139680D01*
X16812260Y10182860D01*
X16832580Y10226040D01*
X16852900Y10274300D01*
X16873220Y10322560D01*
X16893540Y10373360D01*
X16916400Y10424160D01*
X16936720Y10472420D01*
X16959580Y10523220D01*
X16979900Y10571480D01*
X16997680Y10614660D01*
X17015460Y10657840D01*
X17030700Y10695940D01*
X17045940Y10728960D01*
X17056100Y10759440D01*
X17066260Y10779760D01*
X17071340Y10797540D01*
X17076420Y10805160D01*
X17076420Y10805160D01*
X17076420Y10822940D01*
X17071340Y10838180D01*
X17071340Y10840720D01*
X17068800Y10845800D01*
X17061180Y10858500D01*
X17048480Y10878820D01*
X17030700Y10904220D01*
X17010380Y10934700D01*
X16987520Y10970260D01*
X16959580Y11010900D01*
X16929100Y11054080D01*
X16896080Y11102340D01*
X16863060Y11153140D01*
X16824960Y11206480D01*
X16786860Y11264900D01*
X16756380Y11308080D01*
X16718280Y11366500D01*
X16680180Y11422380D01*
X16642080Y11475720D01*
X16609060Y11526520D01*
X16576040Y11572240D01*
X16545560Y11615420D01*
X16520160Y11653520D01*
X16497300Y11689080D01*
X16476980Y11717020D01*
X16461740Y11742420D01*
X16449040Y11760200D01*
X16441420Y11770360D01*
X16438880Y11772900D01*
X16436340Y11788140D01*
X16436340Y11805920D01*
X16436340Y11811000D01*
X16438880Y11813540D01*
X16438880Y11816080D01*
X16441420Y11821160D01*
X16446500Y11826240D01*
X16451580Y11833860D01*
X16459200Y11844020D01*
X16469360Y11854180D01*
X16482060Y11869420D01*
X16497300Y11884660D01*
X16517620Y11904980D01*
X16540480Y11927840D01*
X16565880Y11955780D01*
X16598900Y11986260D01*
X16634460Y12021820D01*
X16675100Y12062460D01*
X16720820Y12110720D01*
X16771620Y12161520D01*
X16830040Y12219940D01*
X16837660Y12227560D01*
X16896080Y12285980D01*
X16949420Y12339320D01*
X16997680Y12385040D01*
X17038320Y12428220D01*
X17076420Y12463780D01*
X17109440Y12496800D01*
X17137380Y12524740D01*
X17160240Y12547600D01*
X17180560Y12567920D01*
X17198340Y12583160D01*
X17211040Y12595860D01*
X17223740Y12606020D01*
X17231360Y12613640D01*
X17238980Y12621260D01*
X17244060Y12623800D01*
X17249140Y12626340D01*
X17251680Y12628880D01*
X17254220Y12628880D01*
X17269460Y12628880D01*
X17284700Y12626340D01*
X17284700Y12626340D01*
X17289780Y12623800D01*
X17302480Y12616180D01*
X17322800Y12603480D01*
X17345660Y12588240D01*
X17376140Y12567920D01*
X17411700Y12542520D01*
X17452340Y12517120D01*
X17495520Y12486640D01*
X17543780Y12453620D01*
X17594580Y12418060D01*
X17647920Y12382500D01*
X17706340Y12344400D01*
X17752060Y12311380D01*
X17810480Y12270740D01*
X17866360Y12232640D01*
X17919700Y12197080D01*
X17970500Y12161520D01*
X18018760Y12128500D01*
X18061940Y12098020D01*
X18102580Y12072620D01*
X18138140Y12047220D01*
X18168620Y12026900D01*
X18191480Y12011660D01*
X18209260Y11998960D01*
X18221960Y11991340D01*
X18227040Y11988800D01*
X18232120Y11983720D01*
X18237200Y11981180D01*
X18244820Y11981180D01*
X18249900Y11978640D01*
X18257520Y11978640D01*
X18267680Y11978640D01*
X18280380Y11981180D01*
X18295620Y11986260D01*
X18313400Y11991340D01*
X18336260Y11998960D01*
X18361660Y12009120D01*
X18392140Y12021820D01*
X18430240Y12037060D01*
X18473420Y12054840D01*
X18521680Y12075160D01*
X18577560Y12098020D01*
X18641060Y12123420D01*
X18676620Y12136120D01*
X18750280Y12166600D01*
X18813780Y12194540D01*
X18872200Y12217400D01*
X18920460Y12237720D01*
X18961100Y12255500D01*
X18996660Y12270740D01*
X19024600Y12283440D01*
X19044920Y12293600D01*
X19060160Y12298680D01*
X19067780Y12303760D01*
X19067780Y12303760D01*
X19077940Y12316460D01*
X19085560Y12331700D01*
X19088100Y12334240D01*
X19088100Y12341860D01*
X19093180Y12357100D01*
X19095720Y12379960D01*
X19103340Y12410440D01*
X19108420Y12446000D01*
X19118580Y12489180D01*
X19126200Y12537440D01*
X19136360Y12590780D01*
X19149060Y12646660D01*
X19159220Y12707620D01*
X19171920Y12773660D01*
X19184620Y12839700D01*
X19194780Y12903200D01*
X19207480Y12971780D01*
X19220180Y13037820D01*
X19232880Y13101320D01*
X19245580Y13162280D01*
X19255740Y13218160D01*
X19265900Y13271500D01*
X19273520Y13317220D01*
X19281140Y13357860D01*
X19288760Y13393420D01*
X19293840Y13421360D01*
X19298920Y13444220D01*
X19301460Y13456920D01*
X19304000Y13462000D01*
X19311620Y13472160D01*
X19321780Y13482320D01*
X19324320Y13484860D01*
X19339560Y13495020D01*
X19903440Y13495020D01*
X20467320Y13495020D01*
X20482560Y13482320D01*
X20495260Y13472160D01*
X20502880Y13462000D01*
X20505420Y13459460D01*
X20505420Y13451840D01*
X20507960Y13439140D01*
X20513040Y13416280D01*
X20518120Y13385800D01*
X20525740Y13350240D01*
X20533360Y13309600D01*
X20543520Y13261340D01*
X20553680Y13208000D01*
X20563840Y13152120D01*
X20576540Y13091160D01*
X20586700Y13027660D01*
X20599400Y12959080D01*
X20612100Y12890500D01*
X20627340Y12809220D01*
X20642580Y12733020D01*
X20655280Y12666980D01*
X20665440Y12606020D01*
X20675600Y12555220D01*
X20685760Y12509500D01*
X20693380Y12468860D01*
X20698460Y12435840D01*
X20706080Y12405360D01*
X20711160Y12382500D01*
X20716240Y12362180D01*
X20718780Y12346940D01*
X20723860Y12331700D01*
X20726400Y12321540D01*
X20728940Y12313920D01*
X20734020Y12308840D01*
X20736560Y12306300D01*
X20739100Y12301220D01*
X20744180Y12298680D01*
X20746720Y12296140D01*
X20749260Y12296140D01*
X20754340Y12293600D01*
X20767040Y12285980D01*
X20787360Y12278360D01*
X20815300Y12268200D01*
X20848320Y12252960D01*
X20886420Y12237720D01*
X20929600Y12219940D01*
X20975320Y12199620D01*
X21026120Y12179300D01*
X21079460Y12158980D01*
X21135340Y12136120D01*
X21135340Y12136120D01*
X21201380Y12108180D01*
X21262340Y12082780D01*
X21313140Y12062460D01*
X21358860Y12042140D01*
X21399500Y12026900D01*
X21432520Y12014200D01*
X21460460Y12004040D01*
X21485860Y11993880D01*
X21506180Y11988800D01*
X21521420Y11983720D01*
X21536660Y11981180D01*
X21546820Y11978640D01*
X21554440Y11978640D01*
X21562060Y11981180D01*
X21569680Y11981180D01*
X21574760Y11986260D01*
X21582380Y11988800D01*
X21587460Y11993880D01*
X21595080Y11996420D01*
X21607780Y12006580D01*
X21628100Y12019280D01*
X21656040Y12037060D01*
X21686520Y12059920D01*
X21722080Y12085320D01*
X21765260Y12113260D01*
X21808440Y12143740D01*
X21859240Y12176760D01*
X21910040Y12212320D01*
X21963380Y12250420D01*
X22019260Y12288520D01*
X22059900Y12316460D01*
X22118320Y12354560D01*
X22171660Y12392660D01*
X22225000Y12428220D01*
X22275800Y12463780D01*
X22321520Y12494260D01*
X22364700Y12524740D01*
X22405340Y12550140D01*
X22438360Y12573000D01*
X22466300Y12590780D01*
X22489160Y12608560D01*
X22506940Y12618720D01*
X22517100Y12623800D01*
X22522180Y12626340D01*
X22534880Y12628880D01*
X22550120Y12628880D01*
X22552660Y12628880D01*
X22555200Y12626340D01*
X22560280Y12626340D01*
X22565360Y12621260D01*
X22570440Y12616180D01*
X22580600Y12608560D01*
X22590760Y12600940D01*
X22603460Y12588240D01*
X22618700Y12573000D01*
X22639020Y12555220D01*
X22661880Y12532360D01*
X22687280Y12506960D01*
X22717760Y12476480D01*
X22753320Y12440920D01*
X22793960Y12400280D01*
X22839680Y12357100D01*
X22890480Y12306300D01*
X22946360Y12247880D01*
X22969220Y12227560D01*
X23027640Y12169140D01*
X23078440Y12115800D01*
X23126700Y12067540D01*
X23167340Y12026900D01*
X23205440Y11991340D01*
X23235920Y11958320D01*
X23263860Y11930380D01*
X23286720Y11907520D01*
X23307040Y11887200D01*
X23322280Y11869420D01*
X23334980Y11856720D01*
X23345140Y11844020D01*
X23352760Y11836400D01*
X23360380Y11828780D01*
X23362920Y11821160D01*
X23365460Y11818620D01*
X23368000Y11813540D01*
X23370540Y11811000D01*
X23370540Y11808460D01*
X23370540Y11805920D01*
X23370540Y11788140D01*
X23365460Y11772900D01*
X23362920Y11767820D01*
X23355300Y11755120D01*
X23342600Y11737340D01*
X23324820Y11711940D01*
X23304500Y11681460D01*
X23281640Y11645900D01*
X23253700Y11605260D01*
X23223220Y11562080D01*
X23190200Y11513820D01*
X23157180Y11463020D01*
X23119080Y11409680D01*
X23080980Y11353800D01*
X23053040Y11313160D01*
X23012400Y11254740D01*
X22974300Y11201400D01*
X22938740Y11148060D01*
X22905720Y11097260D01*
X22872700Y11049000D01*
X22842220Y11005820D01*
X22816820Y10967720D01*
X22793960Y10932160D01*
X22773640Y10901680D01*
X22758400Y10878820D01*
X22745700Y10861040D01*
X22740620Y10850880D01*
X22738080Y10845800D01*
X22730460Y10822940D01*
X22730460Y10807700D01*
X22733000Y10802620D01*
X22738080Y10787380D01*
X22745700Y10767060D01*
X22758400Y10739120D01*
X22771100Y10706100D01*
X22786340Y10668000D01*
X22804120Y10627360D01*
X22821900Y10584180D01*
X22842220Y10535920D01*
X22862540Y10487660D01*
X22885400Y10436860D01*
X22905720Y10386060D01*
X22926040Y10335260D01*
X22948900Y10287000D01*
X22969220Y10238740D01*
X22989540Y10193020D01*
X23007320Y10149840D01*
X23025100Y10111740D01*
X23037800Y10078720D01*
X23053040Y10048240D01*
X23063200Y10025380D01*
X23070820Y10010140D01*
X23073360Y9999980D01*
X23075900Y9999980D01*
X23086060Y9987280D01*
X23101300Y9977120D01*
X23103840Y9974580D01*
X23111460Y9972040D01*
X23129240Y9969500D01*
X23152100Y9964420D01*
X23185120Y9956800D01*
X23225760Y9949180D01*
X23274020Y9939020D01*
X23329900Y9928860D01*
X23393400Y9916160D01*
X23461980Y9903460D01*
X23540720Y9888220D01*
X23622000Y9872980D01*
X23647400Y9867900D01*
X23715980Y9855200D01*
X23782020Y9845040D01*
X23845520Y9832340D01*
X23903940Y9822180D01*
X23959820Y9812020D01*
X24010620Y9801860D01*
X24056340Y9791700D01*
X24096980Y9784080D01*
X24130000Y9779000D01*
X24157940Y9773920D01*
X24175720Y9768840D01*
X24188420Y9766300D01*
X24190960Y9766300D01*
X24208740Y9756140D01*
X24223980Y9743440D01*
X24236680Y9725660D01*
X24236680Y9725660D01*
D13*
X29464000Y32385000D03*
D14*
X29464000Y11303000D03*
D15*
X19939000Y9017000D03*
D16*
X58674000Y39116000D03*
X56134000Y39116000D03*
D17*
X58801000Y18669000D03*
X58801000Y21209000D03*
X56261000Y18669000D03*
X56261000Y21209000D03*
X53721000Y18669000D03*
X53721000Y21209000D03*
D13*
X5080000Y56515000D03*
X5080000Y53975000D03*
X5080000Y48895000D03*
X5080000Y51435000D03*
D18*
X14351000Y42926000D03*
D19*
X8255000Y42926000D03*
D20*
X11049000Y38481000D03*
D21*
X89535000Y6350000D03*
D22*
X83185000Y53340000D03*
D16*
X83185000Y50800000D03*
X83185000Y48260000D03*
X83185000Y45720000D03*
X83185000Y43180000D03*
X83185000Y40640000D03*
D23*
X72898000Y50165000D03*
X79248000Y50165000D03*
D24*
X64897000Y10541000D03*
X64897000Y16637000D03*
D25*
X42164000Y33147000D03*
X42164000Y40767000D03*
D16*
X72390000Y10922000D03*
X69342000Y10922000D03*
D26*
X21971000Y47625000D03*
D27*
X42037000Y47625000D03*
D28*
X69596000Y15240000D03*
D29*
X72136000Y15240000D03*
X74676000Y15240000D03*
X77216000Y15240000D03*
X77216000Y22860000D03*
X74676000Y22860000D03*
X72136000Y22860000D03*
X69596000Y22860000D03*
D16*
X62992000Y42926000D03*
X57912000Y42926000D03*
D30*
X53340000Y11176000D03*
D31*
X53340000Y13716000D03*
D30*
X50800000Y11176000D03*
D32*
X88646000Y44577000D03*
D33*
X88646000Y42037000D03*
X88646000Y39497000D03*
X88646000Y36957000D03*
X88646000Y34417000D03*
X88646000Y31877000D03*
X88646000Y29337000D03*
X88646000Y26797000D03*
D16*
X43815000Y12065000D03*
X36195000Y12065000D03*
X82931000Y11684000D03*
X82931000Y19304000D03*
X80264000Y11684000D03*
X80264000Y19304000D03*
X72009000Y45974000D03*
X79629000Y45974000D03*
X16510000Y52705000D03*
X8890000Y52705000D03*
X36195000Y6985000D03*
X43815000Y6985000D03*
X78994000Y25654000D03*
X71374000Y25654000D03*
X43815000Y9525000D03*
X36195000Y9525000D03*
X43815000Y19685000D03*
X36195000Y19685000D03*
X36195000Y17145000D03*
X43815000Y17145000D03*
X36195000Y22225000D03*
X43815000Y22225000D03*
X88646000Y14859000D03*
X88646000Y22479000D03*
X16510000Y55880000D03*
X8890000Y55880000D03*
X36195000Y14605000D03*
X43815000Y14605000D03*
D34*
X71501000Y41021000D03*
D16*
X68961000Y41021000D03*
D34*
X64389000Y22860000D03*
D16*
X64389000Y20320000D03*
D34*
X48006000Y14732000D03*
D16*
X48006000Y17272000D03*
D34*
X59436000Y11176000D03*
D16*
X59436000Y13716000D03*
D30*
X68707000Y46228000D03*
X68707000Y51308000D03*
X83185000Y56515000D03*
X88265000Y56515000D03*
D13*
X83185000Y24003000D03*
X80645000Y24003000D03*
D29*
X78994000Y35814000D03*
X76454000Y35814000D03*
X73914000Y35814000D03*
X71374000Y35814000D03*
X68834000Y35814000D03*
X66294000Y35814000D03*
X63754000Y35814000D03*
X61214000Y35814000D03*
X58674000Y35814000D03*
X56134000Y35814000D03*
X53594000Y35814000D03*
X51054000Y35814000D03*
X48514000Y35814000D03*
D28*
X81534000Y35814000D03*
D29*
X48514000Y28194000D03*
X51054000Y28194000D03*
X53594000Y28194000D03*
X56134000Y28194000D03*
X58674000Y28194000D03*
X61214000Y28194000D03*
X63754000Y28194000D03*
X66294000Y28194000D03*
X68834000Y28194000D03*
X71374000Y28194000D03*
X73914000Y28194000D03*
X76454000Y28194000D03*
X78994000Y28194000D03*
X81534000Y28194000D03*
D16*
X36195000Y24765000D03*
X43815000Y24765000D03*
D25*
X38735000Y40767000D03*
X38735000Y33147000D03*
D21*
X89535000Y50165000D03*
X18415000Y37465000D03*
D16*
X61976000Y39116000D03*
X64516000Y39116000D03*
D35*
X78994000Y6604000D03*
X76454000Y6604000D03*
X73914000Y6604000D03*
X66294000Y6604000D03*
X68834000Y6604000D03*
X71374000Y6604000D03*
X61214000Y6604000D03*
X58674000Y6604000D03*
X56134000Y6604000D03*
X51054000Y6604000D03*
X48514000Y6604000D03*
X78994000Y54864000D03*
X76454000Y54864000D03*
X73914000Y54864000D03*
X71374000Y54864000D03*
X68834000Y54864000D03*
X66294000Y54864000D03*
X63754000Y54864000D03*
X61214000Y54864000D03*
X57150000Y54864000D03*
X54610000Y54864000D03*
X52070000Y54864000D03*
X49530000Y54864000D03*
X46990000Y54864000D03*
X44450000Y54864000D03*
X41910000Y54864000D03*
X39370000Y54864000D03*
X53594000Y6604000D03*
D36*
X85598000Y43434000D03*
X81788000Y5969000D03*
X29210000Y21463000D03*
X77597000Y19177000D03*
X49403000Y30988000D03*
X52959000Y22733000D03*
X49022000Y25654000D03*
X35560000Y29210000D03*
X38100000Y29210000D03*
X47371000Y24638000D03*
X74168000Y20066000D03*
X74549000Y41656000D03*
X83312000Y37973000D03*
X67056000Y23749000D03*
X35433000Y27432000D03*
X46990000Y20828000D03*
X81788000Y49530000D03*
X59817000Y30099000D03*
X62484000Y30226000D03*
X61341000Y20574000D03*
X69088000Y20828000D03*
X60579000Y33655000D03*
X72136000Y17907000D03*
D37*
X15303500Y51498500D02*
X16510000Y52705000D01*
X82931000Y14224000D02*
X83566000Y14859000D01*
X71755000Y46228000D02*
X72009000Y45974000D01*
X82931000Y11684000D02*
X82931000Y14224000D01*
X69723000Y39243000D02*
X71501000Y41021000D01*
X14351000Y50546000D02*
X15303500Y51498500D01*
X28956000Y42926000D02*
X38735000Y33147000D01*
X14351000Y46863000D02*
X14351000Y47117000D01*
X14351000Y42926000D02*
X14351000Y46355000D01*
X38735000Y33147000D02*
X38735000Y33020000D01*
X66294000Y35814000D02*
X69723000Y39243000D01*
X41275000Y27305000D02*
X43815000Y24765000D01*
X85598000Y36576000D02*
X85598000Y43434000D01*
X58801000Y22733000D02*
X61214000Y25146000D01*
X14351000Y42926000D02*
X28956000Y42926000D01*
X14351000Y47117000D02*
X14351000Y50546000D01*
X41275000Y30480000D02*
X41275000Y27305000D01*
X38735000Y33020000D02*
X41275000Y30480000D01*
X87757000Y34417000D02*
X85598000Y36576000D01*
X71501000Y41021000D02*
X71501000Y45466000D01*
X68707000Y46228000D02*
X71755000Y46228000D01*
X83566000Y14859000D02*
X88646000Y14859000D01*
X88646000Y26797000D02*
X88646000Y29337000D01*
X14351000Y42926000D02*
X14351000Y50546000D01*
X14351000Y50546000D02*
X16510000Y52705000D01*
X88646000Y34417000D02*
X87757000Y34417000D01*
X71501000Y45466000D02*
X72009000Y45974000D01*
X61214000Y25146000D02*
X61214000Y28194000D01*
X80264000Y11684000D02*
X82931000Y11684000D01*
X14351000Y46355000D02*
X14351000Y46990000D01*
X58801000Y21209000D02*
X58801000Y22733000D01*
X79121000Y4572000D02*
X73406000Y4572000D01*
X81788000Y5969000D02*
X80391000Y4572000D01*
X73406000Y4572000D02*
X71374000Y6604000D01*
X80391000Y4572000D02*
X79121000Y4572000D01*
X52578000Y38608000D02*
X52578000Y45212000D01*
X51054000Y37084000D02*
X52578000Y38608000D01*
X58801000Y47879000D02*
X61214000Y50292000D01*
X61214000Y50292000D02*
X61214000Y54864000D01*
X55245000Y47879000D02*
X58801000Y47879000D01*
X52578000Y45212000D02*
X55245000Y47879000D01*
X51054000Y35814000D02*
X51054000Y37084000D01*
X51562000Y38989000D02*
X51562000Y45593000D01*
X57150000Y51181000D02*
X57150000Y54864000D01*
X51562000Y45593000D02*
X57150000Y51181000D01*
X48514000Y35941000D02*
X51562000Y38989000D01*
X48514000Y35814000D02*
X48514000Y35941000D01*
X47117000Y34163000D02*
X47117000Y36830000D01*
X48514000Y28194000D02*
X48514000Y32766000D01*
X47117000Y36830000D02*
X50673000Y40386000D01*
X50673000Y45974000D02*
X54610000Y49911000D01*
X50673000Y40386000D02*
X50673000Y45974000D01*
X48514000Y32766000D02*
X47117000Y34163000D01*
X54610000Y49911000D02*
X54610000Y54864000D01*
X46101000Y10414000D02*
X46101000Y6477000D01*
X46101000Y6477000D02*
X44577000Y4953000D01*
X50800000Y11176000D02*
X49784000Y11176000D01*
X26924000Y10160000D02*
X26924000Y19177000D01*
X48006000Y12319000D02*
X46101000Y10414000D01*
X49784000Y11176000D02*
X48006000Y12954000D01*
X48006000Y14732000D02*
X48006000Y12319000D01*
X26924000Y19177000D02*
X29210000Y21463000D01*
X51054000Y10922000D02*
X50800000Y11176000D01*
X32131000Y4953000D02*
X26924000Y10160000D01*
X51054000Y6604000D02*
X51054000Y10922000D01*
X48006000Y12954000D02*
X48006000Y14732000D01*
X44577000Y4953000D02*
X32131000Y4953000D01*
X78486000Y8763000D02*
X78486000Y18288000D01*
X77216000Y22860000D02*
X77216000Y25908000D01*
X76454000Y6731000D02*
X78486000Y8763000D01*
X78486000Y18288000D02*
X77597000Y19177000D01*
X76454000Y6604000D02*
X76454000Y6731000D01*
X77216000Y26416000D02*
X78994000Y28194000D01*
X77216000Y26416000D02*
X78994000Y28194000D01*
X77216000Y22860000D02*
X77216000Y26416000D01*
D38*
X74676000Y22860000D02*
X74676000Y26035000D01*
X79502000Y30226000D02*
X81534000Y28194000D01*
X75819000Y30226000D02*
X79502000Y30226000D01*
X75184000Y29591000D02*
X75819000Y30226000D01*
X75184000Y26543000D02*
X75184000Y29591000D01*
X74676000Y26035000D02*
X75184000Y26543000D01*
D37*
X53594000Y35814000D02*
X53594000Y44831000D01*
X61341000Y46990000D02*
X63754000Y49403000D01*
X55753000Y46990000D02*
X61341000Y46990000D01*
X63754000Y49403000D02*
X63754000Y54864000D01*
X53594000Y44831000D02*
X55753000Y46990000D01*
X53594000Y35179000D02*
X49403000Y30988000D01*
X53594000Y35814000D02*
X53594000Y35179000D01*
X49784000Y40640000D02*
X49784000Y46355000D01*
X50292000Y22860000D02*
X52832000Y22860000D01*
X46228000Y27813000D02*
X46228000Y36830000D01*
X43815000Y9525000D02*
X43815000Y9779000D01*
X50800000Y28194000D02*
X49149000Y26543000D01*
X46228000Y37084000D02*
X49784000Y40640000D01*
X46355000Y18923000D02*
X50292000Y22860000D01*
X52070000Y48641000D02*
X52070000Y54864000D01*
X49784000Y46355000D02*
X52070000Y48641000D01*
X51054000Y28194000D02*
X50800000Y28194000D01*
X52832000Y22860000D02*
X52959000Y22733000D01*
X47498000Y26543000D02*
X46228000Y27813000D01*
X43815000Y9779000D02*
X46355000Y12319000D01*
X46355000Y12319000D02*
X46355000Y18923000D01*
X49149000Y26543000D02*
X47498000Y26543000D01*
X46228000Y36830000D02*
X46228000Y37084000D01*
X49149000Y25527000D02*
X49657000Y25527000D01*
X47426880Y25527000D02*
X45460920Y27492960D01*
X53594000Y27432000D02*
X51689000Y25527000D01*
X49530000Y47625000D02*
X49530000Y54864000D01*
X45460920Y36830000D02*
X45460920Y37586920D01*
X53594000Y28194000D02*
X53594000Y27432000D01*
X48895000Y46990000D02*
X49530000Y47625000D01*
X45460920Y27492960D02*
X45460920Y36830000D01*
X45460920Y37586920D02*
X48895000Y41021000D01*
X51689000Y25527000D02*
X49657000Y25527000D01*
X48895000Y41021000D02*
X48895000Y46990000D01*
X49022000Y25654000D02*
X49149000Y25527000D01*
X49657000Y25527000D02*
X47426880Y25527000D01*
X47117000Y24638000D02*
X44693840Y27061160D01*
X47371000Y24638000D02*
X48260000Y24638000D01*
X48006000Y53848000D02*
X46990000Y54864000D01*
X38100000Y29210000D02*
X35560000Y29210000D01*
X48006000Y41402000D02*
X48006000Y53848000D01*
X53086000Y24638000D02*
X48260000Y24638000D01*
X48260000Y24638000D02*
X47117000Y24638000D01*
X44693840Y38089840D02*
X48006000Y41402000D01*
X56134000Y28194000D02*
X56134000Y27686000D01*
X56134000Y27686000D02*
X53086000Y24638000D01*
X44693840Y27061160D02*
X44693840Y36830000D01*
X44693840Y36830000D02*
X44693840Y38089840D01*
X54991000Y19558000D02*
X54991000Y23622000D01*
X46863000Y23749000D02*
X43926760Y26685240D01*
X47117000Y41783000D02*
X47117000Y52197000D01*
X46863000Y22098000D02*
X46863000Y23749000D01*
X43815000Y19685000D02*
X44450000Y19685000D01*
X56261000Y18669000D02*
X55880000Y18669000D01*
X43926760Y26685240D02*
X43926760Y36703000D01*
X55880000Y18669000D02*
X54991000Y19558000D01*
X43926760Y38592760D02*
X47117000Y41783000D01*
X54991000Y23622000D02*
X54864000Y23749000D01*
X58674000Y28194000D02*
X58674000Y27559000D01*
X47117000Y52197000D02*
X44450000Y54864000D01*
X44450000Y19685000D02*
X46863000Y22098000D01*
X43926760Y36703000D02*
X43926760Y38592760D01*
X58674000Y27559000D02*
X54864000Y23749000D01*
X54864000Y23749000D02*
X53975000Y23749000D01*
X53975000Y23749000D02*
X46863000Y23749000D01*
D38*
X74168000Y20066000D02*
X74168000Y21209000D01*
X74168000Y21209000D02*
X74168000Y21336000D01*
X74168000Y21336000D02*
X74168000Y21209000D01*
D37*
X75946000Y40513000D02*
X75946000Y52832000D01*
X73914000Y35814000D02*
X75692000Y37592000D01*
X81280000Y33909000D02*
X83185000Y32004000D01*
X82931000Y23749000D02*
X83185000Y24003000D01*
X75946000Y52832000D02*
X73914000Y54864000D01*
X73914000Y35687000D02*
X75692000Y33909000D01*
X75692000Y37592000D02*
X75692000Y40259000D01*
X83185000Y32004000D02*
X83185000Y24003000D01*
X72263000Y22860000D02*
X73914000Y21209000D01*
X75692000Y40259000D02*
X75946000Y40513000D01*
X73914000Y35814000D02*
X73914000Y35687000D01*
X72136000Y22860000D02*
X72263000Y22860000D01*
X81026000Y21209000D02*
X82931000Y19304000D01*
X82931000Y19304000D02*
X82931000Y23749000D01*
X75692000Y33909000D02*
X81280000Y33909000D01*
X82931000Y23749000D02*
X83185000Y24003000D01*
X73914000Y21209000D02*
X74168000Y21209000D01*
X74168000Y21209000D02*
X81026000Y21209000D01*
X73787000Y38227000D02*
X74549000Y38989000D01*
X74549000Y38989000D02*
X74549000Y41656000D01*
X71374000Y35814000D02*
X73787000Y38227000D01*
X75184000Y51308000D02*
X71628000Y54864000D01*
X74549000Y43942000D02*
X75184000Y44577000D01*
X71628000Y54864000D02*
X71374000Y54864000D01*
X75184000Y44577000D02*
X75184000Y51308000D01*
X74549000Y41656000D02*
X74549000Y43942000D01*
X86487000Y31877000D02*
X86360000Y31877000D01*
X73660000Y51816000D02*
X74295000Y51181000D01*
X83312000Y34925000D02*
X83312000Y37973000D01*
X72136000Y38862000D02*
X73533000Y40259000D01*
X86360000Y31877000D02*
X83312000Y34925000D01*
X68834000Y54864000D02*
X68834000Y54737000D01*
X74485500Y49466500D02*
X74485500Y50990500D01*
X88646000Y31877000D02*
X86360000Y31877000D01*
X71374000Y38862000D02*
X71755000Y38862000D01*
X74485500Y50990500D02*
X74295000Y51181000D01*
X71755000Y51816000D02*
X73660000Y51816000D01*
X73533000Y40259000D02*
X73533000Y48514000D01*
X86487000Y29464000D02*
X86487000Y31877000D01*
X86487000Y24384000D02*
X86487000Y29464000D01*
X72009000Y38862000D02*
X72136000Y38862000D01*
X68834000Y36322000D02*
X71374000Y38862000D01*
X88392000Y22479000D02*
X86487000Y24384000D01*
X88646000Y22479000D02*
X88392000Y22479000D01*
X68834000Y35814000D02*
X68834000Y36322000D01*
X71755000Y38862000D02*
X72009000Y38862000D01*
X73533000Y48514000D02*
X74485500Y49466500D01*
X68834000Y54737000D02*
X71755000Y51816000D01*
X56134000Y46101000D02*
X62992000Y46101000D01*
X22225000Y57150000D02*
X64008000Y57150000D01*
X20955000Y55880000D02*
X22225000Y57150000D01*
X62992000Y46101000D02*
X66294000Y49403000D01*
X54356000Y37719000D02*
X54356000Y44323000D01*
X16510000Y55880000D02*
X20955000Y55880000D01*
X56134000Y35814000D02*
X56134000Y35941000D01*
X64008000Y57150000D02*
X66294000Y54864000D01*
X56134000Y35941000D02*
X54356000Y37719000D01*
X66294000Y49403000D02*
X66294000Y54864000D01*
X54356000Y44323000D02*
X56134000Y46101000D01*
X69088000Y25654000D02*
X68834000Y25654000D01*
X52324000Y21209000D02*
X52451000Y21209000D01*
X50292000Y21209000D02*
X52324000Y21209000D01*
X48260000Y17018000D02*
X48006000Y17272000D01*
X86741000Y38227000D02*
X86741000Y44577000D01*
X35433000Y27432000D02*
X39116000Y27432000D01*
X64135000Y44958000D02*
X56642000Y44958000D01*
X65405000Y44958000D02*
X66421000Y44958000D01*
X66294000Y28194000D02*
X66294000Y30861000D01*
X56134000Y6604000D02*
X58674000Y6604000D01*
X5080000Y53975000D02*
X5080000Y51435000D01*
X43180000Y17145000D02*
X41910000Y18415000D01*
X56134000Y13589000D02*
X56007000Y13716000D01*
X41910000Y21717000D02*
X41910000Y22860000D01*
X71374000Y25654000D02*
X69088000Y25654000D01*
X66421000Y44958000D02*
X66421000Y46355000D01*
X41910000Y20320000D02*
X41910000Y21717000D01*
X48006000Y17272000D02*
X48006000Y18923000D01*
X68961000Y25654000D02*
X67056000Y23749000D01*
X63754000Y35814000D02*
X63754000Y38354000D01*
X68834000Y25654000D02*
X66294000Y28194000D01*
X41910000Y18415000D02*
X41910000Y20320000D01*
X66421000Y46355000D02*
X66611500Y46545500D01*
X83185000Y43307000D02*
X84455000Y44577000D01*
X84455000Y44577000D02*
X88646000Y44577000D01*
X64897000Y16637000D02*
X64897000Y19812000D01*
X83185000Y43180000D02*
X83185000Y43307000D01*
X43815000Y17145000D02*
X43180000Y17145000D01*
X41910000Y22860000D02*
X41783000Y22987000D01*
X53340000Y13716000D02*
X50038000Y17018000D01*
X41783000Y22987000D02*
X42545000Y22225000D01*
X42545000Y22225000D02*
X43815000Y22225000D01*
X41021000Y25527000D02*
X41021000Y23749000D01*
X39116000Y27432000D02*
X41021000Y25527000D01*
X64516000Y39116000D02*
X66421000Y41021000D01*
X41021000Y23749000D02*
X41783000Y22987000D01*
X56007000Y13716000D02*
X59436000Y13716000D01*
X61722000Y16637000D02*
X64897000Y16637000D01*
X59436000Y13716000D02*
X59436000Y14351000D01*
X69596000Y51308000D02*
X70739000Y50165000D01*
X68707000Y48641000D02*
X68707000Y51308000D01*
X66421000Y41021000D02*
X66421000Y44958000D01*
X45466000Y18796000D02*
X43815000Y17145000D01*
X49911000Y17018000D02*
X48260000Y17018000D01*
X50038000Y17018000D02*
X49911000Y17018000D01*
X46990000Y20828000D02*
X45466000Y19304000D01*
X56134000Y44450000D02*
X56134000Y39116000D01*
X56134000Y6604000D02*
X56134000Y13589000D01*
X70739000Y50165000D02*
X72898000Y50165000D01*
X41910000Y8255000D02*
X41910000Y12700000D01*
X21971000Y47625000D02*
X21971000Y49276000D01*
X53340000Y13716000D02*
X56007000Y13716000D01*
X66294000Y30861000D02*
X63754000Y33401000D01*
X88646000Y36957000D02*
X88011000Y36957000D01*
X86741000Y44577000D02*
X88646000Y44577000D01*
X21971000Y49276000D02*
X24765000Y52070000D01*
X43815000Y6985000D02*
X43180000Y6985000D01*
X5080000Y53340000D02*
X5080000Y51435000D01*
X88011000Y36957000D02*
X86741000Y38227000D01*
X43815000Y17145000D02*
X43815000Y14605000D01*
X68707000Y51308000D02*
X69596000Y51308000D01*
X63754000Y33401000D02*
X63754000Y35814000D01*
X69088000Y25654000D02*
X68961000Y25654000D01*
X41275000Y52070000D02*
X41910000Y52705000D01*
X63754000Y38354000D02*
X64516000Y39116000D01*
X41910000Y52705000D02*
X41910000Y54864000D01*
X43815000Y22225000D02*
X42418000Y22225000D01*
X42418000Y22225000D02*
X41910000Y21717000D01*
X45466000Y19304000D02*
X45466000Y18796000D01*
X24765000Y52070000D02*
X41275000Y52070000D01*
X43180000Y6985000D02*
X41910000Y8255000D01*
X56642000Y44958000D02*
X56134000Y44450000D01*
X48006000Y18923000D02*
X50292000Y21209000D01*
X68961000Y41021000D02*
X66421000Y41021000D01*
X66611500Y46545500D02*
X68707000Y48641000D01*
X64897000Y19812000D02*
X64389000Y20320000D01*
X41910000Y12700000D02*
X43815000Y14605000D01*
X52324000Y21209000D02*
X53721000Y21209000D01*
X59436000Y14351000D02*
X61722000Y16637000D01*
X64135000Y44958000D02*
X65405000Y44958000D01*
X62484000Y30226000D02*
X62357000Y30099000D01*
X79629000Y45974000D02*
X79629000Y49784000D01*
X81534000Y36195000D02*
X79629000Y38100000D01*
X81534000Y35814000D02*
X81534000Y36195000D01*
X62357000Y30099000D02*
X59817000Y30099000D01*
X79629000Y49784000D02*
X79248000Y50165000D01*
X81534000Y54864000D02*
X83185000Y56515000D01*
X79629000Y38100000D02*
X79629000Y45974000D01*
X81788000Y49530000D02*
X81534000Y49784000D01*
X81534000Y49784000D02*
X81534000Y54864000D01*
X78994000Y54864000D02*
X78994000Y53086000D01*
X77470000Y38100000D02*
X77470000Y53340000D01*
X78994000Y35814000D02*
X78994000Y36576000D01*
X80772000Y51308000D02*
X79756000Y52324000D01*
X78994000Y53086000D02*
X79756000Y52324000D01*
X77470000Y53340000D02*
X78994000Y54864000D01*
X83185000Y48260000D02*
X81661000Y48260000D01*
X80772000Y49149000D02*
X80772000Y51308000D01*
X81661000Y48260000D02*
X80772000Y49149000D01*
X78994000Y36576000D02*
X77470000Y38100000D01*
X76454000Y39878000D02*
X76708000Y40132000D01*
X76708000Y40132000D02*
X76708000Y54610000D01*
X76708000Y54610000D02*
X76454000Y54864000D01*
X76454000Y35814000D02*
X76454000Y39878000D01*
X42164000Y47498000D02*
X42037000Y47625000D01*
X42164000Y40767000D02*
X42164000Y47498000D01*
X38735000Y39751000D02*
X42164000Y36322000D01*
X63627000Y22860000D02*
X61341000Y20574000D01*
X64389000Y22860000D02*
X69596000Y22860000D01*
X64389000Y22860000D02*
X63627000Y22860000D01*
X42164000Y36322000D02*
X42164000Y33147000D01*
X38735000Y40767000D02*
X38735000Y39751000D01*
X61214000Y35814000D02*
X61214000Y38354000D01*
X61976000Y39116000D02*
X61976000Y41910000D01*
X61214000Y38354000D02*
X61976000Y39116000D01*
X61976000Y41910000D02*
X62992000Y42926000D01*
X58674000Y39116000D02*
X58674000Y42164000D01*
X58674000Y35814000D02*
X58674000Y39116000D01*
X58674000Y42164000D02*
X57912000Y42926000D01*
D38*
X69596000Y20320000D02*
X69596000Y15240000D01*
X69088000Y20828000D02*
X69596000Y20320000D01*
D37*
X68961000Y10541000D02*
X69342000Y10922000D01*
X69342000Y14986000D02*
X69596000Y15240000D01*
X69342000Y10922000D02*
X69342000Y14986000D01*
X64897000Y10541000D02*
X68961000Y10541000D01*
X83185000Y53975000D02*
X85725000Y56515000D01*
X85725000Y56515000D02*
X88265000Y56515000D01*
X83185000Y53340000D02*
X83185000Y53975000D01*
X6985000Y48895000D02*
X8890000Y50800000D01*
X8890000Y50800000D02*
X8890000Y52705000D01*
X5080000Y48895000D02*
X6985000Y48895000D01*
X78994000Y25654000D02*
X80645000Y24003000D01*
X8255000Y56515000D02*
X8890000Y55880000D01*
X5080000Y56515000D02*
X8255000Y56515000D01*
X63754000Y28194000D02*
X63754000Y31623000D01*
X63754000Y31623000D02*
X61722000Y33655000D01*
X61722000Y33655000D02*
X60579000Y33655000D01*
D38*
X74295000Y17907000D02*
X74676000Y17907000D01*
X72136000Y17907000D02*
X74295000Y17907000D01*
X74676000Y17907000D02*
X74549000Y17907000D01*
X74549000Y17907000D02*
X74676000Y17907000D01*
D37*
X79121000Y20447000D02*
X80264000Y19304000D01*
X74676000Y18161000D02*
X76962000Y20447000D01*
X76962000Y20447000D02*
X79121000Y20447000D01*
X74676000Y15240000D02*
X74676000Y17907000D01*
X74676000Y17907000D02*
X74676000Y18161000D01*
X72390000Y10922000D02*
X72390000Y14986000D01*
X72390000Y14986000D02*
X72136000Y15240000D01*
D38*
G36*
X93154500Y51817837D02*
X92907968Y52414490D01*
X91790374Y53534037D01*
X90329419Y54140679D01*
X88747521Y54142059D01*
X87285510Y53537968D01*
X86165963Y52420374D01*
X85559321Y50959419D01*
X85557941Y49377521D01*
X86162032Y47915510D01*
X87279626Y46795963D01*
X88341582Y46355000D01*
X87376690Y46355000D01*
X87143301Y46258327D01*
X86964673Y46079698D01*
X86868000Y45846309D01*
X86868000Y44862750D01*
X87026750Y44704000D01*
X88519000Y44704000D01*
X88519000Y44724000D01*
X88773000Y44724000D01*
X88773000Y44704000D01*
X90265250Y44704000D01*
X90424000Y44862750D01*
X90424000Y45846309D01*
X90327327Y46079698D01*
X90218994Y46188031D01*
X90322479Y46187941D01*
X91784490Y46792032D01*
X92904037Y47909626D01*
X93154500Y48512807D01*
X93154500Y8002837D01*
X92907968Y8599490D01*
X91790374Y9719037D01*
X90329419Y10325679D01*
X88747521Y10327059D01*
X87285510Y9722968D01*
X86165963Y8605374D01*
X85559321Y7144419D01*
X85557941Y5562521D01*
X86162032Y4100510D01*
X87279626Y2980963D01*
X87882807Y2730500D01*
X2095500Y2730500D01*
X2095500Y30723114D01*
X7010400Y30723114D01*
X7010400Y9916886D01*
X9550400Y9916886D01*
X9550400Y6088745D01*
X14274800Y6088745D01*
X14274800Y7991592D01*
X14760313Y7991592D01*
X15546924Y6087849D01*
X17002188Y4630043D01*
X18904555Y3840111D01*
X20964408Y3838313D01*
X22868151Y4624924D01*
X24325957Y6080188D01*
X25115889Y7982555D01*
X25117687Y10042408D01*
X24331076Y11946151D01*
X22875812Y13403957D01*
X20973445Y14193889D01*
X18913592Y14195687D01*
X17009849Y13409076D01*
X15552043Y11953812D01*
X14762111Y10051445D01*
X14760313Y7991592D01*
X14274800Y7991592D01*
X14274800Y14216742D01*
X18084800Y14216742D01*
X18084800Y27693258D01*
X14274800Y27693258D01*
X14274800Y28996216D01*
X34480313Y28996216D01*
X34644311Y28599311D01*
X34947714Y28295378D01*
X35344332Y28130687D01*
X35773784Y28130313D01*
X36170689Y28294311D01*
X36197425Y28321000D01*
X37462137Y28321000D01*
X37487714Y28295378D01*
X37884332Y28130687D01*
X38313784Y28130313D01*
X38710689Y28294311D01*
X39014622Y28597714D01*
X39179313Y28994332D01*
X39179687Y29423784D01*
X39015689Y29820689D01*
X38712286Y30124622D01*
X38315668Y30289313D01*
X37886216Y30289687D01*
X37489311Y30125689D01*
X37462575Y30099000D01*
X36197863Y30099000D01*
X36172286Y30124622D01*
X35775668Y30289313D01*
X35346216Y30289687D01*
X34949311Y30125689D01*
X34645378Y29822286D01*
X34480687Y29425668D01*
X34480313Y28996216D01*
X14274800Y28996216D01*
X14274800Y32093248D01*
X27990545Y32093248D01*
X28214353Y31551589D01*
X28628409Y31136810D01*
X29169677Y30912056D01*
X29755752Y30911545D01*
X30297411Y31135353D01*
X30712190Y31549409D01*
X30936944Y32090677D01*
X30937455Y32676752D01*
X30713647Y33218411D01*
X30299591Y33633190D01*
X29758323Y33857944D01*
X29172248Y33858455D01*
X28630589Y33634647D01*
X28215810Y33220591D01*
X27991056Y32679323D01*
X27990545Y32093248D01*
X14274800Y32093248D01*
X14274800Y35821256D01*
X9550400Y35821256D01*
X9550400Y30723114D01*
X7010400Y30723114D01*
X2095500Y30723114D01*
X2095500Y36677521D01*
X14437941Y36677521D01*
X15042032Y35215510D01*
X16159626Y34095963D01*
X17620581Y33489321D01*
X19202479Y33487941D01*
X20664490Y34092032D01*
X21784037Y35209626D01*
X22390679Y36670581D01*
X22392059Y38252479D01*
X21787968Y39714490D01*
X20670374Y40834037D01*
X19209419Y41440679D01*
X17627521Y41442059D01*
X16165510Y40837968D01*
X15045963Y39720374D01*
X14439321Y38259419D01*
X14437941Y36677521D01*
X2095500Y36677521D01*
X2095500Y38481000D01*
X8667714Y38481000D01*
X8792132Y37855508D01*
X9146445Y37325241D01*
X9676712Y36970928D01*
X10302204Y36846510D01*
X11795796Y36846510D01*
X12421288Y36970928D01*
X12951555Y37325241D01*
X13305868Y37855508D01*
X13430286Y38481000D01*
X13305868Y39106492D01*
X12951555Y39636759D01*
X12421288Y39991072D01*
X11795796Y40115490D01*
X10302204Y40115490D01*
X9676712Y39991072D01*
X9146445Y39636759D01*
X8792132Y39106492D01*
X8667714Y38481000D01*
X2095500Y38481000D01*
X2095500Y42799000D01*
X6620510Y42799000D01*
X6620510Y42097960D01*
X6793529Y41482135D01*
X7189044Y40979398D01*
X7746841Y40666287D01*
X7874646Y40635341D01*
X8128000Y40754695D01*
X8128000Y42799000D01*
X8382000Y42799000D01*
X8382000Y40754695D01*
X8635354Y40635341D01*
X8763159Y40666287D01*
X9320956Y40979398D01*
X9716471Y41482135D01*
X9889490Y42097960D01*
X9889490Y42799000D01*
X8382000Y42799000D01*
X8128000Y42799000D01*
X6620510Y42799000D01*
X2095500Y42799000D01*
X2095500Y43754040D01*
X6620510Y43754040D01*
X6620510Y43053000D01*
X8128000Y43053000D01*
X8128000Y45097305D01*
X8382000Y45097305D01*
X8382000Y43053000D01*
X9889490Y43053000D01*
X9889490Y43754040D01*
X9716471Y44369865D01*
X9707653Y44381074D01*
X12915900Y44381074D01*
X12915900Y41470926D01*
X13025140Y40921737D01*
X13336231Y40456157D01*
X13801811Y40145066D01*
X14351000Y40035826D01*
X14900189Y40145066D01*
X15365769Y40456157D01*
X15676860Y40921737D01*
X15786100Y41470926D01*
X15786100Y42037000D01*
X28587764Y42037000D01*
X36908624Y33716140D01*
X36830332Y33527590D01*
X36829670Y32769735D01*
X37119078Y32069314D01*
X37654495Y31532961D01*
X38354410Y31242332D01*
X39112265Y31241670D01*
X39214041Y31283723D01*
X40386000Y30111764D01*
X40386000Y27305000D01*
X40453671Y26964794D01*
X40561523Y26803382D01*
X40646382Y26676382D01*
X42182957Y25139807D01*
X42164287Y25094845D01*
X42163714Y24438037D01*
X42414534Y23831005D01*
X42837366Y23407435D01*
X42830498Y23389107D01*
X43815000Y22404605D01*
X44799502Y23389107D01*
X44792453Y23407917D01*
X45213834Y23828563D01*
X45305484Y24049280D01*
X45974000Y23380764D01*
X45974000Y22466236D01*
X45476382Y21968618D01*
X45453014Y22613019D01*
X45247622Y23108880D01*
X44979107Y23209502D01*
X43994605Y22225000D01*
X44008748Y22210857D01*
X43829143Y22031252D01*
X43815000Y22045395D01*
X42830498Y21060893D01*
X42837547Y21042083D01*
X42416166Y20621437D01*
X42164287Y20014845D01*
X42163714Y19358037D01*
X42414534Y18751005D01*
X42837366Y18327435D01*
X42830498Y18309107D01*
X43815000Y17324605D01*
X44799502Y18309107D01*
X44792453Y18327917D01*
X45213834Y18748563D01*
X45465713Y19355155D01*
X45465790Y19443554D01*
X47491618Y21469382D01*
X47684329Y21757794D01*
X47752000Y22098000D01*
X47752000Y22860000D01*
X49034764Y22860000D01*
X45726382Y19551618D01*
X45533671Y19263206D01*
X45466000Y18923000D01*
X45466000Y17174910D01*
X45453014Y17533019D01*
X45247622Y18028880D01*
X44979107Y18129502D01*
X43994605Y17145000D01*
X44979107Y16160498D01*
X45247622Y16261120D01*
X45466000Y16847595D01*
X45466000Y14634910D01*
X45453014Y14993019D01*
X45247622Y15488880D01*
X44979107Y15589502D01*
X43994605Y14605000D01*
X44979107Y13620498D01*
X45247622Y13721120D01*
X45466000Y14307595D01*
X45466000Y12687236D01*
X45379870Y12601106D01*
X45215466Y12998995D01*
X44792634Y13422565D01*
X44799502Y13440893D01*
X43815000Y14425395D01*
X42830498Y13440893D01*
X42837547Y13422083D01*
X42416166Y13001437D01*
X42164287Y12394845D01*
X42163714Y11738037D01*
X42414534Y11131005D01*
X42750132Y10794821D01*
X42416166Y10461437D01*
X42164287Y9854845D01*
X42163714Y9198037D01*
X42414534Y8591005D01*
X42837366Y8167435D01*
X42830498Y8149107D01*
X43815000Y7164605D01*
X44799502Y8149107D01*
X44792453Y8167917D01*
X45212000Y8586732D01*
X45212000Y7882229D01*
X44979107Y7969502D01*
X43994605Y6985000D01*
X44008748Y6970857D01*
X43829143Y6791252D01*
X43815000Y6805395D01*
X43800858Y6791252D01*
X43621253Y6970857D01*
X43635395Y6985000D01*
X42650893Y7969502D01*
X42382378Y7868880D01*
X42153184Y7253358D01*
X42176986Y6596981D01*
X42382378Y6101120D01*
X42650891Y6000499D01*
X42536651Y5886259D01*
X42580910Y5842000D01*
X37386910Y5842000D01*
X37593834Y6048563D01*
X37845713Y6655155D01*
X37846286Y7311963D01*
X37595466Y7918995D01*
X37259868Y8255179D01*
X37593834Y8588563D01*
X37845713Y9195155D01*
X37846286Y9851963D01*
X37595466Y10458995D01*
X37259868Y10795179D01*
X37593834Y11128563D01*
X37845713Y11735155D01*
X37846286Y12391963D01*
X37595466Y12998995D01*
X37259868Y13335179D01*
X37593834Y13668563D01*
X37845713Y14275155D01*
X37846234Y14873358D01*
X42153184Y14873358D01*
X42176986Y14216981D01*
X42382378Y13721120D01*
X42650893Y13620498D01*
X43635395Y14605000D01*
X42650893Y15589502D01*
X42382378Y15488880D01*
X42153184Y14873358D01*
X37846234Y14873358D01*
X37846286Y14931963D01*
X37595466Y15538995D01*
X37259868Y15875179D01*
X37365766Y15980893D01*
X42830498Y15980893D01*
X42870180Y15875000D01*
X42830498Y15769107D01*
X43815000Y14784605D01*
X44799502Y15769107D01*
X44759820Y15875000D01*
X44799502Y15980893D01*
X43815000Y16965395D01*
X42830498Y15980893D01*
X37365766Y15980893D01*
X37593834Y16208563D01*
X37845713Y16815155D01*
X37846234Y17413358D01*
X42153184Y17413358D01*
X42176986Y16756981D01*
X42382378Y16261120D01*
X42650893Y16160498D01*
X43635395Y17145000D01*
X42650893Y18129502D01*
X42382378Y18028880D01*
X42153184Y17413358D01*
X37846234Y17413358D01*
X37846286Y17471963D01*
X37595466Y18078995D01*
X37259868Y18415179D01*
X37593834Y18748563D01*
X37845713Y19355155D01*
X37846286Y20011963D01*
X37595466Y20618995D01*
X37259868Y20955179D01*
X37593834Y21288563D01*
X37845713Y21895155D01*
X37846234Y22493358D01*
X42153184Y22493358D01*
X42176986Y21836981D01*
X42382378Y21341120D01*
X42650893Y21240498D01*
X43635395Y22225000D01*
X42650893Y23209502D01*
X42382378Y23108880D01*
X42153184Y22493358D01*
X37846234Y22493358D01*
X37846286Y22551963D01*
X37595466Y23158995D01*
X37259868Y23495179D01*
X37593834Y23828563D01*
X37845713Y24435155D01*
X37846286Y25091963D01*
X37595466Y25698995D01*
X37131437Y26163834D01*
X36524845Y26415713D01*
X35868037Y26416286D01*
X35261005Y26165466D01*
X34796166Y25701437D01*
X34544287Y25094845D01*
X34543714Y24438037D01*
X34794534Y23831005D01*
X35130132Y23494821D01*
X34796166Y23161437D01*
X34544287Y22554845D01*
X34543714Y21898037D01*
X34794534Y21291005D01*
X35130132Y20954821D01*
X34796166Y20621437D01*
X34544287Y20014845D01*
X34543714Y19358037D01*
X34794534Y18751005D01*
X35130132Y18414821D01*
X34796166Y18081437D01*
X34544287Y17474845D01*
X34543714Y16818037D01*
X34794534Y16211005D01*
X35130132Y15874821D01*
X34796166Y15541437D01*
X34544287Y14934845D01*
X34543714Y14278037D01*
X34794534Y13671005D01*
X35130132Y13334821D01*
X34796166Y13001437D01*
X34544287Y12394845D01*
X34543714Y11738037D01*
X34794534Y11131005D01*
X35130132Y10794821D01*
X34796166Y10461437D01*
X34544287Y9854845D01*
X34543714Y9198037D01*
X34794534Y8591005D01*
X35130132Y8254821D01*
X34796166Y7921437D01*
X34544287Y7314845D01*
X34543714Y6658037D01*
X34794534Y6051005D01*
X35003175Y5842000D01*
X32499236Y5842000D01*
X27813000Y10528236D01*
X27813000Y10998924D01*
X27928304Y10998924D01*
X28161567Y10434385D01*
X28593113Y10002085D01*
X29157244Y9767837D01*
X29768076Y9767304D01*
X30332615Y10000567D01*
X30764915Y10432113D01*
X30999163Y10996244D01*
X30999696Y11607076D01*
X30766433Y12171615D01*
X30334887Y12603915D01*
X29770756Y12838163D01*
X29159924Y12838696D01*
X28595385Y12605433D01*
X28163085Y12173887D01*
X27928837Y11609756D01*
X27928304Y10998924D01*
X27813000Y10998924D01*
X27813000Y18808764D01*
X29387581Y20383345D01*
X29423784Y20383313D01*
X29820689Y20547311D01*
X30124622Y20850714D01*
X30289313Y21247332D01*
X30289687Y21676784D01*
X30125689Y22073689D01*
X29822286Y22377622D01*
X29425668Y22542313D01*
X28996216Y22542687D01*
X28599311Y22378689D01*
X28295378Y22075286D01*
X28130687Y21678668D01*
X28130654Y21640890D01*
X26295382Y19805618D01*
X26102671Y19517206D01*
X26035000Y19177000D01*
X26035000Y10160000D01*
X26102671Y9819794D01*
X26277074Y9558782D01*
X26295382Y9531382D01*
X31502382Y4324382D01*
X31790794Y4131671D01*
X32131000Y4064000D01*
X44577000Y4064000D01*
X44917206Y4131671D01*
X45205618Y4324382D01*
X46729618Y5848382D01*
X46922329Y6136794D01*
X46978570Y6419537D01*
X46978570Y6197109D01*
X47095448Y5609525D01*
X47428287Y5111396D01*
X47926416Y4778557D01*
X48514000Y4661679D01*
X49101584Y4778557D01*
X49599713Y5111396D01*
X49784000Y5387201D01*
X49968287Y5111396D01*
X50466416Y4778557D01*
X51054000Y4661679D01*
X51641584Y4778557D01*
X52139713Y5111396D01*
X52324000Y5387201D01*
X52508287Y5111396D01*
X53006416Y4778557D01*
X53594000Y4661679D01*
X54181584Y4778557D01*
X54679713Y5111396D01*
X54870011Y5396197D01*
X55138089Y5058915D01*
X55663748Y4767277D01*
X55769192Y4742967D01*
X56007000Y4863620D01*
X56007000Y6477000D01*
X56261000Y6477000D01*
X56261000Y4863620D01*
X56498808Y4742967D01*
X56604252Y4767277D01*
X57129911Y5058915D01*
X57404000Y5403760D01*
X57678089Y5058915D01*
X58203748Y4767277D01*
X58309192Y4742967D01*
X58547000Y4863620D01*
X58547000Y6477000D01*
X56261000Y6477000D01*
X56007000Y6477000D01*
X55987000Y6477000D01*
X55987000Y6731000D01*
X56007000Y6731000D01*
X56007000Y8344380D01*
X56261000Y8344380D01*
X56261000Y6731000D01*
X58547000Y6731000D01*
X58547000Y8344380D01*
X58801000Y8344380D01*
X58801000Y6731000D01*
X58821000Y6731000D01*
X58821000Y6477000D01*
X58801000Y6477000D01*
X58801000Y4863620D01*
X59038808Y4742967D01*
X59144252Y4767277D01*
X59669911Y5058915D01*
X59937989Y5396197D01*
X60128287Y5111396D01*
X60626416Y4778557D01*
X61214000Y4661679D01*
X61801584Y4778557D01*
X62299713Y5111396D01*
X62632552Y5609525D01*
X62749430Y6197109D01*
X62749430Y7010891D01*
X62632552Y7598475D01*
X62299713Y8096604D01*
X61801584Y8429443D01*
X61214000Y8546321D01*
X60626416Y8429443D01*
X60128287Y8096604D01*
X59937989Y7811803D01*
X59669911Y8149085D01*
X59144252Y8440723D01*
X59038808Y8465033D01*
X58801000Y8344380D01*
X58547000Y8344380D01*
X58309192Y8465033D01*
X58203748Y8440723D01*
X57678089Y8149085D01*
X57404000Y7804240D01*
X57129911Y8149085D01*
X56604252Y8440723D01*
X56498808Y8465033D01*
X56261000Y8344380D01*
X56007000Y8344380D01*
X55769192Y8465033D01*
X55663748Y8440723D01*
X55138089Y8149085D01*
X54870011Y7811803D01*
X54679713Y8096604D01*
X54181584Y8429443D01*
X53594000Y8546321D01*
X53006416Y8429443D01*
X52508287Y8096604D01*
X52324000Y7820799D01*
X52139713Y8096604D01*
X51943000Y8228043D01*
X51943000Y10073899D01*
X52070257Y10200935D01*
X52439579Y9830968D01*
X53022841Y9588776D01*
X53654388Y9588225D01*
X54238072Y9829398D01*
X54685032Y10275579D01*
X54927224Y10858841D01*
X54927775Y11490388D01*
X54686602Y12074072D01*
X54569825Y12191053D01*
X54572111Y12192000D01*
X57772560Y12192000D01*
X57772560Y10160000D01*
X57816838Y9924683D01*
X57955910Y9708559D01*
X58168110Y9563569D01*
X58420000Y9512560D01*
X60452000Y9512560D01*
X60687317Y9556838D01*
X60903441Y9695910D01*
X61048431Y9908110D01*
X61099440Y10160000D01*
X61099440Y12192000D01*
X61055162Y12427317D01*
X60916090Y12643441D01*
X60720943Y12776779D01*
X60868622Y12832120D01*
X61097816Y13447642D01*
X61074014Y14104019D01*
X60868622Y14599880D01*
X60600107Y14700502D01*
X59615605Y13716000D01*
X59629748Y13701857D01*
X59450143Y13522252D01*
X59436000Y13536395D01*
X59421858Y13522252D01*
X59242253Y13701857D01*
X59256395Y13716000D01*
X58271893Y14700502D01*
X58003378Y14599880D01*
X57774184Y13984358D01*
X57797986Y13327981D01*
X58003378Y12832120D01*
X58154254Y12775581D01*
X57968559Y12656090D01*
X57823569Y12443890D01*
X57772560Y12192000D01*
X54572111Y12192000D01*
X54652198Y12225173D01*
X54830827Y12403801D01*
X54927500Y12637190D01*
X54927500Y13430250D01*
X54768750Y13589000D01*
X53467000Y13589000D01*
X53467000Y13569000D01*
X53213000Y13569000D01*
X53213000Y13589000D01*
X51911250Y13589000D01*
X51752500Y13430250D01*
X51752500Y12637190D01*
X51849173Y12403801D01*
X52027802Y12225173D01*
X52109910Y12191163D01*
X52069743Y12151065D01*
X51700421Y12521032D01*
X51117159Y12763224D01*
X50485612Y12763775D01*
X49901928Y12522602D01*
X49798191Y12419045D01*
X49128615Y13088621D01*
X49257317Y13112838D01*
X49473441Y13251910D01*
X49618431Y13464110D01*
X49669440Y13716000D01*
X49669440Y14794810D01*
X51752500Y14794810D01*
X51752500Y14001750D01*
X51911250Y13843000D01*
X53213000Y13843000D01*
X53213000Y15144750D01*
X53467000Y15144750D01*
X53467000Y13843000D01*
X54768750Y13843000D01*
X54927500Y14001750D01*
X54927500Y14794810D01*
X54892169Y14880107D01*
X58451498Y14880107D01*
X59436000Y13895605D01*
X60420502Y14880107D01*
X60319880Y15148622D01*
X59704358Y15377816D01*
X59047981Y15354014D01*
X58552120Y15148622D01*
X58451498Y14880107D01*
X54892169Y14880107D01*
X54830827Y15028199D01*
X54652198Y15206827D01*
X54418809Y15303500D01*
X53625750Y15303500D01*
X53467000Y15144750D01*
X53213000Y15144750D01*
X53054250Y15303500D01*
X52261191Y15303500D01*
X52027802Y15206827D01*
X51849173Y15028199D01*
X51752500Y14794810D01*
X49669440Y14794810D01*
X49669440Y15484837D01*
X63924443Y15484837D01*
X64023042Y15218035D01*
X64632582Y14991599D01*
X65282377Y15015659D01*
X65770958Y15218035D01*
X65869557Y15484837D01*
X64897000Y16457395D01*
X63924443Y15484837D01*
X49669440Y15484837D01*
X49669440Y15748000D01*
X49625162Y15983317D01*
X49486090Y16199441D01*
X49290943Y16332779D01*
X49438622Y16388120D01*
X49629752Y16901418D01*
X63251599Y16901418D01*
X63275659Y16251623D01*
X63478035Y15763042D01*
X63744837Y15664443D01*
X64717395Y16637000D01*
X65076605Y16637000D01*
X66049163Y15664443D01*
X66315965Y15763042D01*
X66542401Y16372582D01*
X66518341Y17022377D01*
X66315965Y17510958D01*
X66049163Y17609557D01*
X65076605Y16637000D01*
X64717395Y16637000D01*
X63744837Y17609557D01*
X63478035Y17510958D01*
X63251599Y16901418D01*
X49629752Y16901418D01*
X49667816Y17003642D01*
X49644014Y17660019D01*
X49438622Y18155880D01*
X49170107Y18256502D01*
X48185605Y17272000D01*
X48199748Y17257857D01*
X48020143Y17078252D01*
X48006000Y17092395D01*
X47991858Y17078252D01*
X47812253Y17257857D01*
X47826395Y17272000D01*
X47812253Y17286142D01*
X47991858Y17465747D01*
X48006000Y17451605D01*
X48990502Y18436107D01*
X48889880Y18704622D01*
X48274358Y18933816D01*
X47617981Y18910014D01*
X47586005Y18896769D01*
X50660236Y21971000D01*
X52194358Y21971000D01*
X52346714Y21818378D01*
X52406172Y21793689D01*
X52273936Y21425800D01*
X52301121Y20855530D01*
X52467053Y20454935D01*
X52713183Y20380788D01*
X53541395Y21209000D01*
X53527253Y21223142D01*
X53706858Y21402747D01*
X53721000Y21388605D01*
X53735143Y21402747D01*
X53914748Y21223142D01*
X53900605Y21209000D01*
X53914748Y21194857D01*
X53735143Y21015252D01*
X53721000Y21029395D01*
X52892788Y20201183D01*
X52966935Y19955053D01*
X53024978Y19934190D01*
X52909143Y19886328D01*
X52505091Y19482980D01*
X52286150Y18955711D01*
X52285652Y18384793D01*
X52503672Y17857143D01*
X52907020Y17453091D01*
X53434289Y17234150D01*
X54005207Y17233652D01*
X54532857Y17451672D01*
X54936909Y17855020D01*
X54990862Y17984953D01*
X55043672Y17857143D01*
X55447020Y17453091D01*
X55974289Y17234150D01*
X56545207Y17233652D01*
X57072857Y17451672D01*
X57476909Y17855020D01*
X57530862Y17984953D01*
X57583672Y17857143D01*
X57987020Y17453091D01*
X58514289Y17234150D01*
X59085207Y17233652D01*
X59612857Y17451672D01*
X59950937Y17789163D01*
X63924443Y17789163D01*
X64897000Y16816605D01*
X65869557Y17789163D01*
X65770958Y18055965D01*
X65161418Y18282401D01*
X64511623Y18258341D01*
X64023042Y18055965D01*
X63924443Y17789163D01*
X59950937Y17789163D01*
X60016909Y17855020D01*
X60235850Y18382289D01*
X60236348Y18953207D01*
X60152601Y19155893D01*
X63404498Y19155893D01*
X63505120Y18887378D01*
X64120642Y18658184D01*
X64777019Y18681986D01*
X65272880Y18887378D01*
X65373502Y19155893D01*
X64389000Y20140395D01*
X63404498Y19155893D01*
X60152601Y19155893D01*
X60018328Y19480857D01*
X59614980Y19884909D01*
X59485047Y19938862D01*
X59612857Y19991672D01*
X60016909Y20395020D01*
X60235850Y20922289D01*
X60236348Y21493207D01*
X60018328Y22020857D01*
X59690000Y22349758D01*
X59690000Y22364764D01*
X61842618Y24517382D01*
X62035329Y24805794D01*
X62103000Y25146000D01*
X62103000Y26719742D01*
X62219789Y26797778D01*
X62484000Y27193199D01*
X62748211Y26797778D01*
X63209671Y26489441D01*
X63754000Y26381167D01*
X64298329Y26489441D01*
X64759789Y26797778D01*
X65023754Y27192830D01*
X65028475Y27176738D01*
X65378014Y26742809D01*
X65867004Y26475673D01*
X65946940Y26458990D01*
X66167000Y26581148D01*
X66167000Y28067000D01*
X66147000Y28067000D01*
X66147000Y28321000D01*
X66167000Y28321000D01*
X66167000Y29806852D01*
X65946940Y29929010D01*
X65867004Y29912327D01*
X65378014Y29645191D01*
X65028475Y29211262D01*
X65023754Y29195170D01*
X64759789Y29590222D01*
X64643000Y29668258D01*
X64643000Y31623000D01*
X64575329Y31963206D01*
X64382618Y32251618D01*
X62350618Y34283618D01*
X62232100Y34362809D01*
X62184811Y34394407D01*
X62219789Y34417778D01*
X62483754Y34812830D01*
X62488475Y34796738D01*
X62838014Y34362809D01*
X63327004Y34095673D01*
X63406940Y34078990D01*
X63627000Y34201148D01*
X63627000Y35687000D01*
X63607000Y35687000D01*
X63607000Y35941000D01*
X63627000Y35941000D01*
X63627000Y37426852D01*
X63406940Y37549010D01*
X63327004Y37532327D01*
X62838014Y37265191D01*
X62488475Y36831262D01*
X62483754Y36815170D01*
X62219789Y37210222D01*
X62103000Y37288258D01*
X62103000Y37464888D01*
X62302963Y37464714D01*
X62909995Y37715534D01*
X63333565Y38138366D01*
X63351893Y38131498D01*
X64336395Y39116000D01*
X64695605Y39116000D01*
X65680107Y38131498D01*
X65948622Y38232120D01*
X66177816Y38847642D01*
X66154014Y39504019D01*
X65948622Y39999880D01*
X65680107Y40100502D01*
X64695605Y39116000D01*
X64336395Y39116000D01*
X63351893Y40100502D01*
X63333083Y40093453D01*
X63146755Y40280107D01*
X63531498Y40280107D01*
X64516000Y39295605D01*
X65500502Y40280107D01*
X65399880Y40548622D01*
X64784358Y40777816D01*
X64127981Y40754014D01*
X63632120Y40548622D01*
X63531498Y40280107D01*
X63146755Y40280107D01*
X62912437Y40514834D01*
X62865000Y40534532D01*
X62865000Y41275110D01*
X63318963Y41274714D01*
X63354404Y41289358D01*
X67299184Y41289358D01*
X67322986Y40632981D01*
X67528378Y40137120D01*
X67796893Y40036498D01*
X68781395Y41021000D01*
X67796893Y42005502D01*
X67528378Y41904880D01*
X67299184Y41289358D01*
X63354404Y41289358D01*
X63925995Y41525534D01*
X64390834Y41989563D01*
X64642713Y42596155D01*
X64643286Y43252963D01*
X64392466Y43859995D01*
X63928437Y44324834D01*
X63321845Y44576713D01*
X62665037Y44577286D01*
X62058005Y44326466D01*
X61593166Y43862437D01*
X61341287Y43255845D01*
X61340714Y42599037D01*
X61360329Y42551565D01*
X61347382Y42538618D01*
X61154671Y42250206D01*
X61087000Y41910000D01*
X61087000Y40535058D01*
X61042005Y40516466D01*
X60577166Y40052437D01*
X60325287Y39445845D01*
X60325284Y39442967D01*
X60074466Y40049995D01*
X59610437Y40514834D01*
X59563000Y40534532D01*
X59563000Y42164000D01*
X59504787Y42456655D01*
X59562713Y42596155D01*
X59563286Y43252963D01*
X59312466Y43859995D01*
X58848437Y44324834D01*
X58241845Y44576713D01*
X57585037Y44577286D01*
X56978005Y44326466D01*
X56513166Y43862437D01*
X56261287Y43255845D01*
X56260714Y42599037D01*
X56511534Y41992005D01*
X56975563Y41527166D01*
X57582155Y41275287D01*
X57785000Y41275110D01*
X57785000Y40535058D01*
X57740005Y40516466D01*
X57316435Y40093634D01*
X57298107Y40100502D01*
X56313605Y39116000D01*
X57298107Y38131498D01*
X57316917Y38138547D01*
X57737563Y37717166D01*
X57785000Y37697468D01*
X57785000Y37288258D01*
X57668211Y37210222D01*
X57404000Y36814801D01*
X57139789Y37210222D01*
X56678329Y37518559D01*
X56638904Y37526401D01*
X57017880Y37683378D01*
X57118502Y37951893D01*
X56134000Y38936395D01*
X56119858Y38922252D01*
X55940253Y39101857D01*
X55954395Y39116000D01*
X55940253Y39130142D01*
X56119858Y39309747D01*
X56134000Y39295605D01*
X57118502Y40280107D01*
X57017880Y40548622D01*
X56402358Y40777816D01*
X55745981Y40754014D01*
X55250120Y40548622D01*
X55245000Y40534959D01*
X55245000Y43954764D01*
X56502236Y45212000D01*
X62992000Y45212000D01*
X63332206Y45279671D01*
X63620618Y45472382D01*
X66922618Y48774382D01*
X67007477Y48901382D01*
X67115329Y49062794D01*
X67183000Y49403000D01*
X67183000Y50189841D01*
X67768446Y50189841D01*
X67861288Y49927912D01*
X68453801Y49709325D01*
X69084861Y49734122D01*
X69552712Y49927912D01*
X69645554Y50189841D01*
X68707000Y51128395D01*
X67768446Y50189841D01*
X67183000Y50189841D01*
X67183000Y50809723D01*
X67326912Y50462288D01*
X67588841Y50369446D01*
X68527395Y51308000D01*
X68886605Y51308000D01*
X69825159Y50369446D01*
X70087088Y50462288D01*
X70305675Y51054801D01*
X70280878Y51685861D01*
X70087088Y52153712D01*
X69825159Y52246554D01*
X68886605Y51308000D01*
X68527395Y51308000D01*
X67588841Y52246554D01*
X67326912Y52153712D01*
X67183000Y51763617D01*
X67183000Y52426159D01*
X67768446Y52426159D01*
X68707000Y51487605D01*
X69645554Y52426159D01*
X69552712Y52688088D01*
X68960199Y52906675D01*
X68329139Y52881878D01*
X67861288Y52688088D01*
X67768446Y52426159D01*
X67183000Y52426159D01*
X67183000Y53239957D01*
X67379713Y53371396D01*
X67564000Y53647201D01*
X67748287Y53371396D01*
X68246416Y53038557D01*
X68834000Y52921679D01*
X69299493Y53014271D01*
X71126382Y51187382D01*
X71368356Y51025700D01*
X71152857Y50453363D01*
X71175346Y49763575D01*
X71396049Y49230750D01*
X71673263Y49119868D01*
X72718395Y50165000D01*
X72704253Y50179142D01*
X72883858Y50358747D01*
X72898000Y50344605D01*
X72912143Y50358747D01*
X73091748Y50179142D01*
X73077605Y50165000D01*
X73091748Y50150857D01*
X72912143Y49971252D01*
X72898000Y49985395D01*
X71852868Y48940263D01*
X71963750Y48663049D01*
X72609637Y48419857D01*
X72644000Y48420977D01*
X72644000Y47498002D01*
X72338845Y47624713D01*
X71682037Y47625286D01*
X71075005Y47374466D01*
X70817090Y47117000D01*
X70057350Y47117000D01*
X70053602Y47126072D01*
X69607421Y47573032D01*
X69024159Y47815224D01*
X68392612Y47815775D01*
X67808928Y47574602D01*
X67361968Y47128421D01*
X67119776Y46545159D01*
X67119225Y45913612D01*
X67360398Y45329928D01*
X67806579Y44882968D01*
X68389841Y44640776D01*
X69021388Y44640225D01*
X69605072Y44881398D01*
X70052032Y45327579D01*
X70056774Y45339000D01*
X70484992Y45339000D01*
X70608534Y45040005D01*
X70612000Y45036533D01*
X70612000Y42684440D01*
X70485000Y42684440D01*
X70249683Y42640162D01*
X70033559Y42501090D01*
X69900221Y42305943D01*
X69844880Y42453622D01*
X69229358Y42682816D01*
X68572981Y42659014D01*
X68077120Y42453622D01*
X67976498Y42185107D01*
X68961000Y41200605D01*
X68975143Y41214747D01*
X69154748Y41035142D01*
X69140605Y41021000D01*
X69154748Y41006857D01*
X68975143Y40827252D01*
X68961000Y40841395D01*
X67976498Y39856893D01*
X68077120Y39588378D01*
X68611982Y39389218D01*
X66757417Y37534653D01*
X66294000Y37626833D01*
X65749671Y37518559D01*
X65288211Y37210222D01*
X65024246Y36815170D01*
X65019525Y36831262D01*
X64669986Y37265191D01*
X64319281Y37456782D01*
X64904019Y37477986D01*
X65399880Y37683378D01*
X65500502Y37951893D01*
X64516000Y38936395D01*
X63531498Y37951893D01*
X63632120Y37683378D01*
X64057668Y37524922D01*
X63881000Y37426852D01*
X63881000Y35941000D01*
X63901000Y35941000D01*
X63901000Y35687000D01*
X63881000Y35687000D01*
X63881000Y34201148D01*
X64101060Y34078990D01*
X64180996Y34095673D01*
X64669986Y34362809D01*
X65019525Y34796738D01*
X65024246Y34812830D01*
X65288211Y34417778D01*
X65749671Y34109441D01*
X66294000Y34001167D01*
X66838329Y34109441D01*
X67299789Y34417778D01*
X67564000Y34813199D01*
X67828211Y34417778D01*
X68289671Y34109441D01*
X68834000Y34001167D01*
X69378329Y34109441D01*
X69839789Y34417778D01*
X70104000Y34813199D01*
X70368211Y34417778D01*
X70829671Y34109441D01*
X71374000Y34001167D01*
X71918329Y34109441D01*
X72379789Y34417778D01*
X72644000Y34813199D01*
X72908211Y34417778D01*
X73369671Y34109441D01*
X73914000Y34001167D01*
X74271488Y34072276D01*
X75063382Y33280382D01*
X75351794Y33087671D01*
X75692000Y33020000D01*
X80911764Y33020000D01*
X82296000Y31635764D01*
X82296000Y29753116D01*
X82078329Y29898559D01*
X81534000Y30006833D01*
X80989671Y29898559D01*
X80940156Y29865474D01*
X80040815Y30764815D01*
X79985656Y30801671D01*
X79793605Y30929996D01*
X79502000Y30988000D01*
X75819000Y30988000D01*
X75527395Y30929996D01*
X75428377Y30863834D01*
X75280185Y30764816D01*
X74645185Y30129815D01*
X74480684Y29883622D01*
X74458329Y29898559D01*
X73914000Y30006833D01*
X73369671Y29898559D01*
X72908211Y29590222D01*
X72644000Y29194801D01*
X72379789Y29590222D01*
X71918329Y29898559D01*
X71374000Y30006833D01*
X70829671Y29898559D01*
X70368211Y29590222D01*
X70104000Y29194801D01*
X69839789Y29590222D01*
X69378329Y29898559D01*
X68834000Y30006833D01*
X68289671Y29898559D01*
X67828211Y29590222D01*
X67564246Y29195170D01*
X67559525Y29211262D01*
X67209986Y29645191D01*
X66720996Y29912327D01*
X66641060Y29929010D01*
X66421000Y29806852D01*
X66421000Y28321000D01*
X66441000Y28321000D01*
X66441000Y28067000D01*
X66421000Y28067000D01*
X66421000Y26581148D01*
X66641060Y26458990D01*
X66720996Y26475673D01*
X67209986Y26742809D01*
X67559525Y27176738D01*
X67564246Y27192830D01*
X67828211Y26797778D01*
X68289671Y26489441D01*
X68834000Y26381167D01*
X69378329Y26489441D01*
X69839789Y26797778D01*
X70104000Y27193199D01*
X70368211Y26797778D01*
X70493627Y26713978D01*
X71374000Y25833605D01*
X72254373Y26713978D01*
X72379789Y26797778D01*
X72644000Y27193199D01*
X72908211Y26797778D01*
X73369671Y26489441D01*
X73914000Y26381167D01*
X74022941Y26402837D01*
X73972004Y26326605D01*
X73914000Y26035000D01*
X73914000Y24419116D01*
X73670211Y24256222D01*
X73406000Y23860801D01*
X73141789Y24256222D01*
X72680329Y24564559D01*
X72633792Y24573816D01*
X72538109Y24669499D01*
X72806622Y24770120D01*
X73035816Y25385642D01*
X73012014Y26042019D01*
X72806622Y26537880D01*
X72538107Y26638502D01*
X71553605Y25654000D01*
X71567748Y25639857D01*
X71388143Y25460252D01*
X71374000Y25474395D01*
X71359858Y25460252D01*
X71180253Y25639857D01*
X71194395Y25654000D01*
X70209893Y26638502D01*
X69941378Y26537880D01*
X69712184Y25922358D01*
X69735986Y25265981D01*
X69941378Y24770120D01*
X70209891Y24669499D01*
X70110821Y24570429D01*
X69596000Y24672833D01*
X69051671Y24564559D01*
X68590211Y24256222D01*
X68281874Y23794762D01*
X68272771Y23749000D01*
X66052440Y23749000D01*
X66052440Y23876000D01*
X66008162Y24111317D01*
X65869090Y24327441D01*
X65656890Y24472431D01*
X65405000Y24523440D01*
X63373000Y24523440D01*
X63137683Y24479162D01*
X62921559Y24340090D01*
X62776569Y24127890D01*
X62725560Y23876000D01*
X62725560Y23215796D01*
X61163419Y21653655D01*
X61127216Y21653687D01*
X60730311Y21489689D01*
X60426378Y21186286D01*
X60261687Y20789668D01*
X60261313Y20360216D01*
X60425311Y19963311D01*
X60728714Y19659378D01*
X61125332Y19494687D01*
X61554784Y19494313D01*
X61951689Y19658311D01*
X62255622Y19961714D01*
X62420313Y20358332D01*
X62420346Y20396110D01*
X62795166Y20770930D01*
X62727184Y20588358D01*
X62750986Y19931981D01*
X62956378Y19436120D01*
X63224893Y19335498D01*
X64209395Y20320000D01*
X64195253Y20334142D01*
X64374858Y20513747D01*
X64389000Y20499605D01*
X64403143Y20513747D01*
X64582748Y20334142D01*
X64568605Y20320000D01*
X65553107Y19335498D01*
X65821622Y19436120D01*
X66050816Y20051642D01*
X66027014Y20708019D01*
X65821622Y21203880D01*
X65670746Y21260419D01*
X65856441Y21379910D01*
X66001431Y21592110D01*
X66052440Y21844000D01*
X66052440Y21971000D01*
X68272771Y21971000D01*
X68281874Y21925238D01*
X68432842Y21699298D01*
X68173378Y21440286D01*
X68008687Y21043668D01*
X68008313Y20614216D01*
X68172311Y20217311D01*
X68475714Y19913378D01*
X68834000Y19764604D01*
X68834000Y17030440D01*
X68808600Y17030440D01*
X68573283Y16986162D01*
X68357159Y16847090D01*
X68212169Y16634890D01*
X68161160Y16383000D01*
X68161160Y14097000D01*
X68205438Y13861683D01*
X68344510Y13645559D01*
X68453000Y13571431D01*
X68453000Y12341058D01*
X68408005Y12322466D01*
X67943166Y11858437D01*
X67765263Y11430000D01*
X66298194Y11430000D01*
X66283462Y11465655D01*
X65824073Y11925846D01*
X65223547Y12175206D01*
X64573306Y12175774D01*
X63972345Y11927462D01*
X63512154Y11468073D01*
X63262794Y10867547D01*
X63262226Y10217306D01*
X63510538Y9616345D01*
X63969927Y9156154D01*
X64570453Y8906794D01*
X65220694Y8906226D01*
X65821655Y9154538D01*
X66281846Y9613927D01*
X66297655Y9652000D01*
X68276953Y9652000D01*
X68405563Y9523166D01*
X69012155Y9271287D01*
X69668963Y9270714D01*
X70275995Y9521534D01*
X70740834Y9985563D01*
X70865997Y10286988D01*
X70989534Y9988005D01*
X71453563Y9523166D01*
X72060155Y9271287D01*
X72716963Y9270714D01*
X73323995Y9521534D01*
X73788834Y9985563D01*
X74040713Y10592155D01*
X74041286Y11248963D01*
X73790466Y11855995D01*
X73326437Y12320834D01*
X73279000Y12340532D01*
X73279000Y14049129D01*
X73406000Y14239199D01*
X73670211Y13843778D01*
X74131671Y13535441D01*
X74676000Y13427167D01*
X75220329Y13535441D01*
X75681789Y13843778D01*
X75945754Y14238830D01*
X75950475Y14222738D01*
X76300014Y13788809D01*
X76789004Y13521673D01*
X76868940Y13504990D01*
X77089000Y13627148D01*
X77089000Y15113000D01*
X77069000Y15113000D01*
X77069000Y15367000D01*
X77089000Y15367000D01*
X77089000Y16852852D01*
X76868940Y16975010D01*
X76789004Y16958327D01*
X76300014Y16691191D01*
X75950475Y16257262D01*
X75945754Y16241170D01*
X75681789Y16636222D01*
X75565000Y16714258D01*
X75565000Y17792764D01*
X76581093Y18808857D01*
X76681311Y18566311D01*
X76984714Y18262378D01*
X77381332Y18097687D01*
X77419110Y18097654D01*
X77597000Y17919764D01*
X77597000Y16967927D01*
X77563060Y16975010D01*
X77343000Y16852852D01*
X77343000Y15367000D01*
X77363000Y15367000D01*
X77363000Y15113000D01*
X77343000Y15113000D01*
X77343000Y13627148D01*
X77563060Y13504990D01*
X77597000Y13512073D01*
X77597000Y9131236D01*
X76919493Y8453729D01*
X76454000Y8546321D01*
X75866416Y8429443D01*
X75368287Y8096604D01*
X75184000Y7820799D01*
X74999713Y8096604D01*
X74501584Y8429443D01*
X73914000Y8546321D01*
X73326416Y8429443D01*
X72828287Y8096604D01*
X72644000Y7820799D01*
X72459713Y8096604D01*
X71961584Y8429443D01*
X71374000Y8546321D01*
X70786416Y8429443D01*
X70288287Y8096604D01*
X70104000Y7820799D01*
X69919713Y8096604D01*
X69421584Y8429443D01*
X68834000Y8546321D01*
X68246416Y8429443D01*
X67748287Y8096604D01*
X67564000Y7820799D01*
X67379713Y8096604D01*
X66881584Y8429443D01*
X66294000Y8546321D01*
X65706416Y8429443D01*
X65208287Y8096604D01*
X64875448Y7598475D01*
X64758570Y7010891D01*
X64758570Y6197109D01*
X64875448Y5609525D01*
X65208287Y5111396D01*
X65706416Y4778557D01*
X66294000Y4661679D01*
X66881584Y4778557D01*
X67379713Y5111396D01*
X67564000Y5387201D01*
X67748287Y5111396D01*
X68246416Y4778557D01*
X68834000Y4661679D01*
X69421584Y4778557D01*
X69919713Y5111396D01*
X70104000Y5387201D01*
X70288287Y5111396D01*
X70786416Y4778557D01*
X71374000Y4661679D01*
X71945422Y4775342D01*
X72777382Y3943382D01*
X73065794Y3750671D01*
X73406000Y3683000D01*
X80391000Y3683000D01*
X80731206Y3750671D01*
X81019618Y3943382D01*
X81965581Y4889345D01*
X82001784Y4889313D01*
X82398689Y5053311D01*
X82702622Y5356714D01*
X82867313Y5753332D01*
X82867687Y6182784D01*
X82703689Y6579689D01*
X82400286Y6883622D01*
X82003668Y7048313D01*
X81574216Y7048687D01*
X81177311Y6884689D01*
X80873378Y6581286D01*
X80708687Y6184668D01*
X80708654Y6146890D01*
X80472458Y5910694D01*
X80529430Y6197109D01*
X80529430Y7010891D01*
X80412552Y7598475D01*
X80079713Y8096604D01*
X79581584Y8429443D01*
X79319039Y8481666D01*
X79375000Y8763000D01*
X79375000Y10265468D01*
X79934155Y10033287D01*
X80590963Y10032714D01*
X81197995Y10283534D01*
X81597790Y10682632D01*
X81994563Y10285166D01*
X82601155Y10033287D01*
X83257963Y10032714D01*
X83864995Y10283534D01*
X84329834Y10747563D01*
X84581713Y11354155D01*
X84582286Y12010963D01*
X84331466Y12617995D01*
X83867437Y13082834D01*
X83820000Y13102532D01*
X83820000Y13855764D01*
X83934236Y13970000D01*
X87226942Y13970000D01*
X87245534Y13925005D01*
X87709563Y13460166D01*
X88316155Y13208287D01*
X88972963Y13207714D01*
X89579995Y13458534D01*
X90044834Y13922563D01*
X90296713Y14529155D01*
X90297286Y15185963D01*
X90046466Y15792995D01*
X89582437Y16257834D01*
X88975845Y16509713D01*
X88319037Y16510286D01*
X87712005Y16259466D01*
X87247166Y15795437D01*
X87227468Y15748000D01*
X83566000Y15748000D01*
X83225795Y15680330D01*
X82937382Y15487618D01*
X82302382Y14852618D01*
X82109671Y14564206D01*
X82042000Y14224000D01*
X82042000Y13103058D01*
X81997005Y13084466D01*
X81597210Y12685368D01*
X81200437Y13082834D01*
X80593845Y13334713D01*
X79937037Y13335286D01*
X79375000Y13103058D01*
X79375000Y17885468D01*
X79934155Y17653287D01*
X80590963Y17652714D01*
X81197995Y17903534D01*
X81597790Y18302632D01*
X81994563Y17905166D01*
X82601155Y17653287D01*
X83257963Y17652714D01*
X83864995Y17903534D01*
X84329834Y18367563D01*
X84581713Y18974155D01*
X84582286Y19630963D01*
X84331466Y20237995D01*
X83867437Y20702834D01*
X83820000Y20722532D01*
X83820000Y22671372D01*
X84018411Y22753353D01*
X84433190Y23167409D01*
X84657944Y23708677D01*
X84658455Y24294752D01*
X84434647Y24836411D01*
X84074000Y25197688D01*
X84074000Y32004000D01*
X84006329Y32344206D01*
X83813618Y32632618D01*
X82406637Y34039599D01*
X82556717Y34067838D01*
X82772841Y34206910D01*
X82772846Y34206918D01*
X85598000Y31381764D01*
X85598000Y24384000D01*
X85665671Y24043794D01*
X85807852Y23831005D01*
X85858382Y23755382D01*
X86995121Y22618643D01*
X86994714Y22152037D01*
X87245534Y21545005D01*
X87709563Y21080166D01*
X88316155Y20828287D01*
X88972963Y20827714D01*
X89579995Y21078534D01*
X90044834Y21542563D01*
X90296713Y22149155D01*
X90297286Y22805963D01*
X90046466Y23412995D01*
X89582437Y23877834D01*
X88975845Y24129713D01*
X88319037Y24130286D01*
X88091830Y24036406D01*
X87376000Y24752236D01*
X87376000Y25552550D01*
X87637529Y25290564D01*
X88290782Y25019309D01*
X88998114Y25018692D01*
X89651840Y25288806D01*
X90152436Y25788529D01*
X90423691Y26441782D01*
X90424308Y27149114D01*
X90154194Y27802840D01*
X89890472Y28067022D01*
X90152436Y28328529D01*
X90423691Y28981782D01*
X90424308Y29689114D01*
X90154194Y30342840D01*
X89890472Y30607022D01*
X90152436Y30868529D01*
X90423691Y31521782D01*
X90424308Y32229114D01*
X90154194Y32882840D01*
X89890472Y33147022D01*
X90152436Y33408529D01*
X90423691Y34061782D01*
X90424308Y34769114D01*
X90154194Y35422840D01*
X89654471Y35923436D01*
X89390241Y36033154D01*
X88646000Y36777395D01*
X88631858Y36763252D01*
X88452253Y36942857D01*
X88466395Y36957000D01*
X88825605Y36957000D01*
X89901963Y35880642D01*
X90183658Y35996806D01*
X90434062Y36658333D01*
X90412249Y37365329D01*
X90183658Y37917194D01*
X89901963Y38033358D01*
X88825605Y36957000D01*
X88466395Y36957000D01*
X87390037Y38033358D01*
X87108342Y37917194D01*
X86857938Y37255667D01*
X86879661Y36551575D01*
X86487000Y36944236D01*
X86487000Y41684886D01*
X86867692Y41684886D01*
X87137806Y41031160D01*
X87401528Y40766978D01*
X87139564Y40505471D01*
X86868309Y39852218D01*
X86867692Y39144886D01*
X87137806Y38491160D01*
X87637529Y37990564D01*
X87901759Y37880846D01*
X88646000Y37136605D01*
X89390019Y37880624D01*
X89651840Y37988806D01*
X90152436Y38488529D01*
X90423691Y39141782D01*
X90424308Y39849114D01*
X90154194Y40502840D01*
X89890472Y40767022D01*
X90152436Y41028529D01*
X90423691Y41681782D01*
X90424308Y42389114D01*
X90195616Y42942590D01*
X90327327Y43074302D01*
X90424000Y43307691D01*
X90424000Y44291250D01*
X90265250Y44450000D01*
X88773000Y44450000D01*
X88773000Y44430000D01*
X88519000Y44430000D01*
X88519000Y44450000D01*
X87026750Y44450000D01*
X86868000Y44291250D01*
X86868000Y43307691D01*
X86964673Y43074302D01*
X87096709Y42942265D01*
X86868309Y42392218D01*
X86867692Y41684886D01*
X86487000Y41684886D01*
X86487000Y42796137D01*
X86512622Y42821714D01*
X86677313Y43218332D01*
X86677687Y43647784D01*
X86513689Y44044689D01*
X86210286Y44348622D01*
X85813668Y44513313D01*
X85384216Y44513687D01*
X84987311Y44349689D01*
X84683378Y44046286D01*
X84654108Y43975796D01*
X84617622Y44063880D01*
X84349107Y44164502D01*
X83364605Y43180000D01*
X84349107Y42195498D01*
X84617622Y42296120D01*
X84709000Y42541524D01*
X84709000Y41303274D01*
X84617622Y41523880D01*
X84349107Y41624502D01*
X83364605Y40640000D01*
X84349107Y39655498D01*
X84617622Y39756120D01*
X84709000Y40001524D01*
X84709000Y36576000D01*
X84776671Y36235794D01*
X84884523Y36074382D01*
X84969382Y35947382D01*
X86878827Y34037937D01*
X87137806Y33411160D01*
X87401528Y33146978D01*
X87139564Y32885471D01*
X87089955Y32766000D01*
X86728236Y32766000D01*
X84201000Y35293236D01*
X84201000Y37335137D01*
X84226622Y37360714D01*
X84391313Y37757332D01*
X84391687Y38186784D01*
X84227689Y38583689D01*
X83924286Y38887622D01*
X83610991Y39017714D01*
X84068880Y39207378D01*
X84169502Y39475893D01*
X83185000Y40460395D01*
X82200498Y39475893D01*
X82301120Y39207378D01*
X82916642Y38978184D01*
X82918027Y38978234D01*
X82701311Y38888689D01*
X82397378Y38585286D01*
X82232687Y38188668D01*
X82232313Y37759216D01*
X82296265Y37604440D01*
X81381796Y37604440D01*
X80518000Y38468236D01*
X80518000Y40908358D01*
X81523184Y40908358D01*
X81546986Y40251981D01*
X81752378Y39756120D01*
X82020893Y39655498D01*
X83005395Y40640000D01*
X82020893Y41624502D01*
X81752378Y41523880D01*
X81523184Y40908358D01*
X80518000Y40908358D01*
X80518000Y42015893D01*
X82200498Y42015893D01*
X82240180Y41910000D01*
X82200498Y41804107D01*
X83185000Y40819605D01*
X84169502Y41804107D01*
X84129820Y41910000D01*
X84169502Y42015893D01*
X83185000Y43000395D01*
X82200498Y42015893D01*
X80518000Y42015893D01*
X80518000Y43448358D01*
X81523184Y43448358D01*
X81546986Y42791981D01*
X81752378Y42296120D01*
X82020893Y42195498D01*
X83005395Y43180000D01*
X82020893Y44164502D01*
X81752378Y44063880D01*
X81523184Y43448358D01*
X80518000Y43448358D01*
X80518000Y44554942D01*
X80562995Y44573534D01*
X81027834Y45037563D01*
X81279713Y45644155D01*
X81280286Y46300963D01*
X81029466Y46907995D01*
X80565437Y47372834D01*
X80518000Y47392532D01*
X80518000Y48145764D01*
X81032382Y47631382D01*
X81320794Y47438671D01*
X81661000Y47371000D01*
X81765942Y47371000D01*
X81784534Y47326005D01*
X82120132Y46989821D01*
X81786166Y46656437D01*
X81534287Y46049845D01*
X81533714Y45393037D01*
X81784534Y44786005D01*
X82207366Y44362435D01*
X82200498Y44344107D01*
X83185000Y43359605D01*
X84169502Y44344107D01*
X84162453Y44362917D01*
X84583834Y44783563D01*
X84835713Y45390155D01*
X84836286Y46046963D01*
X84585466Y46653995D01*
X84249868Y46990179D01*
X84583834Y47323563D01*
X84835713Y47930155D01*
X84836286Y48586963D01*
X84585466Y49193995D01*
X84249868Y49530179D01*
X84583834Y49863563D01*
X84835713Y50470155D01*
X84836286Y51126963D01*
X84585466Y51733995D01*
X84518635Y51800942D01*
X84635931Y51876420D01*
X84780921Y52088620D01*
X84831930Y52340510D01*
X84831930Y54339490D01*
X84827939Y54360703D01*
X86093236Y55626000D01*
X86914650Y55626000D01*
X86918398Y55616928D01*
X87364579Y55169968D01*
X87947841Y54927776D01*
X88579388Y54927225D01*
X89163072Y55168398D01*
X89610032Y55614579D01*
X89852224Y56197841D01*
X89852775Y56829388D01*
X89611602Y57413072D01*
X89165421Y57860032D01*
X88582159Y58102224D01*
X87950612Y58102775D01*
X87366928Y57861602D01*
X86919968Y57415421D01*
X86915226Y57404000D01*
X85725000Y57404000D01*
X85384794Y57336329D01*
X85096382Y57143618D01*
X84772767Y56820003D01*
X84772775Y56829388D01*
X84531602Y57413072D01*
X84085421Y57860032D01*
X83502159Y58102224D01*
X82870612Y58102775D01*
X82286928Y57861602D01*
X81839968Y57415421D01*
X81597776Y56832159D01*
X81597225Y56200612D01*
X81601947Y56189183D01*
X80905382Y55492618D01*
X80712671Y55204206D01*
X80645000Y54864000D01*
X80645000Y52692236D01*
X80011451Y53325785D01*
X80079713Y53371396D01*
X80412552Y53869525D01*
X80529430Y54457109D01*
X80529430Y55270891D01*
X80412552Y55858475D01*
X80079713Y56356604D01*
X79581584Y56689443D01*
X78994000Y56806321D01*
X78406416Y56689443D01*
X77908287Y56356604D01*
X77724000Y56080799D01*
X77539713Y56356604D01*
X77041584Y56689443D01*
X76454000Y56806321D01*
X75866416Y56689443D01*
X75368287Y56356604D01*
X75184000Y56080799D01*
X74999713Y56356604D01*
X74501584Y56689443D01*
X73914000Y56806321D01*
X73326416Y56689443D01*
X72828287Y56356604D01*
X72644000Y56080799D01*
X72459713Y56356604D01*
X71961584Y56689443D01*
X71374000Y56806321D01*
X70786416Y56689443D01*
X70288287Y56356604D01*
X70104000Y56080799D01*
X69919713Y56356604D01*
X69421584Y56689443D01*
X68834000Y56806321D01*
X68246416Y56689443D01*
X67748287Y56356604D01*
X67564000Y56080799D01*
X67379713Y56356604D01*
X66881584Y56689443D01*
X66294000Y56806321D01*
X65722578Y56692658D01*
X64636618Y57778618D01*
X64348206Y57971329D01*
X64008000Y58039000D01*
X22225000Y58039000D01*
X21884794Y57971329D01*
X21596382Y57778618D01*
X20586764Y56769000D01*
X17929058Y56769000D01*
X17910466Y56813995D01*
X17446437Y57278834D01*
X16839845Y57530713D01*
X16183037Y57531286D01*
X15576005Y57280466D01*
X15111166Y56816437D01*
X14859287Y56209845D01*
X14858714Y55553037D01*
X15109534Y54946005D01*
X15573563Y54481166D01*
X16028291Y54292346D01*
X15576005Y54105466D01*
X15111166Y53641437D01*
X14859287Y53034845D01*
X14858714Y52378037D01*
X14878329Y52330565D01*
X13722382Y51174618D01*
X13529671Y50886206D01*
X13462000Y50546000D01*
X13462000Y45479879D01*
X13336231Y45395843D01*
X13025140Y44930263D01*
X12915900Y44381074D01*
X9707653Y44381074D01*
X9320956Y44872602D01*
X8763159Y45185713D01*
X8635354Y45216659D01*
X8382000Y45097305D01*
X8128000Y45097305D01*
X7874646Y45216659D01*
X7746841Y45185713D01*
X7189044Y44872602D01*
X6793529Y44369865D01*
X6620510Y43754040D01*
X2095500Y43754040D01*
X2095500Y51660903D01*
X3595023Y51660903D01*
X3621611Y51075431D01*
X3794510Y50658017D01*
X4044587Y50579192D01*
X4900395Y51435000D01*
X5259605Y51435000D01*
X6115413Y50579192D01*
X6365490Y50658017D01*
X6564977Y51209097D01*
X6538389Y51794569D01*
X6365490Y52211983D01*
X6115413Y52290808D01*
X5259605Y51435000D01*
X4900395Y51435000D01*
X4044587Y52290808D01*
X3794510Y52211983D01*
X3595023Y51660903D01*
X2095500Y51660903D01*
X2095500Y52939587D01*
X4224192Y52939587D01*
X4298135Y52705000D01*
X4224192Y52470413D01*
X5080000Y51614605D01*
X5935808Y52470413D01*
X5861865Y52705000D01*
X5935808Y52939587D01*
X5080000Y53795395D01*
X4224192Y52939587D01*
X2095500Y52939587D01*
X2095500Y54200903D01*
X3595023Y54200903D01*
X3621611Y53615431D01*
X3794510Y53198017D01*
X4044587Y53119192D01*
X4900395Y53975000D01*
X5259605Y53975000D01*
X6115413Y53119192D01*
X6365490Y53198017D01*
X6564977Y53749097D01*
X6538389Y54334569D01*
X6365490Y54751983D01*
X6115413Y54830808D01*
X5259605Y53975000D01*
X4900395Y53975000D01*
X4044587Y54830808D01*
X3794510Y54751983D01*
X3595023Y54200903D01*
X2095500Y54200903D01*
X2095500Y56223248D01*
X3606545Y56223248D01*
X3830353Y55681589D01*
X4244409Y55266810D01*
X4297995Y55244559D01*
X4224192Y55010413D01*
X5080000Y54154605D01*
X5935808Y55010413D01*
X5862129Y55244164D01*
X5913411Y55265353D01*
X6274688Y55626000D01*
X7238778Y55626000D01*
X7238714Y55553037D01*
X7489534Y54946005D01*
X7953563Y54481166D01*
X8408291Y54292346D01*
X7956005Y54105466D01*
X7491166Y53641437D01*
X7239287Y53034845D01*
X7238714Y52378037D01*
X7489534Y51771005D01*
X7953563Y51306166D01*
X8001000Y51286468D01*
X8001000Y51168236D01*
X6616764Y49784000D01*
X6274155Y49784000D01*
X5915591Y50143190D01*
X5862005Y50165441D01*
X5935808Y50399587D01*
X5080000Y51255395D01*
X4224192Y50399587D01*
X4297871Y50165836D01*
X4246589Y50144647D01*
X3831810Y49730591D01*
X3607056Y49189323D01*
X3606545Y48603248D01*
X3830353Y48061589D01*
X4244409Y47646810D01*
X4785677Y47422056D01*
X5371752Y47421545D01*
X5913411Y47645353D01*
X6274688Y48006000D01*
X6985000Y48006000D01*
X7325206Y48073671D01*
X7613618Y48266382D01*
X9518618Y50171382D01*
X9571954Y50251205D01*
X9711329Y50459794D01*
X9779000Y50800000D01*
X9779000Y51285942D01*
X9823995Y51304534D01*
X10288834Y51768563D01*
X10540713Y52375155D01*
X10541286Y53031963D01*
X10290466Y53638995D01*
X9826437Y54103834D01*
X9371709Y54292654D01*
X9823995Y54479534D01*
X10288834Y54943563D01*
X10540713Y55550155D01*
X10541286Y56206963D01*
X10290466Y56813995D01*
X9826437Y57278834D01*
X9219845Y57530713D01*
X8563037Y57531286D01*
X8254981Y57404000D01*
X6274155Y57404000D01*
X5915591Y57763190D01*
X5374323Y57987944D01*
X4788248Y57988455D01*
X4246589Y57764647D01*
X3831810Y57350591D01*
X3607056Y56809323D01*
X3606545Y56223248D01*
X2095500Y56223248D01*
X2095500Y58229500D01*
X93154500Y58229500D01*
X93154500Y51817837D01*
X93154500Y51817837D01*
G37*
X93154500Y51817837D02*
X92907968Y52414490D01*
X91790374Y53534037D01*
X90329419Y54140679D01*
X88747521Y54142059D01*
X87285510Y53537968D01*
X86165963Y52420374D01*
X85559321Y50959419D01*
X85557941Y49377521D01*
X86162032Y47915510D01*
X87279626Y46795963D01*
X88341582Y46355000D01*
X87376690Y46355000D01*
X87143301Y46258327D01*
X86964673Y46079698D01*
X86868000Y45846309D01*
X86868000Y44862750D01*
X87026750Y44704000D01*
X88519000Y44704000D01*
X88519000Y44724000D01*
X88773000Y44724000D01*
X88773000Y44704000D01*
X90265250Y44704000D01*
X90424000Y44862750D01*
X90424000Y45846309D01*
X90327327Y46079698D01*
X90218994Y46188031D01*
X90322479Y46187941D01*
X91784490Y46792032D01*
X92904037Y47909626D01*
X93154500Y48512807D01*
X93154500Y8002837D01*
X92907968Y8599490D01*
X91790374Y9719037D01*
X90329419Y10325679D01*
X88747521Y10327059D01*
X87285510Y9722968D01*
X86165963Y8605374D01*
X85559321Y7144419D01*
X85557941Y5562521D01*
X86162032Y4100510D01*
X87279626Y2980963D01*
X87882807Y2730500D01*
X2095500Y2730500D01*
X2095500Y30723114D01*
X7010400Y30723114D01*
X7010400Y9916886D01*
X9550400Y9916886D01*
X9550400Y6088745D01*
X14274800Y6088745D01*
X14274800Y7991592D01*
X14760313Y7991592D01*
X15546924Y6087849D01*
X17002188Y4630043D01*
X18904555Y3840111D01*
X20964408Y3838313D01*
X22868151Y4624924D01*
X24325957Y6080188D01*
X25115889Y7982555D01*
X25117687Y10042408D01*
X24331076Y11946151D01*
X22875812Y13403957D01*
X20973445Y14193889D01*
X18913592Y14195687D01*
X17009849Y13409076D01*
X15552043Y11953812D01*
X14762111Y10051445D01*
X14760313Y7991592D01*
X14274800Y7991592D01*
X14274800Y14216742D01*
X18084800Y14216742D01*
X18084800Y27693258D01*
X14274800Y27693258D01*
X14274800Y28996216D01*
X34480313Y28996216D01*
X34644311Y28599311D01*
X34947714Y28295378D01*
X35344332Y28130687D01*
X35773784Y28130313D01*
X36170689Y28294311D01*
X36197425Y28321000D01*
X37462137Y28321000D01*
X37487714Y28295378D01*
X37884332Y28130687D01*
X38313784Y28130313D01*
X38710689Y28294311D01*
X39014622Y28597714D01*
X39179313Y28994332D01*
X39179687Y29423784D01*
X39015689Y29820689D01*
X38712286Y30124622D01*
X38315668Y30289313D01*
X37886216Y30289687D01*
X37489311Y30125689D01*
X37462575Y30099000D01*
X36197863Y30099000D01*
X36172286Y30124622D01*
X35775668Y30289313D01*
X35346216Y30289687D01*
X34949311Y30125689D01*
X34645378Y29822286D01*
X34480687Y29425668D01*
X34480313Y28996216D01*
X14274800Y28996216D01*
X14274800Y32093248D01*
X27990545Y32093248D01*
X28214353Y31551589D01*
X28628409Y31136810D01*
X29169677Y30912056D01*
X29755752Y30911545D01*
X30297411Y31135353D01*
X30712190Y31549409D01*
X30936944Y32090677D01*
X30937455Y32676752D01*
X30713647Y33218411D01*
X30299591Y33633190D01*
X29758323Y33857944D01*
X29172248Y33858455D01*
X28630589Y33634647D01*
X28215810Y33220591D01*
X27991056Y32679323D01*
X27990545Y32093248D01*
X14274800Y32093248D01*
X14274800Y35821256D01*
X9550400Y35821256D01*
X9550400Y30723114D01*
X7010400Y30723114D01*
X2095500Y30723114D01*
X2095500Y36677521D01*
X14437941Y36677521D01*
X15042032Y35215510D01*
X16159626Y34095963D01*
X17620581Y33489321D01*
X19202479Y33487941D01*
X20664490Y34092032D01*
X21784037Y35209626D01*
X22390679Y36670581D01*
X22392059Y38252479D01*
X21787968Y39714490D01*
X20670374Y40834037D01*
X19209419Y41440679D01*
X17627521Y41442059D01*
X16165510Y40837968D01*
X15045963Y39720374D01*
X14439321Y38259419D01*
X14437941Y36677521D01*
X2095500Y36677521D01*
X2095500Y38481000D01*
X8667714Y38481000D01*
X8792132Y37855508D01*
X9146445Y37325241D01*
X9676712Y36970928D01*
X10302204Y36846510D01*
X11795796Y36846510D01*
X12421288Y36970928D01*
X12951555Y37325241D01*
X13305868Y37855508D01*
X13430286Y38481000D01*
X13305868Y39106492D01*
X12951555Y39636759D01*
X12421288Y39991072D01*
X11795796Y40115490D01*
X10302204Y40115490D01*
X9676712Y39991072D01*
X9146445Y39636759D01*
X8792132Y39106492D01*
X8667714Y38481000D01*
X2095500Y38481000D01*
X2095500Y42799000D01*
X6620510Y42799000D01*
X6620510Y42097960D01*
X6793529Y41482135D01*
X7189044Y40979398D01*
X7746841Y40666287D01*
X7874646Y40635341D01*
X8128000Y40754695D01*
X8128000Y42799000D01*
X8382000Y42799000D01*
X8382000Y40754695D01*
X8635354Y40635341D01*
X8763159Y40666287D01*
X9320956Y40979398D01*
X9716471Y41482135D01*
X9889490Y42097960D01*
X9889490Y42799000D01*
X8382000Y42799000D01*
X8128000Y42799000D01*
X6620510Y42799000D01*
X2095500Y42799000D01*
X2095500Y43754040D01*
X6620510Y43754040D01*
X6620510Y43053000D01*
X8128000Y43053000D01*
X8128000Y45097305D01*
X8382000Y45097305D01*
X8382000Y43053000D01*
X9889490Y43053000D01*
X9889490Y43754040D01*
X9716471Y44369865D01*
X9707653Y44381074D01*
X12915900Y44381074D01*
X12915900Y41470926D01*
X13025140Y40921737D01*
X13336231Y40456157D01*
X13801811Y40145066D01*
X14351000Y40035826D01*
X14900189Y40145066D01*
X15365769Y40456157D01*
X15676860Y40921737D01*
X15786100Y41470926D01*
X15786100Y42037000D01*
X28587764Y42037000D01*
X36908624Y33716140D01*
X36830332Y33527590D01*
X36829670Y32769735D01*
X37119078Y32069314D01*
X37654495Y31532961D01*
X38354410Y31242332D01*
X39112265Y31241670D01*
X39214041Y31283723D01*
X40386000Y30111764D01*
X40386000Y27305000D01*
X40453671Y26964794D01*
X40561523Y26803382D01*
X40646382Y26676382D01*
X42182957Y25139807D01*
X42164287Y25094845D01*
X42163714Y24438037D01*
X42414534Y23831005D01*
X42837366Y23407435D01*
X42830498Y23389107D01*
X43815000Y22404605D01*
X44799502Y23389107D01*
X44792453Y23407917D01*
X45213834Y23828563D01*
X45305484Y24049280D01*
X45974000Y23380764D01*
X45974000Y22466236D01*
X45476382Y21968618D01*
X45453014Y22613019D01*
X45247622Y23108880D01*
X44979107Y23209502D01*
X43994605Y22225000D01*
X44008748Y22210857D01*
X43829143Y22031252D01*
X43815000Y22045395D01*
X42830498Y21060893D01*
X42837547Y21042083D01*
X42416166Y20621437D01*
X42164287Y20014845D01*
X42163714Y19358037D01*
X42414534Y18751005D01*
X42837366Y18327435D01*
X42830498Y18309107D01*
X43815000Y17324605D01*
X44799502Y18309107D01*
X44792453Y18327917D01*
X45213834Y18748563D01*
X45465713Y19355155D01*
X45465790Y19443554D01*
X47491618Y21469382D01*
X47684329Y21757794D01*
X47752000Y22098000D01*
X47752000Y22860000D01*
X49034764Y22860000D01*
X45726382Y19551618D01*
X45533671Y19263206D01*
X45466000Y18923000D01*
X45466000Y17174910D01*
X45453014Y17533019D01*
X45247622Y18028880D01*
X44979107Y18129502D01*
X43994605Y17145000D01*
X44979107Y16160498D01*
X45247622Y16261120D01*
X45466000Y16847595D01*
X45466000Y14634910D01*
X45453014Y14993019D01*
X45247622Y15488880D01*
X44979107Y15589502D01*
X43994605Y14605000D01*
X44979107Y13620498D01*
X45247622Y13721120D01*
X45466000Y14307595D01*
X45466000Y12687236D01*
X45379870Y12601106D01*
X45215466Y12998995D01*
X44792634Y13422565D01*
X44799502Y13440893D01*
X43815000Y14425395D01*
X42830498Y13440893D01*
X42837547Y13422083D01*
X42416166Y13001437D01*
X42164287Y12394845D01*
X42163714Y11738037D01*
X42414534Y11131005D01*
X42750132Y10794821D01*
X42416166Y10461437D01*
X42164287Y9854845D01*
X42163714Y9198037D01*
X42414534Y8591005D01*
X42837366Y8167435D01*
X42830498Y8149107D01*
X43815000Y7164605D01*
X44799502Y8149107D01*
X44792453Y8167917D01*
X45212000Y8586732D01*
X45212000Y7882229D01*
X44979107Y7969502D01*
X43994605Y6985000D01*
X44008748Y6970857D01*
X43829143Y6791252D01*
X43815000Y6805395D01*
X43800858Y6791252D01*
X43621253Y6970857D01*
X43635395Y6985000D01*
X42650893Y7969502D01*
X42382378Y7868880D01*
X42153184Y7253358D01*
X42176986Y6596981D01*
X42382378Y6101120D01*
X42650891Y6000499D01*
X42536651Y5886259D01*
X42580910Y5842000D01*
X37386910Y5842000D01*
X37593834Y6048563D01*
X37845713Y6655155D01*
X37846286Y7311963D01*
X37595466Y7918995D01*
X37259868Y8255179D01*
X37593834Y8588563D01*
X37845713Y9195155D01*
X37846286Y9851963D01*
X37595466Y10458995D01*
X37259868Y10795179D01*
X37593834Y11128563D01*
X37845713Y11735155D01*
X37846286Y12391963D01*
X37595466Y12998995D01*
X37259868Y13335179D01*
X37593834Y13668563D01*
X37845713Y14275155D01*
X37846234Y14873358D01*
X42153184Y14873358D01*
X42176986Y14216981D01*
X42382378Y13721120D01*
X42650893Y13620498D01*
X43635395Y14605000D01*
X42650893Y15589502D01*
X42382378Y15488880D01*
X42153184Y14873358D01*
X37846234Y14873358D01*
X37846286Y14931963D01*
X37595466Y15538995D01*
X37259868Y15875179D01*
X37365766Y15980893D01*
X42830498Y15980893D01*
X42870180Y15875000D01*
X42830498Y15769107D01*
X43815000Y14784605D01*
X44799502Y15769107D01*
X44759820Y15875000D01*
X44799502Y15980893D01*
X43815000Y16965395D01*
X42830498Y15980893D01*
X37365766Y15980893D01*
X37593834Y16208563D01*
X37845713Y16815155D01*
X37846234Y17413358D01*
X42153184Y17413358D01*
X42176986Y16756981D01*
X42382378Y16261120D01*
X42650893Y16160498D01*
X43635395Y17145000D01*
X42650893Y18129502D01*
X42382378Y18028880D01*
X42153184Y17413358D01*
X37846234Y17413358D01*
X37846286Y17471963D01*
X37595466Y18078995D01*
X37259868Y18415179D01*
X37593834Y18748563D01*
X37845713Y19355155D01*
X37846286Y20011963D01*
X37595466Y20618995D01*
X37259868Y20955179D01*
X37593834Y21288563D01*
X37845713Y21895155D01*
X37846234Y22493358D01*
X42153184Y22493358D01*
X42176986Y21836981D01*
X42382378Y21341120D01*
X42650893Y21240498D01*
X43635395Y22225000D01*
X42650893Y23209502D01*
X42382378Y23108880D01*
X42153184Y22493358D01*
X37846234Y22493358D01*
X37846286Y22551963D01*
X37595466Y23158995D01*
X37259868Y23495179D01*
X37593834Y23828563D01*
X37845713Y24435155D01*
X37846286Y25091963D01*
X37595466Y25698995D01*
X37131437Y26163834D01*
X36524845Y26415713D01*
X35868037Y26416286D01*
X35261005Y26165466D01*
X34796166Y25701437D01*
X34544287Y25094845D01*
X34543714Y24438037D01*
X34794534Y23831005D01*
X35130132Y23494821D01*
X34796166Y23161437D01*
X34544287Y22554845D01*
X34543714Y21898037D01*
X34794534Y21291005D01*
X35130132Y20954821D01*
X34796166Y20621437D01*
X34544287Y20014845D01*
X34543714Y19358037D01*
X34794534Y18751005D01*
X35130132Y18414821D01*
X34796166Y18081437D01*
X34544287Y17474845D01*
X34543714Y16818037D01*
X34794534Y16211005D01*
X35130132Y15874821D01*
X34796166Y15541437D01*
X34544287Y14934845D01*
X34543714Y14278037D01*
X34794534Y13671005D01*
X35130132Y13334821D01*
X34796166Y13001437D01*
X34544287Y12394845D01*
X34543714Y11738037D01*
X34794534Y11131005D01*
X35130132Y10794821D01*
X34796166Y10461437D01*
X34544287Y9854845D01*
X34543714Y9198037D01*
X34794534Y8591005D01*
X35130132Y8254821D01*
X34796166Y7921437D01*
X34544287Y7314845D01*
X34543714Y6658037D01*
X34794534Y6051005D01*
X35003175Y5842000D01*
X32499236Y5842000D01*
X27813000Y10528236D01*
X27813000Y10998924D01*
X27928304Y10998924D01*
X28161567Y10434385D01*
X28593113Y10002085D01*
X29157244Y9767837D01*
X29768076Y9767304D01*
X30332615Y10000567D01*
X30764915Y10432113D01*
X30999163Y10996244D01*
X30999696Y11607076D01*
X30766433Y12171615D01*
X30334887Y12603915D01*
X29770756Y12838163D01*
X29159924Y12838696D01*
X28595385Y12605433D01*
X28163085Y12173887D01*
X27928837Y11609756D01*
X27928304Y10998924D01*
X27813000Y10998924D01*
X27813000Y18808764D01*
X29387581Y20383345D01*
X29423784Y20383313D01*
X29820689Y20547311D01*
X30124622Y20850714D01*
X30289313Y21247332D01*
X30289687Y21676784D01*
X30125689Y22073689D01*
X29822286Y22377622D01*
X29425668Y22542313D01*
X28996216Y22542687D01*
X28599311Y22378689D01*
X28295378Y22075286D01*
X28130687Y21678668D01*
X28130654Y21640890D01*
X26295382Y19805618D01*
X26102671Y19517206D01*
X26035000Y19177000D01*
X26035000Y10160000D01*
X26102671Y9819794D01*
X26277074Y9558782D01*
X26295382Y9531382D01*
X31502382Y4324382D01*
X31790794Y4131671D01*
X32131000Y4064000D01*
X44577000Y4064000D01*
X44917206Y4131671D01*
X45205618Y4324382D01*
X46729618Y5848382D01*
X46922329Y6136794D01*
X46978570Y6419537D01*
X46978570Y6197109D01*
X47095448Y5609525D01*
X47428287Y5111396D01*
X47926416Y4778557D01*
X48514000Y4661679D01*
X49101584Y4778557D01*
X49599713Y5111396D01*
X49784000Y5387201D01*
X49968287Y5111396D01*
X50466416Y4778557D01*
X51054000Y4661679D01*
X51641584Y4778557D01*
X52139713Y5111396D01*
X52324000Y5387201D01*
X52508287Y5111396D01*
X53006416Y4778557D01*
X53594000Y4661679D01*
X54181584Y4778557D01*
X54679713Y5111396D01*
X54870011Y5396197D01*
X55138089Y5058915D01*
X55663748Y4767277D01*
X55769192Y4742967D01*
X56007000Y4863620D01*
X56007000Y6477000D01*
X56261000Y6477000D01*
X56261000Y4863620D01*
X56498808Y4742967D01*
X56604252Y4767277D01*
X57129911Y5058915D01*
X57404000Y5403760D01*
X57678089Y5058915D01*
X58203748Y4767277D01*
X58309192Y4742967D01*
X58547000Y4863620D01*
X58547000Y6477000D01*
X56261000Y6477000D01*
X56007000Y6477000D01*
X55987000Y6477000D01*
X55987000Y6731000D01*
X56007000Y6731000D01*
X56007000Y8344380D01*
X56261000Y8344380D01*
X56261000Y6731000D01*
X58547000Y6731000D01*
X58547000Y8344380D01*
X58801000Y8344380D01*
X58801000Y6731000D01*
X58821000Y6731000D01*
X58821000Y6477000D01*
X58801000Y6477000D01*
X58801000Y4863620D01*
X59038808Y4742967D01*
X59144252Y4767277D01*
X59669911Y5058915D01*
X59937989Y5396197D01*
X60128287Y5111396D01*
X60626416Y4778557D01*
X61214000Y4661679D01*
X61801584Y4778557D01*
X62299713Y5111396D01*
X62632552Y5609525D01*
X62749430Y6197109D01*
X62749430Y7010891D01*
X62632552Y7598475D01*
X62299713Y8096604D01*
X61801584Y8429443D01*
X61214000Y8546321D01*
X60626416Y8429443D01*
X60128287Y8096604D01*
X59937989Y7811803D01*
X59669911Y8149085D01*
X59144252Y8440723D01*
X59038808Y8465033D01*
X58801000Y8344380D01*
X58547000Y8344380D01*
X58309192Y8465033D01*
X58203748Y8440723D01*
X57678089Y8149085D01*
X57404000Y7804240D01*
X57129911Y8149085D01*
X56604252Y8440723D01*
X56498808Y8465033D01*
X56261000Y8344380D01*
X56007000Y8344380D01*
X55769192Y8465033D01*
X55663748Y8440723D01*
X55138089Y8149085D01*
X54870011Y7811803D01*
X54679713Y8096604D01*
X54181584Y8429443D01*
X53594000Y8546321D01*
X53006416Y8429443D01*
X52508287Y8096604D01*
X52324000Y7820799D01*
X52139713Y8096604D01*
X51943000Y8228043D01*
X51943000Y10073899D01*
X52070257Y10200935D01*
X52439579Y9830968D01*
X53022841Y9588776D01*
X53654388Y9588225D01*
X54238072Y9829398D01*
X54685032Y10275579D01*
X54927224Y10858841D01*
X54927775Y11490388D01*
X54686602Y12074072D01*
X54569825Y12191053D01*
X54572111Y12192000D01*
X57772560Y12192000D01*
X57772560Y10160000D01*
X57816838Y9924683D01*
X57955910Y9708559D01*
X58168110Y9563569D01*
X58420000Y9512560D01*
X60452000Y9512560D01*
X60687317Y9556838D01*
X60903441Y9695910D01*
X61048431Y9908110D01*
X61099440Y10160000D01*
X61099440Y12192000D01*
X61055162Y12427317D01*
X60916090Y12643441D01*
X60720943Y12776779D01*
X60868622Y12832120D01*
X61097816Y13447642D01*
X61074014Y14104019D01*
X60868622Y14599880D01*
X60600107Y14700502D01*
X59615605Y13716000D01*
X59629748Y13701857D01*
X59450143Y13522252D01*
X59436000Y13536395D01*
X59421858Y13522252D01*
X59242253Y13701857D01*
X59256395Y13716000D01*
X58271893Y14700502D01*
X58003378Y14599880D01*
X57774184Y13984358D01*
X57797986Y13327981D01*
X58003378Y12832120D01*
X58154254Y12775581D01*
X57968559Y12656090D01*
X57823569Y12443890D01*
X57772560Y12192000D01*
X54572111Y12192000D01*
X54652198Y12225173D01*
X54830827Y12403801D01*
X54927500Y12637190D01*
X54927500Y13430250D01*
X54768750Y13589000D01*
X53467000Y13589000D01*
X53467000Y13569000D01*
X53213000Y13569000D01*
X53213000Y13589000D01*
X51911250Y13589000D01*
X51752500Y13430250D01*
X51752500Y12637190D01*
X51849173Y12403801D01*
X52027802Y12225173D01*
X52109910Y12191163D01*
X52069743Y12151065D01*
X51700421Y12521032D01*
X51117159Y12763224D01*
X50485612Y12763775D01*
X49901928Y12522602D01*
X49798191Y12419045D01*
X49128615Y13088621D01*
X49257317Y13112838D01*
X49473441Y13251910D01*
X49618431Y13464110D01*
X49669440Y13716000D01*
X49669440Y14794810D01*
X51752500Y14794810D01*
X51752500Y14001750D01*
X51911250Y13843000D01*
X53213000Y13843000D01*
X53213000Y15144750D01*
X53467000Y15144750D01*
X53467000Y13843000D01*
X54768750Y13843000D01*
X54927500Y14001750D01*
X54927500Y14794810D01*
X54892169Y14880107D01*
X58451498Y14880107D01*
X59436000Y13895605D01*
X60420502Y14880107D01*
X60319880Y15148622D01*
X59704358Y15377816D01*
X59047981Y15354014D01*
X58552120Y15148622D01*
X58451498Y14880107D01*
X54892169Y14880107D01*
X54830827Y15028199D01*
X54652198Y15206827D01*
X54418809Y15303500D01*
X53625750Y15303500D01*
X53467000Y15144750D01*
X53213000Y15144750D01*
X53054250Y15303500D01*
X52261191Y15303500D01*
X52027802Y15206827D01*
X51849173Y15028199D01*
X51752500Y14794810D01*
X49669440Y14794810D01*
X49669440Y15484837D01*
X63924443Y15484837D01*
X64023042Y15218035D01*
X64632582Y14991599D01*
X65282377Y15015659D01*
X65770958Y15218035D01*
X65869557Y15484837D01*
X64897000Y16457395D01*
X63924443Y15484837D01*
X49669440Y15484837D01*
X49669440Y15748000D01*
X49625162Y15983317D01*
X49486090Y16199441D01*
X49290943Y16332779D01*
X49438622Y16388120D01*
X49629752Y16901418D01*
X63251599Y16901418D01*
X63275659Y16251623D01*
X63478035Y15763042D01*
X63744837Y15664443D01*
X64717395Y16637000D01*
X65076605Y16637000D01*
X66049163Y15664443D01*
X66315965Y15763042D01*
X66542401Y16372582D01*
X66518341Y17022377D01*
X66315965Y17510958D01*
X66049163Y17609557D01*
X65076605Y16637000D01*
X64717395Y16637000D01*
X63744837Y17609557D01*
X63478035Y17510958D01*
X63251599Y16901418D01*
X49629752Y16901418D01*
X49667816Y17003642D01*
X49644014Y17660019D01*
X49438622Y18155880D01*
X49170107Y18256502D01*
X48185605Y17272000D01*
X48199748Y17257857D01*
X48020143Y17078252D01*
X48006000Y17092395D01*
X47991858Y17078252D01*
X47812253Y17257857D01*
X47826395Y17272000D01*
X47812253Y17286142D01*
X47991858Y17465747D01*
X48006000Y17451605D01*
X48990502Y18436107D01*
X48889880Y18704622D01*
X48274358Y18933816D01*
X47617981Y18910014D01*
X47586005Y18896769D01*
X50660236Y21971000D01*
X52194358Y21971000D01*
X52346714Y21818378D01*
X52406172Y21793689D01*
X52273936Y21425800D01*
X52301121Y20855530D01*
X52467053Y20454935D01*
X52713183Y20380788D01*
X53541395Y21209000D01*
X53527253Y21223142D01*
X53706858Y21402747D01*
X53721000Y21388605D01*
X53735143Y21402747D01*
X53914748Y21223142D01*
X53900605Y21209000D01*
X53914748Y21194857D01*
X53735143Y21015252D01*
X53721000Y21029395D01*
X52892788Y20201183D01*
X52966935Y19955053D01*
X53024978Y19934190D01*
X52909143Y19886328D01*
X52505091Y19482980D01*
X52286150Y18955711D01*
X52285652Y18384793D01*
X52503672Y17857143D01*
X52907020Y17453091D01*
X53434289Y17234150D01*
X54005207Y17233652D01*
X54532857Y17451672D01*
X54936909Y17855020D01*
X54990862Y17984953D01*
X55043672Y17857143D01*
X55447020Y17453091D01*
X55974289Y17234150D01*
X56545207Y17233652D01*
X57072857Y17451672D01*
X57476909Y17855020D01*
X57530862Y17984953D01*
X57583672Y17857143D01*
X57987020Y17453091D01*
X58514289Y17234150D01*
X59085207Y17233652D01*
X59612857Y17451672D01*
X59950937Y17789163D01*
X63924443Y17789163D01*
X64897000Y16816605D01*
X65869557Y17789163D01*
X65770958Y18055965D01*
X65161418Y18282401D01*
X64511623Y18258341D01*
X64023042Y18055965D01*
X63924443Y17789163D01*
X59950937Y17789163D01*
X60016909Y17855020D01*
X60235850Y18382289D01*
X60236348Y18953207D01*
X60152601Y19155893D01*
X63404498Y19155893D01*
X63505120Y18887378D01*
X64120642Y18658184D01*
X64777019Y18681986D01*
X65272880Y18887378D01*
X65373502Y19155893D01*
X64389000Y20140395D01*
X63404498Y19155893D01*
X60152601Y19155893D01*
X60018328Y19480857D01*
X59614980Y19884909D01*
X59485047Y19938862D01*
X59612857Y19991672D01*
X60016909Y20395020D01*
X60235850Y20922289D01*
X60236348Y21493207D01*
X60018328Y22020857D01*
X59690000Y22349758D01*
X59690000Y22364764D01*
X61842618Y24517382D01*
X62035329Y24805794D01*
X62103000Y25146000D01*
X62103000Y26719742D01*
X62219789Y26797778D01*
X62484000Y27193199D01*
X62748211Y26797778D01*
X63209671Y26489441D01*
X63754000Y26381167D01*
X64298329Y26489441D01*
X64759789Y26797778D01*
X65023754Y27192830D01*
X65028475Y27176738D01*
X65378014Y26742809D01*
X65867004Y26475673D01*
X65946940Y26458990D01*
X66167000Y26581148D01*
X66167000Y28067000D01*
X66147000Y28067000D01*
X66147000Y28321000D01*
X66167000Y28321000D01*
X66167000Y29806852D01*
X65946940Y29929010D01*
X65867004Y29912327D01*
X65378014Y29645191D01*
X65028475Y29211262D01*
X65023754Y29195170D01*
X64759789Y29590222D01*
X64643000Y29668258D01*
X64643000Y31623000D01*
X64575329Y31963206D01*
X64382618Y32251618D01*
X62350618Y34283618D01*
X62232100Y34362809D01*
X62184811Y34394407D01*
X62219789Y34417778D01*
X62483754Y34812830D01*
X62488475Y34796738D01*
X62838014Y34362809D01*
X63327004Y34095673D01*
X63406940Y34078990D01*
X63627000Y34201148D01*
X63627000Y35687000D01*
X63607000Y35687000D01*
X63607000Y35941000D01*
X63627000Y35941000D01*
X63627000Y37426852D01*
X63406940Y37549010D01*
X63327004Y37532327D01*
X62838014Y37265191D01*
X62488475Y36831262D01*
X62483754Y36815170D01*
X62219789Y37210222D01*
X62103000Y37288258D01*
X62103000Y37464888D01*
X62302963Y37464714D01*
X62909995Y37715534D01*
X63333565Y38138366D01*
X63351893Y38131498D01*
X64336395Y39116000D01*
X64695605Y39116000D01*
X65680107Y38131498D01*
X65948622Y38232120D01*
X66177816Y38847642D01*
X66154014Y39504019D01*
X65948622Y39999880D01*
X65680107Y40100502D01*
X64695605Y39116000D01*
X64336395Y39116000D01*
X63351893Y40100502D01*
X63333083Y40093453D01*
X63146755Y40280107D01*
X63531498Y40280107D01*
X64516000Y39295605D01*
X65500502Y40280107D01*
X65399880Y40548622D01*
X64784358Y40777816D01*
X64127981Y40754014D01*
X63632120Y40548622D01*
X63531498Y40280107D01*
X63146755Y40280107D01*
X62912437Y40514834D01*
X62865000Y40534532D01*
X62865000Y41275110D01*
X63318963Y41274714D01*
X63354404Y41289358D01*
X67299184Y41289358D01*
X67322986Y40632981D01*
X67528378Y40137120D01*
X67796893Y40036498D01*
X68781395Y41021000D01*
X67796893Y42005502D01*
X67528378Y41904880D01*
X67299184Y41289358D01*
X63354404Y41289358D01*
X63925995Y41525534D01*
X64390834Y41989563D01*
X64642713Y42596155D01*
X64643286Y43252963D01*
X64392466Y43859995D01*
X63928437Y44324834D01*
X63321845Y44576713D01*
X62665037Y44577286D01*
X62058005Y44326466D01*
X61593166Y43862437D01*
X61341287Y43255845D01*
X61340714Y42599037D01*
X61360329Y42551565D01*
X61347382Y42538618D01*
X61154671Y42250206D01*
X61087000Y41910000D01*
X61087000Y40535058D01*
X61042005Y40516466D01*
X60577166Y40052437D01*
X60325287Y39445845D01*
X60325284Y39442967D01*
X60074466Y40049995D01*
X59610437Y40514834D01*
X59563000Y40534532D01*
X59563000Y42164000D01*
X59504787Y42456655D01*
X59562713Y42596155D01*
X59563286Y43252963D01*
X59312466Y43859995D01*
X58848437Y44324834D01*
X58241845Y44576713D01*
X57585037Y44577286D01*
X56978005Y44326466D01*
X56513166Y43862437D01*
X56261287Y43255845D01*
X56260714Y42599037D01*
X56511534Y41992005D01*
X56975563Y41527166D01*
X57582155Y41275287D01*
X57785000Y41275110D01*
X57785000Y40535058D01*
X57740005Y40516466D01*
X57316435Y40093634D01*
X57298107Y40100502D01*
X56313605Y39116000D01*
X57298107Y38131498D01*
X57316917Y38138547D01*
X57737563Y37717166D01*
X57785000Y37697468D01*
X57785000Y37288258D01*
X57668211Y37210222D01*
X57404000Y36814801D01*
X57139789Y37210222D01*
X56678329Y37518559D01*
X56638904Y37526401D01*
X57017880Y37683378D01*
X57118502Y37951893D01*
X56134000Y38936395D01*
X56119858Y38922252D01*
X55940253Y39101857D01*
X55954395Y39116000D01*
X55940253Y39130142D01*
X56119858Y39309747D01*
X56134000Y39295605D01*
X57118502Y40280107D01*
X57017880Y40548622D01*
X56402358Y40777816D01*
X55745981Y40754014D01*
X55250120Y40548622D01*
X55245000Y40534959D01*
X55245000Y43954764D01*
X56502236Y45212000D01*
X62992000Y45212000D01*
X63332206Y45279671D01*
X63620618Y45472382D01*
X66922618Y48774382D01*
X67007477Y48901382D01*
X67115329Y49062794D01*
X67183000Y49403000D01*
X67183000Y50189841D01*
X67768446Y50189841D01*
X67861288Y49927912D01*
X68453801Y49709325D01*
X69084861Y49734122D01*
X69552712Y49927912D01*
X69645554Y50189841D01*
X68707000Y51128395D01*
X67768446Y50189841D01*
X67183000Y50189841D01*
X67183000Y50809723D01*
X67326912Y50462288D01*
X67588841Y50369446D01*
X68527395Y51308000D01*
X68886605Y51308000D01*
X69825159Y50369446D01*
X70087088Y50462288D01*
X70305675Y51054801D01*
X70280878Y51685861D01*
X70087088Y52153712D01*
X69825159Y52246554D01*
X68886605Y51308000D01*
X68527395Y51308000D01*
X67588841Y52246554D01*
X67326912Y52153712D01*
X67183000Y51763617D01*
X67183000Y52426159D01*
X67768446Y52426159D01*
X68707000Y51487605D01*
X69645554Y52426159D01*
X69552712Y52688088D01*
X68960199Y52906675D01*
X68329139Y52881878D01*
X67861288Y52688088D01*
X67768446Y52426159D01*
X67183000Y52426159D01*
X67183000Y53239957D01*
X67379713Y53371396D01*
X67564000Y53647201D01*
X67748287Y53371396D01*
X68246416Y53038557D01*
X68834000Y52921679D01*
X69299493Y53014271D01*
X71126382Y51187382D01*
X71368356Y51025700D01*
X71152857Y50453363D01*
X71175346Y49763575D01*
X71396049Y49230750D01*
X71673263Y49119868D01*
X72718395Y50165000D01*
X72704253Y50179142D01*
X72883858Y50358747D01*
X72898000Y50344605D01*
X72912143Y50358747D01*
X73091748Y50179142D01*
X73077605Y50165000D01*
X73091748Y50150857D01*
X72912143Y49971252D01*
X72898000Y49985395D01*
X71852868Y48940263D01*
X71963750Y48663049D01*
X72609637Y48419857D01*
X72644000Y48420977D01*
X72644000Y47498002D01*
X72338845Y47624713D01*
X71682037Y47625286D01*
X71075005Y47374466D01*
X70817090Y47117000D01*
X70057350Y47117000D01*
X70053602Y47126072D01*
X69607421Y47573032D01*
X69024159Y47815224D01*
X68392612Y47815775D01*
X67808928Y47574602D01*
X67361968Y47128421D01*
X67119776Y46545159D01*
X67119225Y45913612D01*
X67360398Y45329928D01*
X67806579Y44882968D01*
X68389841Y44640776D01*
X69021388Y44640225D01*
X69605072Y44881398D01*
X70052032Y45327579D01*
X70056774Y45339000D01*
X70484992Y45339000D01*
X70608534Y45040005D01*
X70612000Y45036533D01*
X70612000Y42684440D01*
X70485000Y42684440D01*
X70249683Y42640162D01*
X70033559Y42501090D01*
X69900221Y42305943D01*
X69844880Y42453622D01*
X69229358Y42682816D01*
X68572981Y42659014D01*
X68077120Y42453622D01*
X67976498Y42185107D01*
X68961000Y41200605D01*
X68975143Y41214747D01*
X69154748Y41035142D01*
X69140605Y41021000D01*
X69154748Y41006857D01*
X68975143Y40827252D01*
X68961000Y40841395D01*
X67976498Y39856893D01*
X68077120Y39588378D01*
X68611982Y39389218D01*
X66757417Y37534653D01*
X66294000Y37626833D01*
X65749671Y37518559D01*
X65288211Y37210222D01*
X65024246Y36815170D01*
X65019525Y36831262D01*
X64669986Y37265191D01*
X64319281Y37456782D01*
X64904019Y37477986D01*
X65399880Y37683378D01*
X65500502Y37951893D01*
X64516000Y38936395D01*
X63531498Y37951893D01*
X63632120Y37683378D01*
X64057668Y37524922D01*
X63881000Y37426852D01*
X63881000Y35941000D01*
X63901000Y35941000D01*
X63901000Y35687000D01*
X63881000Y35687000D01*
X63881000Y34201148D01*
X64101060Y34078990D01*
X64180996Y34095673D01*
X64669986Y34362809D01*
X65019525Y34796738D01*
X65024246Y34812830D01*
X65288211Y34417778D01*
X65749671Y34109441D01*
X66294000Y34001167D01*
X66838329Y34109441D01*
X67299789Y34417778D01*
X67564000Y34813199D01*
X67828211Y34417778D01*
X68289671Y34109441D01*
X68834000Y34001167D01*
X69378329Y34109441D01*
X69839789Y34417778D01*
X70104000Y34813199D01*
X70368211Y34417778D01*
X70829671Y34109441D01*
X71374000Y34001167D01*
X71918329Y34109441D01*
X72379789Y34417778D01*
X72644000Y34813199D01*
X72908211Y34417778D01*
X73369671Y34109441D01*
X73914000Y34001167D01*
X74271488Y34072276D01*
X75063382Y33280382D01*
X75351794Y33087671D01*
X75692000Y33020000D01*
X80911764Y33020000D01*
X82296000Y31635764D01*
X82296000Y29753116D01*
X82078329Y29898559D01*
X81534000Y30006833D01*
X80989671Y29898559D01*
X80940156Y29865474D01*
X80040815Y30764815D01*
X79985656Y30801671D01*
X79793605Y30929996D01*
X79502000Y30988000D01*
X75819000Y30988000D01*
X75527395Y30929996D01*
X75428377Y30863834D01*
X75280185Y30764816D01*
X74645185Y30129815D01*
X74480684Y29883622D01*
X74458329Y29898559D01*
X73914000Y30006833D01*
X73369671Y29898559D01*
X72908211Y29590222D01*
X72644000Y29194801D01*
X72379789Y29590222D01*
X71918329Y29898559D01*
X71374000Y30006833D01*
X70829671Y29898559D01*
X70368211Y29590222D01*
X70104000Y29194801D01*
X69839789Y29590222D01*
X69378329Y29898559D01*
X68834000Y30006833D01*
X68289671Y29898559D01*
X67828211Y29590222D01*
X67564246Y29195170D01*
X67559525Y29211262D01*
X67209986Y29645191D01*
X66720996Y29912327D01*
X66641060Y29929010D01*
X66421000Y29806852D01*
X66421000Y28321000D01*
X66441000Y28321000D01*
X66441000Y28067000D01*
X66421000Y28067000D01*
X66421000Y26581148D01*
X66641060Y26458990D01*
X66720996Y26475673D01*
X67209986Y26742809D01*
X67559525Y27176738D01*
X67564246Y27192830D01*
X67828211Y26797778D01*
X68289671Y26489441D01*
X68834000Y26381167D01*
X69378329Y26489441D01*
X69839789Y26797778D01*
X70104000Y27193199D01*
X70368211Y26797778D01*
X70493627Y26713978D01*
X71374000Y25833605D01*
X72254373Y26713978D01*
X72379789Y26797778D01*
X72644000Y27193199D01*
X72908211Y26797778D01*
X73369671Y26489441D01*
X73914000Y26381167D01*
X74022941Y26402837D01*
X73972004Y26326605D01*
X73914000Y26035000D01*
X73914000Y24419116D01*
X73670211Y24256222D01*
X73406000Y23860801D01*
X73141789Y24256222D01*
X72680329Y24564559D01*
X72633792Y24573816D01*
X72538109Y24669499D01*
X72806622Y24770120D01*
X73035816Y25385642D01*
X73012014Y26042019D01*
X72806622Y26537880D01*
X72538107Y26638502D01*
X71553605Y25654000D01*
X71567748Y25639857D01*
X71388143Y25460252D01*
X71374000Y25474395D01*
X71359858Y25460252D01*
X71180253Y25639857D01*
X71194395Y25654000D01*
X70209893Y26638502D01*
X69941378Y26537880D01*
X69712184Y25922358D01*
X69735986Y25265981D01*
X69941378Y24770120D01*
X70209891Y24669499D01*
X70110821Y24570429D01*
X69596000Y24672833D01*
X69051671Y24564559D01*
X68590211Y24256222D01*
X68281874Y23794762D01*
X68272771Y23749000D01*
X66052440Y23749000D01*
X66052440Y23876000D01*
X66008162Y24111317D01*
X65869090Y24327441D01*
X65656890Y24472431D01*
X65405000Y24523440D01*
X63373000Y24523440D01*
X63137683Y24479162D01*
X62921559Y24340090D01*
X62776569Y24127890D01*
X62725560Y23876000D01*
X62725560Y23215796D01*
X61163419Y21653655D01*
X61127216Y21653687D01*
X60730311Y21489689D01*
X60426378Y21186286D01*
X60261687Y20789668D01*
X60261313Y20360216D01*
X60425311Y19963311D01*
X60728714Y19659378D01*
X61125332Y19494687D01*
X61554784Y19494313D01*
X61951689Y19658311D01*
X62255622Y19961714D01*
X62420313Y20358332D01*
X62420346Y20396110D01*
X62795166Y20770930D01*
X62727184Y20588358D01*
X62750986Y19931981D01*
X62956378Y19436120D01*
X63224893Y19335498D01*
X64209395Y20320000D01*
X64195253Y20334142D01*
X64374858Y20513747D01*
X64389000Y20499605D01*
X64403143Y20513747D01*
X64582748Y20334142D01*
X64568605Y20320000D01*
X65553107Y19335498D01*
X65821622Y19436120D01*
X66050816Y20051642D01*
X66027014Y20708019D01*
X65821622Y21203880D01*
X65670746Y21260419D01*
X65856441Y21379910D01*
X66001431Y21592110D01*
X66052440Y21844000D01*
X66052440Y21971000D01*
X68272771Y21971000D01*
X68281874Y21925238D01*
X68432842Y21699298D01*
X68173378Y21440286D01*
X68008687Y21043668D01*
X68008313Y20614216D01*
X68172311Y20217311D01*
X68475714Y19913378D01*
X68834000Y19764604D01*
X68834000Y17030440D01*
X68808600Y17030440D01*
X68573283Y16986162D01*
X68357159Y16847090D01*
X68212169Y16634890D01*
X68161160Y16383000D01*
X68161160Y14097000D01*
X68205438Y13861683D01*
X68344510Y13645559D01*
X68453000Y13571431D01*
X68453000Y12341058D01*
X68408005Y12322466D01*
X67943166Y11858437D01*
X67765263Y11430000D01*
X66298194Y11430000D01*
X66283462Y11465655D01*
X65824073Y11925846D01*
X65223547Y12175206D01*
X64573306Y12175774D01*
X63972345Y11927462D01*
X63512154Y11468073D01*
X63262794Y10867547D01*
X63262226Y10217306D01*
X63510538Y9616345D01*
X63969927Y9156154D01*
X64570453Y8906794D01*
X65220694Y8906226D01*
X65821655Y9154538D01*
X66281846Y9613927D01*
X66297655Y9652000D01*
X68276953Y9652000D01*
X68405563Y9523166D01*
X69012155Y9271287D01*
X69668963Y9270714D01*
X70275995Y9521534D01*
X70740834Y9985563D01*
X70865997Y10286988D01*
X70989534Y9988005D01*
X71453563Y9523166D01*
X72060155Y9271287D01*
X72716963Y9270714D01*
X73323995Y9521534D01*
X73788834Y9985563D01*
X74040713Y10592155D01*
X74041286Y11248963D01*
X73790466Y11855995D01*
X73326437Y12320834D01*
X73279000Y12340532D01*
X73279000Y14049129D01*
X73406000Y14239199D01*
X73670211Y13843778D01*
X74131671Y13535441D01*
X74676000Y13427167D01*
X75220329Y13535441D01*
X75681789Y13843778D01*
X75945754Y14238830D01*
X75950475Y14222738D01*
X76300014Y13788809D01*
X76789004Y13521673D01*
X76868940Y13504990D01*
X77089000Y13627148D01*
X77089000Y15113000D01*
X77069000Y15113000D01*
X77069000Y15367000D01*
X77089000Y15367000D01*
X77089000Y16852852D01*
X76868940Y16975010D01*
X76789004Y16958327D01*
X76300014Y16691191D01*
X75950475Y16257262D01*
X75945754Y16241170D01*
X75681789Y16636222D01*
X75565000Y16714258D01*
X75565000Y17792764D01*
X76581093Y18808857D01*
X76681311Y18566311D01*
X76984714Y18262378D01*
X77381332Y18097687D01*
X77419110Y18097654D01*
X77597000Y17919764D01*
X77597000Y16967927D01*
X77563060Y16975010D01*
X77343000Y16852852D01*
X77343000Y15367000D01*
X77363000Y15367000D01*
X77363000Y15113000D01*
X77343000Y15113000D01*
X77343000Y13627148D01*
X77563060Y13504990D01*
X77597000Y13512073D01*
X77597000Y9131236D01*
X76919493Y8453729D01*
X76454000Y8546321D01*
X75866416Y8429443D01*
X75368287Y8096604D01*
X75184000Y7820799D01*
X74999713Y8096604D01*
X74501584Y8429443D01*
X73914000Y8546321D01*
X73326416Y8429443D01*
X72828287Y8096604D01*
X72644000Y7820799D01*
X72459713Y8096604D01*
X71961584Y8429443D01*
X71374000Y8546321D01*
X70786416Y8429443D01*
X70288287Y8096604D01*
X70104000Y7820799D01*
X69919713Y8096604D01*
X69421584Y8429443D01*
X68834000Y8546321D01*
X68246416Y8429443D01*
X67748287Y8096604D01*
X67564000Y7820799D01*
X67379713Y8096604D01*
X66881584Y8429443D01*
X66294000Y8546321D01*
X65706416Y8429443D01*
X65208287Y8096604D01*
X64875448Y7598475D01*
X64758570Y7010891D01*
X64758570Y6197109D01*
X64875448Y5609525D01*
X65208287Y5111396D01*
X65706416Y4778557D01*
X66294000Y4661679D01*
X66881584Y4778557D01*
X67379713Y5111396D01*
X67564000Y5387201D01*
X67748287Y5111396D01*
X68246416Y4778557D01*
X68834000Y4661679D01*
X69421584Y4778557D01*
X69919713Y5111396D01*
X70104000Y5387201D01*
X70288287Y5111396D01*
X70786416Y4778557D01*
X71374000Y4661679D01*
X71945422Y4775342D01*
X72777382Y3943382D01*
X73065794Y3750671D01*
X73406000Y3683000D01*
X80391000Y3683000D01*
X80731206Y3750671D01*
X81019618Y3943382D01*
X81965581Y4889345D01*
X82001784Y4889313D01*
X82398689Y5053311D01*
X82702622Y5356714D01*
X82867313Y5753332D01*
X82867687Y6182784D01*
X82703689Y6579689D01*
X82400286Y6883622D01*
X82003668Y7048313D01*
X81574216Y7048687D01*
X81177311Y6884689D01*
X80873378Y6581286D01*
X80708687Y6184668D01*
X80708654Y6146890D01*
X80472458Y5910694D01*
X80529430Y6197109D01*
X80529430Y7010891D01*
X80412552Y7598475D01*
X80079713Y8096604D01*
X79581584Y8429443D01*
X79319039Y8481666D01*
X79375000Y8763000D01*
X79375000Y10265468D01*
X79934155Y10033287D01*
X80590963Y10032714D01*
X81197995Y10283534D01*
X81597790Y10682632D01*
X81994563Y10285166D01*
X82601155Y10033287D01*
X83257963Y10032714D01*
X83864995Y10283534D01*
X84329834Y10747563D01*
X84581713Y11354155D01*
X84582286Y12010963D01*
X84331466Y12617995D01*
X83867437Y13082834D01*
X83820000Y13102532D01*
X83820000Y13855764D01*
X83934236Y13970000D01*
X87226942Y13970000D01*
X87245534Y13925005D01*
X87709563Y13460166D01*
X88316155Y13208287D01*
X88972963Y13207714D01*
X89579995Y13458534D01*
X90044834Y13922563D01*
X90296713Y14529155D01*
X90297286Y15185963D01*
X90046466Y15792995D01*
X89582437Y16257834D01*
X88975845Y16509713D01*
X88319037Y16510286D01*
X87712005Y16259466D01*
X87247166Y15795437D01*
X87227468Y15748000D01*
X83566000Y15748000D01*
X83225795Y15680330D01*
X82937382Y15487618D01*
X82302382Y14852618D01*
X82109671Y14564206D01*
X82042000Y14224000D01*
X82042000Y13103058D01*
X81997005Y13084466D01*
X81597210Y12685368D01*
X81200437Y13082834D01*
X80593845Y13334713D01*
X79937037Y13335286D01*
X79375000Y13103058D01*
X79375000Y17885468D01*
X79934155Y17653287D01*
X80590963Y17652714D01*
X81197995Y17903534D01*
X81597790Y18302632D01*
X81994563Y17905166D01*
X82601155Y17653287D01*
X83257963Y17652714D01*
X83864995Y17903534D01*
X84329834Y18367563D01*
X84581713Y18974155D01*
X84582286Y19630963D01*
X84331466Y20237995D01*
X83867437Y20702834D01*
X83820000Y20722532D01*
X83820000Y22671372D01*
X84018411Y22753353D01*
X84433190Y23167409D01*
X84657944Y23708677D01*
X84658455Y24294752D01*
X84434647Y24836411D01*
X84074000Y25197688D01*
X84074000Y32004000D01*
X84006329Y32344206D01*
X83813618Y32632618D01*
X82406637Y34039599D01*
X82556717Y34067838D01*
X82772841Y34206910D01*
X82772846Y34206918D01*
X85598000Y31381764D01*
X85598000Y24384000D01*
X85665671Y24043794D01*
X85807852Y23831005D01*
X85858382Y23755382D01*
X86995121Y22618643D01*
X86994714Y22152037D01*
X87245534Y21545005D01*
X87709563Y21080166D01*
X88316155Y20828287D01*
X88972963Y20827714D01*
X89579995Y21078534D01*
X90044834Y21542563D01*
X90296713Y22149155D01*
X90297286Y22805963D01*
X90046466Y23412995D01*
X89582437Y23877834D01*
X88975845Y24129713D01*
X88319037Y24130286D01*
X88091830Y24036406D01*
X87376000Y24752236D01*
X87376000Y25552550D01*
X87637529Y25290564D01*
X88290782Y25019309D01*
X88998114Y25018692D01*
X89651840Y25288806D01*
X90152436Y25788529D01*
X90423691Y26441782D01*
X90424308Y27149114D01*
X90154194Y27802840D01*
X89890472Y28067022D01*
X90152436Y28328529D01*
X90423691Y28981782D01*
X90424308Y29689114D01*
X90154194Y30342840D01*
X89890472Y30607022D01*
X90152436Y30868529D01*
X90423691Y31521782D01*
X90424308Y32229114D01*
X90154194Y32882840D01*
X89890472Y33147022D01*
X90152436Y33408529D01*
X90423691Y34061782D01*
X90424308Y34769114D01*
X90154194Y35422840D01*
X89654471Y35923436D01*
X89390241Y36033154D01*
X88646000Y36777395D01*
X88631858Y36763252D01*
X88452253Y36942857D01*
X88466395Y36957000D01*
X88825605Y36957000D01*
X89901963Y35880642D01*
X90183658Y35996806D01*
X90434062Y36658333D01*
X90412249Y37365329D01*
X90183658Y37917194D01*
X89901963Y38033358D01*
X88825605Y36957000D01*
X88466395Y36957000D01*
X87390037Y38033358D01*
X87108342Y37917194D01*
X86857938Y37255667D01*
X86879661Y36551575D01*
X86487000Y36944236D01*
X86487000Y41684886D01*
X86867692Y41684886D01*
X87137806Y41031160D01*
X87401528Y40766978D01*
X87139564Y40505471D01*
X86868309Y39852218D01*
X86867692Y39144886D01*
X87137806Y38491160D01*
X87637529Y37990564D01*
X87901759Y37880846D01*
X88646000Y37136605D01*
X89390019Y37880624D01*
X89651840Y37988806D01*
X90152436Y38488529D01*
X90423691Y39141782D01*
X90424308Y39849114D01*
X90154194Y40502840D01*
X89890472Y40767022D01*
X90152436Y41028529D01*
X90423691Y41681782D01*
X90424308Y42389114D01*
X90195616Y42942590D01*
X90327327Y43074302D01*
X90424000Y43307691D01*
X90424000Y44291250D01*
X90265250Y44450000D01*
X88773000Y44450000D01*
X88773000Y44430000D01*
X88519000Y44430000D01*
X88519000Y44450000D01*
X87026750Y44450000D01*
X86868000Y44291250D01*
X86868000Y43307691D01*
X86964673Y43074302D01*
X87096709Y42942265D01*
X86868309Y42392218D01*
X86867692Y41684886D01*
X86487000Y41684886D01*
X86487000Y42796137D01*
X86512622Y42821714D01*
X86677313Y43218332D01*
X86677687Y43647784D01*
X86513689Y44044689D01*
X86210286Y44348622D01*
X85813668Y44513313D01*
X85384216Y44513687D01*
X84987311Y44349689D01*
X84683378Y44046286D01*
X84654108Y43975796D01*
X84617622Y44063880D01*
X84349107Y44164502D01*
X83364605Y43180000D01*
X84349107Y42195498D01*
X84617622Y42296120D01*
X84709000Y42541524D01*
X84709000Y41303274D01*
X84617622Y41523880D01*
X84349107Y41624502D01*
X83364605Y40640000D01*
X84349107Y39655498D01*
X84617622Y39756120D01*
X84709000Y40001524D01*
X84709000Y36576000D01*
X84776671Y36235794D01*
X84884523Y36074382D01*
X84969382Y35947382D01*
X86878827Y34037937D01*
X87137806Y33411160D01*
X87401528Y33146978D01*
X87139564Y32885471D01*
X87089955Y32766000D01*
X86728236Y32766000D01*
X84201000Y35293236D01*
X84201000Y37335137D01*
X84226622Y37360714D01*
X84391313Y37757332D01*
X84391687Y38186784D01*
X84227689Y38583689D01*
X83924286Y38887622D01*
X83610991Y39017714D01*
X84068880Y39207378D01*
X84169502Y39475893D01*
X83185000Y40460395D01*
X82200498Y39475893D01*
X82301120Y39207378D01*
X82916642Y38978184D01*
X82918027Y38978234D01*
X82701311Y38888689D01*
X82397378Y38585286D01*
X82232687Y38188668D01*
X82232313Y37759216D01*
X82296265Y37604440D01*
X81381796Y37604440D01*
X80518000Y38468236D01*
X80518000Y40908358D01*
X81523184Y40908358D01*
X81546986Y40251981D01*
X81752378Y39756120D01*
X82020893Y39655498D01*
X83005395Y40640000D01*
X82020893Y41624502D01*
X81752378Y41523880D01*
X81523184Y40908358D01*
X80518000Y40908358D01*
X80518000Y42015893D01*
X82200498Y42015893D01*
X82240180Y41910000D01*
X82200498Y41804107D01*
X83185000Y40819605D01*
X84169502Y41804107D01*
X84129820Y41910000D01*
X84169502Y42015893D01*
X83185000Y43000395D01*
X82200498Y42015893D01*
X80518000Y42015893D01*
X80518000Y43448358D01*
X81523184Y43448358D01*
X81546986Y42791981D01*
X81752378Y42296120D01*
X82020893Y42195498D01*
X83005395Y43180000D01*
X82020893Y44164502D01*
X81752378Y44063880D01*
X81523184Y43448358D01*
X80518000Y43448358D01*
X80518000Y44554942D01*
X80562995Y44573534D01*
X81027834Y45037563D01*
X81279713Y45644155D01*
X81280286Y46300963D01*
X81029466Y46907995D01*
X80565437Y47372834D01*
X80518000Y47392532D01*
X80518000Y48145764D01*
X81032382Y47631382D01*
X81320794Y47438671D01*
X81661000Y47371000D01*
X81765942Y47371000D01*
X81784534Y47326005D01*
X82120132Y46989821D01*
X81786166Y46656437D01*
X81534287Y46049845D01*
X81533714Y45393037D01*
X81784534Y44786005D01*
X82207366Y44362435D01*
X82200498Y44344107D01*
X83185000Y43359605D01*
X84169502Y44344107D01*
X84162453Y44362917D01*
X84583834Y44783563D01*
X84835713Y45390155D01*
X84836286Y46046963D01*
X84585466Y46653995D01*
X84249868Y46990179D01*
X84583834Y47323563D01*
X84835713Y47930155D01*
X84836286Y48586963D01*
X84585466Y49193995D01*
X84249868Y49530179D01*
X84583834Y49863563D01*
X84835713Y50470155D01*
X84836286Y51126963D01*
X84585466Y51733995D01*
X84518635Y51800942D01*
X84635931Y51876420D01*
X84780921Y52088620D01*
X84831930Y52340510D01*
X84831930Y54339490D01*
X84827939Y54360703D01*
X86093236Y55626000D01*
X86914650Y55626000D01*
X86918398Y55616928D01*
X87364579Y55169968D01*
X87947841Y54927776D01*
X88579388Y54927225D01*
X89163072Y55168398D01*
X89610032Y55614579D01*
X89852224Y56197841D01*
X89852775Y56829388D01*
X89611602Y57413072D01*
X89165421Y57860032D01*
X88582159Y58102224D01*
X87950612Y58102775D01*
X87366928Y57861602D01*
X86919968Y57415421D01*
X86915226Y57404000D01*
X85725000Y57404000D01*
X85384794Y57336329D01*
X85096382Y57143618D01*
X84772767Y56820003D01*
X84772775Y56829388D01*
X84531602Y57413072D01*
X84085421Y57860032D01*
X83502159Y58102224D01*
X82870612Y58102775D01*
X82286928Y57861602D01*
X81839968Y57415421D01*
X81597776Y56832159D01*
X81597225Y56200612D01*
X81601947Y56189183D01*
X80905382Y55492618D01*
X80712671Y55204206D01*
X80645000Y54864000D01*
X80645000Y52692236D01*
X80011451Y53325785D01*
X80079713Y53371396D01*
X80412552Y53869525D01*
X80529430Y54457109D01*
X80529430Y55270891D01*
X80412552Y55858475D01*
X80079713Y56356604D01*
X79581584Y56689443D01*
X78994000Y56806321D01*
X78406416Y56689443D01*
X77908287Y56356604D01*
X77724000Y56080799D01*
X77539713Y56356604D01*
X77041584Y56689443D01*
X76454000Y56806321D01*
X75866416Y56689443D01*
X75368287Y56356604D01*
X75184000Y56080799D01*
X74999713Y56356604D01*
X74501584Y56689443D01*
X73914000Y56806321D01*
X73326416Y56689443D01*
X72828287Y56356604D01*
X72644000Y56080799D01*
X72459713Y56356604D01*
X71961584Y56689443D01*
X71374000Y56806321D01*
X70786416Y56689443D01*
X70288287Y56356604D01*
X70104000Y56080799D01*
X69919713Y56356604D01*
X69421584Y56689443D01*
X68834000Y56806321D01*
X68246416Y56689443D01*
X67748287Y56356604D01*
X67564000Y56080799D01*
X67379713Y56356604D01*
X66881584Y56689443D01*
X66294000Y56806321D01*
X65722578Y56692658D01*
X64636618Y57778618D01*
X64348206Y57971329D01*
X64008000Y58039000D01*
X22225000Y58039000D01*
X21884794Y57971329D01*
X21596382Y57778618D01*
X20586764Y56769000D01*
X17929058Y56769000D01*
X17910466Y56813995D01*
X17446437Y57278834D01*
X16839845Y57530713D01*
X16183037Y57531286D01*
X15576005Y57280466D01*
X15111166Y56816437D01*
X14859287Y56209845D01*
X14858714Y55553037D01*
X15109534Y54946005D01*
X15573563Y54481166D01*
X16028291Y54292346D01*
X15576005Y54105466D01*
X15111166Y53641437D01*
X14859287Y53034845D01*
X14858714Y52378037D01*
X14878329Y52330565D01*
X13722382Y51174618D01*
X13529671Y50886206D01*
X13462000Y50546000D01*
X13462000Y45479879D01*
X13336231Y45395843D01*
X13025140Y44930263D01*
X12915900Y44381074D01*
X9707653Y44381074D01*
X9320956Y44872602D01*
X8763159Y45185713D01*
X8635354Y45216659D01*
X8382000Y45097305D01*
X8128000Y45097305D01*
X7874646Y45216659D01*
X7746841Y45185713D01*
X7189044Y44872602D01*
X6793529Y44369865D01*
X6620510Y43754040D01*
X2095500Y43754040D01*
X2095500Y51660903D01*
X3595023Y51660903D01*
X3621611Y51075431D01*
X3794510Y50658017D01*
X4044587Y50579192D01*
X4900395Y51435000D01*
X5259605Y51435000D01*
X6115413Y50579192D01*
X6365490Y50658017D01*
X6564977Y51209097D01*
X6538389Y51794569D01*
X6365490Y52211983D01*
X6115413Y52290808D01*
X5259605Y51435000D01*
X4900395Y51435000D01*
X4044587Y52290808D01*
X3794510Y52211983D01*
X3595023Y51660903D01*
X2095500Y51660903D01*
X2095500Y52939587D01*
X4224192Y52939587D01*
X4298135Y52705000D01*
X4224192Y52470413D01*
X5080000Y51614605D01*
X5935808Y52470413D01*
X5861865Y52705000D01*
X5935808Y52939587D01*
X5080000Y53795395D01*
X4224192Y52939587D01*
X2095500Y52939587D01*
X2095500Y54200903D01*
X3595023Y54200903D01*
X3621611Y53615431D01*
X3794510Y53198017D01*
X4044587Y53119192D01*
X4900395Y53975000D01*
X5259605Y53975000D01*
X6115413Y53119192D01*
X6365490Y53198017D01*
X6564977Y53749097D01*
X6538389Y54334569D01*
X6365490Y54751983D01*
X6115413Y54830808D01*
X5259605Y53975000D01*
X4900395Y53975000D01*
X4044587Y54830808D01*
X3794510Y54751983D01*
X3595023Y54200903D01*
X2095500Y54200903D01*
X2095500Y56223248D01*
X3606545Y56223248D01*
X3830353Y55681589D01*
X4244409Y55266810D01*
X4297995Y55244559D01*
X4224192Y55010413D01*
X5080000Y54154605D01*
X5935808Y55010413D01*
X5862129Y55244164D01*
X5913411Y55265353D01*
X6274688Y55626000D01*
X7238778Y55626000D01*
X7238714Y55553037D01*
X7489534Y54946005D01*
X7953563Y54481166D01*
X8408291Y54292346D01*
X7956005Y54105466D01*
X7491166Y53641437D01*
X7239287Y53034845D01*
X7238714Y52378037D01*
X7489534Y51771005D01*
X7953563Y51306166D01*
X8001000Y51286468D01*
X8001000Y51168236D01*
X6616764Y49784000D01*
X6274155Y49784000D01*
X5915591Y50143190D01*
X5862005Y50165441D01*
X5935808Y50399587D01*
X5080000Y51255395D01*
X4224192Y50399587D01*
X4297871Y50165836D01*
X4246589Y50144647D01*
X3831810Y49730591D01*
X3607056Y49189323D01*
X3606545Y48603248D01*
X3830353Y48061589D01*
X4244409Y47646810D01*
X4785677Y47422056D01*
X5371752Y47421545D01*
X5913411Y47645353D01*
X6274688Y48006000D01*
X6985000Y48006000D01*
X7325206Y48073671D01*
X7613618Y48266382D01*
X9518618Y50171382D01*
X9571954Y50251205D01*
X9711329Y50459794D01*
X9779000Y50800000D01*
X9779000Y51285942D01*
X9823995Y51304534D01*
X10288834Y51768563D01*
X10540713Y52375155D01*
X10541286Y53031963D01*
X10290466Y53638995D01*
X9826437Y54103834D01*
X9371709Y54292654D01*
X9823995Y54479534D01*
X10288834Y54943563D01*
X10540713Y55550155D01*
X10541286Y56206963D01*
X10290466Y56813995D01*
X9826437Y57278834D01*
X9219845Y57530713D01*
X8563037Y57531286D01*
X8254981Y57404000D01*
X6274155Y57404000D01*
X5915591Y57763190D01*
X5374323Y57987944D01*
X4788248Y57988455D01*
X4246589Y57764647D01*
X3831810Y57350591D01*
X3607056Y56809323D01*
X3606545Y56223248D01*
X2095500Y56223248D01*
X2095500Y58229500D01*
X93154500Y58229500D01*
X93154500Y51817837D01*
G36*
X37951448Y55858475D02*
X37834570Y55270891D01*
X37834570Y54457109D01*
X37951448Y53869525D01*
X38284287Y53371396D01*
X38782416Y53038557D01*
X39370000Y52921679D01*
X39957584Y53038557D01*
X40455713Y53371396D01*
X40646011Y53656197D01*
X40914089Y53318915D01*
X41439748Y53027277D01*
X41545192Y53002967D01*
X41783000Y53123620D01*
X41783000Y54737000D01*
X41763000Y54737000D01*
X41763000Y54991000D01*
X41783000Y54991000D01*
X41783000Y55011000D01*
X42037000Y55011000D01*
X42037000Y54991000D01*
X42057000Y54991000D01*
X42057000Y54737000D01*
X42037000Y54737000D01*
X42037000Y53123620D01*
X42274808Y53002967D01*
X42380252Y53027277D01*
X42905911Y53318915D01*
X43173989Y53656197D01*
X43364287Y53371396D01*
X43862416Y53038557D01*
X44450000Y52921679D01*
X45021422Y53035342D01*
X46228000Y51828764D01*
X46228000Y42151236D01*
X43788534Y39711770D01*
X44068668Y40386410D01*
X44069330Y41144265D01*
X43779922Y41844686D01*
X43244505Y42381039D01*
X43053000Y42460559D01*
X43053000Y46005576D01*
X43103191Y46026314D01*
X43633822Y46556021D01*
X43921352Y47248469D01*
X43922006Y47998241D01*
X43635686Y48691191D01*
X43105979Y49221822D01*
X42413531Y49509352D01*
X41663759Y49510006D01*
X40970809Y49223686D01*
X40440178Y48693979D01*
X40152648Y48001531D01*
X40151994Y47251759D01*
X40438314Y46558809D01*
X40968021Y46028178D01*
X41275000Y45900709D01*
X41275000Y42460885D01*
X41086314Y42382922D01*
X40549961Y41847505D01*
X40449612Y41605837D01*
X40350922Y41844686D01*
X39815505Y42381039D01*
X39115590Y42671668D01*
X38357735Y42672330D01*
X37657314Y42382922D01*
X37120961Y41847505D01*
X36830332Y41147590D01*
X36829670Y40389735D01*
X37119078Y39689314D01*
X37654495Y39152961D01*
X38354410Y38862332D01*
X38366443Y38862321D01*
X41275000Y35953764D01*
X41275000Y34840885D01*
X41086314Y34762922D01*
X40549961Y34227505D01*
X40449612Y33985837D01*
X40350922Y34224686D01*
X39815505Y34761039D01*
X39115590Y35051668D01*
X38357735Y35052330D01*
X38166091Y34973145D01*
X29584618Y43554618D01*
X29564562Y43568019D01*
X29296206Y43747329D01*
X28956000Y43815000D01*
X15786100Y43815000D01*
X15786100Y44381074D01*
X15676860Y44930263D01*
X15365769Y45395843D01*
X15240000Y45479879D01*
X15240000Y47339250D01*
X20086320Y47339250D01*
X20086320Y46249010D01*
X20182993Y46015621D01*
X20361622Y45836993D01*
X20595011Y45740320D01*
X21685250Y45740320D01*
X21844000Y45899070D01*
X21844000Y47498000D01*
X22098000Y47498000D01*
X22098000Y45899070D01*
X22256750Y45740320D01*
X23346989Y45740320D01*
X23580378Y45836993D01*
X23759007Y46015621D01*
X23855680Y46249010D01*
X23855680Y47339250D01*
X23696930Y47498000D01*
X22098000Y47498000D01*
X21844000Y47498000D01*
X20245070Y47498000D01*
X20086320Y47339250D01*
X15240000Y47339250D01*
X15240000Y49000990D01*
X20086320Y49000990D01*
X20086320Y47910750D01*
X20245070Y47752000D01*
X21844000Y47752000D01*
X21844000Y49350930D01*
X22098000Y49350930D01*
X22098000Y47752000D01*
X23696930Y47752000D01*
X23855680Y47910750D01*
X23855680Y49000990D01*
X23759007Y49234379D01*
X23580378Y49413007D01*
X23346989Y49509680D01*
X22256750Y49509680D01*
X22098000Y49350930D01*
X21844000Y49350930D01*
X21685250Y49509680D01*
X20595011Y49509680D01*
X20361622Y49413007D01*
X20182993Y49234379D01*
X20086320Y49000990D01*
X15240000Y49000990D01*
X15240000Y50177764D01*
X16135193Y51072957D01*
X16180155Y51054287D01*
X16836963Y51053714D01*
X17443995Y51304534D01*
X17908834Y51768563D01*
X18160713Y52375155D01*
X18161286Y53031963D01*
X17910466Y53638995D01*
X17446437Y54103834D01*
X16991709Y54292654D01*
X17443995Y54479534D01*
X17908834Y54943563D01*
X17928532Y54991000D01*
X20955000Y54991000D01*
X21295206Y55058671D01*
X21583618Y55251382D01*
X22593236Y56261000D01*
X38220406Y56261000D01*
X37951448Y55858475D01*
X37951448Y55858475D01*
G37*
X37951448Y55858475D02*
X37834570Y55270891D01*
X37834570Y54457109D01*
X37951448Y53869525D01*
X38284287Y53371396D01*
X38782416Y53038557D01*
X39370000Y52921679D01*
X39957584Y53038557D01*
X40455713Y53371396D01*
X40646011Y53656197D01*
X40914089Y53318915D01*
X41439748Y53027277D01*
X41545192Y53002967D01*
X41783000Y53123620D01*
X41783000Y54737000D01*
X41763000Y54737000D01*
X41763000Y54991000D01*
X41783000Y54991000D01*
X41783000Y55011000D01*
X42037000Y55011000D01*
X42037000Y54991000D01*
X42057000Y54991000D01*
X42057000Y54737000D01*
X42037000Y54737000D01*
X42037000Y53123620D01*
X42274808Y53002967D01*
X42380252Y53027277D01*
X42905911Y53318915D01*
X43173989Y53656197D01*
X43364287Y53371396D01*
X43862416Y53038557D01*
X44450000Y52921679D01*
X45021422Y53035342D01*
X46228000Y51828764D01*
X46228000Y42151236D01*
X43788534Y39711770D01*
X44068668Y40386410D01*
X44069330Y41144265D01*
X43779922Y41844686D01*
X43244505Y42381039D01*
X43053000Y42460559D01*
X43053000Y46005576D01*
X43103191Y46026314D01*
X43633822Y46556021D01*
X43921352Y47248469D01*
X43922006Y47998241D01*
X43635686Y48691191D01*
X43105979Y49221822D01*
X42413531Y49509352D01*
X41663759Y49510006D01*
X40970809Y49223686D01*
X40440178Y48693979D01*
X40152648Y48001531D01*
X40151994Y47251759D01*
X40438314Y46558809D01*
X40968021Y46028178D01*
X41275000Y45900709D01*
X41275000Y42460885D01*
X41086314Y42382922D01*
X40549961Y41847505D01*
X40449612Y41605837D01*
X40350922Y41844686D01*
X39815505Y42381039D01*
X39115590Y42671668D01*
X38357735Y42672330D01*
X37657314Y42382922D01*
X37120961Y41847505D01*
X36830332Y41147590D01*
X36829670Y40389735D01*
X37119078Y39689314D01*
X37654495Y39152961D01*
X38354410Y38862332D01*
X38366443Y38862321D01*
X41275000Y35953764D01*
X41275000Y34840885D01*
X41086314Y34762922D01*
X40549961Y34227505D01*
X40449612Y33985837D01*
X40350922Y34224686D01*
X39815505Y34761039D01*
X39115590Y35051668D01*
X38357735Y35052330D01*
X38166091Y34973145D01*
X29584618Y43554618D01*
X29564562Y43568019D01*
X29296206Y43747329D01*
X28956000Y43815000D01*
X15786100Y43815000D01*
X15786100Y44381074D01*
X15676860Y44930263D01*
X15365769Y45395843D01*
X15240000Y45479879D01*
X15240000Y47339250D01*
X20086320Y47339250D01*
X20086320Y46249010D01*
X20182993Y46015621D01*
X20361622Y45836993D01*
X20595011Y45740320D01*
X21685250Y45740320D01*
X21844000Y45899070D01*
X21844000Y47498000D01*
X22098000Y47498000D01*
X22098000Y45899070D01*
X22256750Y45740320D01*
X23346989Y45740320D01*
X23580378Y45836993D01*
X23759007Y46015621D01*
X23855680Y46249010D01*
X23855680Y47339250D01*
X23696930Y47498000D01*
X22098000Y47498000D01*
X21844000Y47498000D01*
X20245070Y47498000D01*
X20086320Y47339250D01*
X15240000Y47339250D01*
X15240000Y49000990D01*
X20086320Y49000990D01*
X20086320Y47910750D01*
X20245070Y47752000D01*
X21844000Y47752000D01*
X21844000Y49350930D01*
X22098000Y49350930D01*
X22098000Y47752000D01*
X23696930Y47752000D01*
X23855680Y47910750D01*
X23855680Y49000990D01*
X23759007Y49234379D01*
X23580378Y49413007D01*
X23346989Y49509680D01*
X22256750Y49509680D01*
X22098000Y49350930D01*
X21844000Y49350930D01*
X21685250Y49509680D01*
X20595011Y49509680D01*
X20361622Y49413007D01*
X20182993Y49234379D01*
X20086320Y49000990D01*
X15240000Y49000990D01*
X15240000Y50177764D01*
X16135193Y51072957D01*
X16180155Y51054287D01*
X16836963Y51053714D01*
X17443995Y51304534D01*
X17908834Y51768563D01*
X18160713Y52375155D01*
X18161286Y53031963D01*
X17910466Y53638995D01*
X17446437Y54103834D01*
X16991709Y54292654D01*
X17443995Y54479534D01*
X17908834Y54943563D01*
X17928532Y54991000D01*
X20955000Y54991000D01*
X21295206Y55058671D01*
X21583618Y55251382D01*
X22593236Y56261000D01*
X38220406Y56261000D01*
X37951448Y55858475D01*
M02*
