M48
;DRILL file {KiCad 4.0.5} date 12/30/18 13:58:47
;FORMAT={-:-/ absolute / inch / decimal}
FMAT,2
INCH,TZ
T1C0.025
T2C0.030
T3C0.032
T4C0.032
T5C0.039
T6C0.040
T7C0.047
T8C0.063
T9C0.118
%
G90
G05
M72
T1
X1.15Y0.845
X1.395Y1.08
X1.4Y1.15
X1.5Y1.15
X1.85Y0.82
X1.865Y0.97
X1.93Y1.01
X1.945Y1.22
X2.085Y0.895
X2.355Y1.185
X2.385Y1.325
X2.415Y0.81
X2.46Y1.19
X2.64Y0.935
X2.72Y0.82
X2.84Y0.705
X2.92Y0.79
X2.935Y1.64
X3.055Y0.755
X3.22Y1.95
X3.22Y0.235
X3.28Y1.495
X3.37Y1.71
T2
X0.785Y0.355
T3
X0.35Y2.2
X0.35Y2.075
X0.65Y2.2
X0.65Y2.075
X1.425Y0.975
X1.425Y0.875
X1.425Y0.775
X1.425Y0.675
X1.425Y0.575
X1.425Y0.475
X1.425Y0.375
X1.425Y0.275
X1.525Y1.605
X1.525Y1.305
X1.66Y1.605
X1.66Y1.305
X1.725Y0.975
X1.725Y0.875
X1.725Y0.775
X1.725Y0.675
X1.725Y0.575
X1.725Y0.475
X1.725Y0.375
X1.725Y0.275
X1.89Y0.68
X1.89Y0.58
X2.Y0.44
X2.1Y0.54
X2.1Y0.44
X2.21Y1.54
X2.28Y1.69
X2.31Y1.54
X2.34Y0.54
X2.34Y0.44
X2.44Y1.54
X2.535Y0.9
X2.535Y0.8
X2.54Y1.54
X2.705Y2.02
X2.705Y1.82
X2.715Y1.615
X2.73Y0.43
X2.81Y1.01
X2.815Y1.615
X2.835Y1.81
X3.11Y1.01
X3.135Y1.81
X3.16Y0.76
X3.16Y0.46
X3.265Y0.76
X3.265Y0.46
X3.275Y2.225
X3.475Y2.225
X3.49Y1.755
X3.49Y1.655
X3.49Y1.555
X3.49Y1.455
X3.49Y1.355
X3.49Y1.255
X3.49Y1.155
X3.49Y1.055
X3.49Y0.885
X3.49Y0.585
T4
X0.2Y2.225
X0.2Y2.125
X0.2Y2.025
X0.2Y1.925
X1.91Y1.41
X1.91Y1.11
X2.01Y1.41
X2.01Y1.11
X2.11Y1.41
X2.11Y1.11
X2.21Y1.41
X2.21Y1.11
X2.31Y1.41
X2.31Y1.11
X2.41Y1.41
X2.41Y1.11
X2.48Y1.69
X2.51Y1.41
X2.51Y1.11
X2.61Y1.41
X2.61Y1.11
X2.71Y1.41
X2.71Y1.11
X2.74Y0.9
X2.74Y0.6
X2.81Y1.41
X2.81Y1.11
X2.84Y0.9
X2.84Y0.6
X2.85Y0.43
X2.91Y1.41
X2.91Y1.11
X2.94Y0.9
X2.94Y0.6
X3.01Y1.41
X3.01Y1.11
X3.04Y0.9
X3.04Y0.6
X3.11Y1.41
X3.11Y1.11
X3.175Y0.945
X3.21Y1.41
X3.21Y1.11
X3.275Y2.1
X3.275Y2.
X3.275Y1.9
X3.275Y1.8
X3.275Y1.7
X3.275Y1.6
X3.275Y0.945
T5
X0.865Y1.875
X1.16Y1.275
X1.655Y1.875
X2.115Y0.835
X2.115Y0.735
X2.215Y0.835
X2.215Y0.735
X2.315Y0.835
X2.315Y0.735
T6
X1.55Y2.16
X1.65Y2.16
X1.75Y2.16
X1.85Y2.16
X1.91Y0.26
X1.95Y2.16
X2.01Y0.26
X2.05Y2.16
X2.11Y0.26
X2.15Y2.16
X2.21Y0.26
X2.25Y2.16
X2.31Y0.26
X2.41Y2.16
X2.41Y0.26
X2.51Y2.16
X2.61Y2.16
X2.61Y0.26
X2.71Y2.16
X2.71Y0.26
X2.81Y2.16
X2.81Y0.26
X2.91Y2.16
X2.91Y0.26
X3.01Y2.16
X3.01Y0.26
X3.11Y2.16
X3.11Y0.26
T7
X2.555Y0.655
X2.555Y0.415
X2.87Y1.975
X3.12Y1.975
T8
X1.16Y0.445
T9
X0.725Y1.475
X3.525Y1.975
X3.525Y0.25
T3
X0.325Y1.7254G85X0.325Y1.6545
G05
X0.4704Y1.515G85X0.3996Y1.515
G05
X0.565Y1.7341G85X0.565Y1.6459
G05
T0
M30
