G04 #@! TF.FileFunction,Legend,Top*
%FSLAX46Y46*%
G04 Gerber Fmt 4.6, Leading zero omitted, Abs format (unit mm)*
G04 Created by KiCad (PCBNEW 4.0.5) date 12/30/18 13:58:42*
%MOMM*%
%LPD*%
G01*
G04 APERTURE LIST*
%ADD10C,0.150000*%
%ADD11C,0.304800*%
%ADD12C,0.381000*%
%ADD13C,0.254000*%
%ADD14C,0.152400*%
%ADD15C,0.127000*%
%ADD16C,0.002540*%
%ADD17C,0.200000*%
%ADD18C,0.271780*%
%ADD19C,0.203200*%
%ADD20C,0.088900*%
%ADD21C,0.285750*%
%ADD22C,0.287020*%
%ADD23C,0.175000*%
G04 APERTURE END LIST*
D10*
D11*
X52777571Y47721762D02*
X51906714Y47721762D01*
X52342142Y47721762D02*
X52342142Y49753762D01*
X52196999Y49463476D01*
X52051857Y49269952D01*
X51906714Y49173190D01*
X54229000Y47721762D02*
X53358143Y47721762D01*
X53793571Y47721762D02*
X53793571Y49753762D01*
X53648428Y49463476D01*
X53503286Y49269952D01*
X53358143Y49173190D01*
X55970715Y49850524D02*
X54664429Y47237952D01*
X56333571Y49753762D02*
X57277000Y49753762D01*
X56769000Y48979667D01*
X56986714Y48979667D01*
X57131857Y48882905D01*
X57204428Y48786143D01*
X57277000Y48592619D01*
X57277000Y48108810D01*
X57204428Y47915286D01*
X57131857Y47818524D01*
X56986714Y47721762D01*
X56551286Y47721762D01*
X56406143Y47818524D01*
X56333571Y47915286D01*
X59018715Y49850524D02*
X57712429Y47237952D01*
X59454143Y49560238D02*
X59526714Y49657000D01*
X59671857Y49753762D01*
X60034714Y49753762D01*
X60179857Y49657000D01*
X60252428Y49560238D01*
X60325000Y49366714D01*
X60325000Y49173190D01*
X60252428Y48882905D01*
X59381571Y47721762D01*
X60325000Y47721762D01*
X61268429Y49753762D02*
X61413572Y49753762D01*
X61558715Y49657000D01*
X61631286Y49560238D01*
X61703857Y49366714D01*
X61776429Y48979667D01*
X61776429Y48495857D01*
X61703857Y48108810D01*
X61631286Y47915286D01*
X61558715Y47818524D01*
X61413572Y47721762D01*
X61268429Y47721762D01*
X61123286Y47818524D01*
X61050715Y47915286D01*
X60978143Y48108810D01*
X60905572Y48495857D01*
X60905572Y48979667D01*
X60978143Y49366714D01*
X61050715Y49560238D01*
X61123286Y49657000D01*
X61268429Y49753762D01*
X63227858Y47721762D02*
X62357001Y47721762D01*
X62792429Y47721762D02*
X62792429Y49753762D01*
X62647286Y49463476D01*
X62502144Y49269952D01*
X62357001Y49173190D01*
X63735858Y49753762D02*
X64679287Y49753762D01*
X64171287Y48979667D01*
X64389001Y48979667D01*
X64534144Y48882905D01*
X64606715Y48786143D01*
X64679287Y48592619D01*
X64679287Y48108810D01*
X64606715Y47915286D01*
X64534144Y47818524D01*
X64389001Y47721762D01*
X63953573Y47721762D01*
X63808430Y47818524D01*
X63735858Y47915286D01*
X92994238Y16473715D02*
X91639571Y16473715D01*
X92026619Y16473715D02*
X91833095Y16546287D01*
X91736333Y16618858D01*
X91639571Y16764001D01*
X91639571Y16909144D01*
X92897476Y17997716D02*
X92994238Y17852573D01*
X92994238Y17562287D01*
X92897476Y17417144D01*
X92703952Y17344573D01*
X91929857Y17344573D01*
X91736333Y17417144D01*
X91639571Y17562287D01*
X91639571Y17852573D01*
X91736333Y17997716D01*
X91929857Y18070287D01*
X92123381Y18070287D01*
X92316905Y17344573D01*
X92220143Y18723430D02*
X92220143Y19884573D01*
X92994238Y20610287D02*
X91639571Y20610287D01*
X90962238Y20610287D02*
X91059000Y20537716D01*
X91155762Y20610287D01*
X91059000Y20682859D01*
X90962238Y20610287D01*
X91155762Y20610287D01*
X91639571Y21336001D02*
X92994238Y21336001D01*
X91833095Y21336001D02*
X91736333Y21408573D01*
X91639571Y21553715D01*
X91639571Y21771430D01*
X91736333Y21916573D01*
X91929857Y21989144D01*
X92994238Y21989144D01*
X91639571Y22714858D02*
X92994238Y22714858D01*
X91833095Y22714858D02*
X91736333Y22787430D01*
X91639571Y22932572D01*
X91639571Y23150287D01*
X91736333Y23295430D01*
X91929857Y23368001D01*
X92994238Y23368001D01*
X92994238Y24311429D02*
X92897476Y24166287D01*
X92800714Y24093715D01*
X92607190Y24021144D01*
X92026619Y24021144D01*
X91833095Y24093715D01*
X91736333Y24166287D01*
X91639571Y24311429D01*
X91639571Y24529144D01*
X91736333Y24674287D01*
X91833095Y24746858D01*
X92026619Y24819429D01*
X92607190Y24819429D01*
X92800714Y24746858D01*
X92897476Y24674287D01*
X92994238Y24529144D01*
X92994238Y24311429D01*
X91639571Y25327429D02*
X92994238Y25690286D01*
X91639571Y26053144D01*
X92994238Y27286858D02*
X91929857Y27286858D01*
X91736333Y27214287D01*
X91639571Y27069144D01*
X91639571Y26778858D01*
X91736333Y26633715D01*
X92897476Y27286858D02*
X92994238Y27141715D01*
X92994238Y26778858D01*
X92897476Y26633715D01*
X92703952Y26561144D01*
X92510429Y26561144D01*
X92316905Y26633715D01*
X92220143Y26778858D01*
X92220143Y27141715D01*
X92123381Y27286858D01*
X91639571Y27794858D02*
X91639571Y28375429D01*
X90962238Y28012572D02*
X92703952Y28012572D01*
X92897476Y28085144D01*
X92994238Y28230286D01*
X92994238Y28375429D01*
X92994238Y28883429D02*
X91639571Y28883429D01*
X90962238Y28883429D02*
X91059000Y28810858D01*
X91155762Y28883429D01*
X91059000Y28956001D01*
X90962238Y28883429D01*
X91155762Y28883429D01*
X92994238Y29826857D02*
X92897476Y29681715D01*
X92800714Y29609143D01*
X92607190Y29536572D01*
X92026619Y29536572D01*
X91833095Y29609143D01*
X91736333Y29681715D01*
X91639571Y29826857D01*
X91639571Y30044572D01*
X91736333Y30189715D01*
X91833095Y30262286D01*
X92026619Y30334857D01*
X92607190Y30334857D01*
X92800714Y30262286D01*
X92897476Y30189715D01*
X92994238Y30044572D01*
X92994238Y29826857D01*
X91639571Y30988000D02*
X92994238Y30988000D01*
X91833095Y30988000D02*
X91736333Y31060572D01*
X91639571Y31205714D01*
X91639571Y31423429D01*
X91736333Y31568572D01*
X91929857Y31641143D01*
X92994238Y31641143D01*
X92800714Y32366857D02*
X92897476Y32439429D01*
X92994238Y32366857D01*
X92897476Y32294286D01*
X92800714Y32366857D01*
X92994238Y32366857D01*
X92897476Y33745714D02*
X92994238Y33600571D01*
X92994238Y33310285D01*
X92897476Y33165143D01*
X92800714Y33092571D01*
X92607190Y33020000D01*
X92026619Y33020000D01*
X91833095Y33092571D01*
X91736333Y33165143D01*
X91639571Y33310285D01*
X91639571Y33600571D01*
X91736333Y33745714D01*
X92994238Y34616571D02*
X92897476Y34471429D01*
X92800714Y34398857D01*
X92607190Y34326286D01*
X92026619Y34326286D01*
X91833095Y34398857D01*
X91736333Y34471429D01*
X91639571Y34616571D01*
X91639571Y34834286D01*
X91736333Y34979429D01*
X91833095Y35052000D01*
X92026619Y35124571D01*
X92607190Y35124571D01*
X92800714Y35052000D01*
X92897476Y34979429D01*
X92994238Y34834286D01*
X92994238Y34616571D01*
X92800714Y35777714D02*
X92897476Y35850286D01*
X92994238Y35777714D01*
X92897476Y35705143D01*
X92800714Y35777714D01*
X92994238Y35777714D01*
X91639571Y37156571D02*
X92994238Y37156571D01*
X91639571Y36503428D02*
X92703952Y36503428D01*
X92897476Y36576000D01*
X92994238Y36721142D01*
X92994238Y36938857D01*
X92897476Y37084000D01*
X92800714Y37156571D01*
X92994238Y37882285D02*
X90962238Y37882285D01*
X92220143Y38027428D02*
X92994238Y38462857D01*
X91639571Y38462857D02*
X92413667Y37882285D01*
X47371000Y51223333D02*
X48096714Y51223333D01*
X47225857Y50642762D02*
X47733857Y52674762D01*
X48241857Y50642762D01*
X48749857Y50642762D02*
X48749857Y51997429D01*
X48749857Y51610381D02*
X48822429Y51803905D01*
X48895000Y51900667D01*
X49040143Y51997429D01*
X49185286Y51997429D01*
X50346429Y50642762D02*
X50346429Y52674762D01*
X50346429Y50739524D02*
X50201286Y50642762D01*
X49911000Y50642762D01*
X49765858Y50739524D01*
X49693286Y50836286D01*
X49620715Y51029810D01*
X49620715Y51610381D01*
X49693286Y51803905D01*
X49765858Y51900667D01*
X49911000Y51997429D01*
X50201286Y51997429D01*
X50346429Y51900667D01*
X51725286Y51997429D02*
X51725286Y50642762D01*
X51072143Y51997429D02*
X51072143Y50933048D01*
X51144715Y50739524D01*
X51289857Y50642762D01*
X51507572Y50642762D01*
X51652715Y50739524D01*
X51725286Y50836286D01*
X52451000Y50642762D02*
X52451000Y51997429D01*
X52451000Y52674762D02*
X52378429Y52578000D01*
X52451000Y52481238D01*
X52523572Y52578000D01*
X52451000Y52674762D01*
X52451000Y52481238D01*
X53176714Y51997429D02*
X53176714Y50642762D01*
X53176714Y51803905D02*
X53249286Y51900667D01*
X53394428Y51997429D01*
X53612143Y51997429D01*
X53757286Y51900667D01*
X53829857Y51707143D01*
X53829857Y50642762D01*
X54773285Y50642762D02*
X54628143Y50739524D01*
X54555571Y50836286D01*
X54483000Y51029810D01*
X54483000Y51610381D01*
X54555571Y51803905D01*
X54628143Y51900667D01*
X54773285Y51997429D01*
X54991000Y51997429D01*
X55136143Y51900667D01*
X55208714Y51803905D01*
X55281285Y51610381D01*
X55281285Y51029810D01*
X55208714Y50836286D01*
X55136143Y50739524D01*
X54991000Y50642762D01*
X54773285Y50642762D01*
X57095571Y50642762D02*
X57095571Y52674762D01*
X57458428Y52674762D01*
X57676143Y52578000D01*
X57821285Y52384476D01*
X57893857Y52190952D01*
X57966428Y51803905D01*
X57966428Y51513619D01*
X57893857Y51126571D01*
X57821285Y50933048D01*
X57676143Y50739524D01*
X57458428Y50642762D01*
X57095571Y50642762D01*
X58547000Y51223333D02*
X59272714Y51223333D01*
X58401857Y50642762D02*
X58909857Y52674762D01*
X59417857Y50642762D01*
X60941857Y50449238D02*
X60796714Y50546000D01*
X60651571Y50739524D01*
X60433857Y51029810D01*
X60288714Y51126571D01*
X60143571Y51126571D01*
X60216143Y50642762D02*
X60071000Y50739524D01*
X59925857Y50933048D01*
X59853286Y51320095D01*
X59853286Y51997429D01*
X59925857Y52384476D01*
X60071000Y52578000D01*
X60216143Y52674762D01*
X60506429Y52674762D01*
X60651571Y52578000D01*
X60796714Y52384476D01*
X60869286Y51997429D01*
X60869286Y51320095D01*
X60796714Y50933048D01*
X60651571Y50739524D01*
X60506429Y50642762D01*
X60216143Y50642762D01*
X62538428Y51997429D02*
X62901285Y50642762D01*
X63264143Y51997429D01*
X63772143Y52481238D02*
X63844714Y52578000D01*
X63989857Y52674762D01*
X64352714Y52674762D01*
X64497857Y52578000D01*
X64570428Y52481238D01*
X64643000Y52287714D01*
X64643000Y52094190D01*
X64570428Y51803905D01*
X63699571Y50642762D01*
X64643000Y50642762D01*
D12*
X31496000Y33909000D02*
X1016000Y33909000D01*
X1016000Y33655000D02*
X1016000Y5715000D01*
X31496000Y5969000D02*
X31496000Y33909000D01*
X31496000Y5715000D02*
X1016000Y5715000D01*
D11*
X59893200Y37846000D02*
X54864000Y37846000D01*
X54864000Y37846000D02*
X54864000Y40386000D01*
X54864000Y40386000D02*
X59944000Y40386000D01*
X59944000Y40386000D02*
X59944000Y37846000D01*
X59944000Y38481000D02*
X59309000Y37846000D01*
D12*
X60071000Y17399000D02*
X52451000Y17399000D01*
X52451000Y17399000D02*
X52451000Y22479000D01*
X52451000Y22479000D02*
X60071000Y22479000D01*
X60071000Y22479000D02*
X60071000Y17399000D01*
D13*
X3810000Y53670200D02*
X6350000Y53670200D01*
D14*
X6055527Y56415864D02*
G75*
G03X5080000Y56769000I-975527J-1170864D01*
G01*
X5079531Y56767111D02*
G75*
G03X4069080Y56382920I469J-1522111D01*
G01*
X5080034Y53722853D02*
G75*
G03X6070600Y54089300I-34J1522147D01*
G01*
X4104473Y54074136D02*
G75*
G03X5080000Y53721000I975527J1170864D01*
G01*
X5967155Y54005834D02*
G75*
G03X6604000Y55245000I-887155J1239166D01*
G01*
X6604000Y55245801D02*
G75*
G03X5994400Y56464200I-1524000J-801D01*
G01*
X3557794Y55244558D02*
G75*
G03X4145280Y54043580I1522206J442D01*
G01*
X4143829Y56447564D02*
G75*
G03X3556000Y55245000I936171J-1202564D01*
G01*
X5715000Y55245000D02*
G75*
G03X5080000Y55880000I-635000J0D01*
G01*
X6096000Y55245000D02*
G75*
G03X5080000Y56261000I-1016000J0D01*
G01*
X4445000Y55245000D02*
G75*
G03X5080000Y54610000I635000J0D01*
G01*
X4064000Y55245000D02*
G75*
G03X5080000Y54229000I1016000J0D01*
G01*
D13*
X6383426Y53686120D02*
G75*
G03X7112000Y55245000I-1303426J1558880D01*
G01*
X7109460Y55245975D02*
G75*
G03X6035040Y57035700I-2029460J-975D01*
G01*
X3050614Y55242448D02*
G75*
G03X3769360Y53695600I2029386J2552D01*
G01*
X4070149Y57008299D02*
G75*
G03X3048000Y55245000I1009851J-1763299D01*
G01*
X6043347Y57034130D02*
G75*
G03X5080000Y57277000I-963347J-1789130D01*
G01*
X5079900Y57275923D02*
G75*
G03X4015740Y56974740I100J-2030923D01*
G01*
X6350000Y51739800D02*
X3810000Y51739800D01*
D14*
X4104473Y48994136D02*
G75*
G03X5080000Y48641000I975527J1170864D01*
G01*
X5080469Y48642889D02*
G75*
G03X6090920Y49027080I-469J1522111D01*
G01*
X5079966Y51687147D02*
G75*
G03X4089400Y51320700I34J-1522147D01*
G01*
X6055527Y51335864D02*
G75*
G03X5080000Y51689000I-975527J-1170864D01*
G01*
X4192845Y51404166D02*
G75*
G03X3556000Y50165000I887155J-1239166D01*
G01*
X3556000Y50164199D02*
G75*
G03X4165600Y48945800I1524000J801D01*
G01*
X6602206Y50165442D02*
G75*
G03X6014720Y51366420I-1522206J-442D01*
G01*
X6016171Y48962436D02*
G75*
G03X6604000Y50165000I-936171J1202564D01*
G01*
X4445000Y50165000D02*
G75*
G03X5080000Y49530000I635000J0D01*
G01*
X4064000Y50165000D02*
G75*
G03X5080000Y49149000I1016000J0D01*
G01*
X5715000Y50165000D02*
G75*
G03X5080000Y50800000I-635000J0D01*
G01*
X6096000Y50165000D02*
G75*
G03X5080000Y51181000I-1016000J0D01*
G01*
D13*
X3776574Y51723880D02*
G75*
G03X3048000Y50165000I1303426J-1558880D01*
G01*
X3050540Y50164025D02*
G75*
G03X4124960Y48374300I2029460J975D01*
G01*
X7109386Y50167552D02*
G75*
G03X6390640Y51714400I-2029386J-2552D01*
G01*
X6089851Y48401701D02*
G75*
G03X7112000Y50165000I-1009851J1763299D01*
G01*
X4116653Y48375870D02*
G75*
G03X5080000Y48133000I963347J1789130D01*
G01*
X5080100Y48134077D02*
G75*
G03X6144260Y48435260I-100J2030923D01*
G01*
D12*
X14351000Y47371000D02*
X-889000Y47371000D01*
X-889000Y47371000D02*
X-889000Y38481000D01*
X-889000Y38481000D02*
X14351000Y38481000D01*
X14351000Y38481000D02*
X14351000Y47371000D01*
D11*
X81915000Y54610000D02*
X84455000Y54610000D01*
X84455000Y54610000D02*
X84455000Y39370000D01*
X84455000Y39370000D02*
X81915000Y39370000D01*
X81915000Y39370000D02*
X81915000Y54610000D01*
X81915000Y52070000D02*
X84455000Y52070000D01*
D12*
X77978000Y48895000D02*
X77978000Y51435000D01*
X77978000Y51435000D02*
X74803000Y51435000D01*
X74803000Y51435000D02*
X74168000Y51435000D01*
X74168000Y51435000D02*
X74168000Y48895000D01*
X74168000Y48895000D02*
X77978000Y48895000D01*
X79248000Y48260000D02*
X79248000Y52070000D01*
X79248000Y52070000D02*
X72898000Y52070000D01*
X72898000Y52070000D02*
X72898000Y48260000D01*
X72898000Y48260000D02*
X79248000Y48260000D01*
X66548000Y13716000D02*
X66548000Y16891000D01*
X63500000Y13970000D02*
X63500000Y16891000D01*
X63500000Y16891000D02*
X66167000Y16891000D01*
X66167000Y16891000D02*
X66421000Y16891000D01*
X66964410Y12446000D02*
G75*
G03X66964410Y12446000I-2067410J0D01*
G01*
X64897000Y10541000D02*
X64897000Y16637000D01*
D11*
X42164000Y33147000D02*
X42164000Y33909000D01*
X42164000Y33909000D02*
X43180000Y33909000D01*
X43180000Y33909000D02*
X43180000Y40005000D01*
X43180000Y40005000D02*
X42164000Y40005000D01*
X42164000Y40005000D02*
X42164000Y40767000D01*
X42164000Y40005000D02*
X41148000Y40005000D01*
X41148000Y40005000D02*
X41148000Y33909000D01*
X41148000Y33909000D02*
X42164000Y33909000D01*
X43180000Y34417000D02*
X41148000Y34417000D01*
X41148000Y34671000D02*
X43180000Y34671000D01*
D12*
X73238556Y10922000D02*
G75*
G03X73238556Y10922000I-2372556J0D01*
G01*
X37719000Y45212000D02*
X43434000Y45212000D01*
X43434000Y45212000D02*
X44069000Y45212000D01*
X44069000Y45212000D02*
X44069000Y49911000D01*
X44069000Y49911000D02*
X37719000Y49911000D01*
X38100000Y47625000D02*
G75*
G03X38100000Y47625000I-10160000J0D01*
G01*
X68326000Y20320000D02*
X69596000Y20320000D01*
X69596000Y20320000D02*
X69596000Y17780000D01*
X69596000Y17780000D02*
X68326000Y17780000D01*
X68326000Y21590000D02*
X78486000Y21590000D01*
X78486000Y21590000D02*
X78486000Y16510000D01*
X78486000Y16510000D02*
X68326000Y16510000D01*
X68326000Y16510000D02*
X68326000Y21590000D01*
X56007000Y44831000D02*
G75*
G03X54102000Y42926000I0J-1905000D01*
G01*
X54102000Y42926000D02*
G75*
G03X56007000Y41021000I1905000J0D01*
G01*
X64897000Y41021000D02*
G75*
G03X66802000Y42926000I0J1905000D01*
G01*
X66802000Y42926000D02*
G75*
G03X64897000Y44831000I-1905000J0D01*
G01*
X56007000Y44831000D02*
X64897000Y44831000D01*
X64897000Y41021000D02*
X56007000Y41021000D01*
D11*
X53340000Y14986000D02*
X49530000Y11176000D01*
X49530000Y11176000D02*
X49530000Y9906000D01*
X49530000Y9906000D02*
X50800000Y8636000D01*
X50800000Y8636000D02*
X53340000Y8636000D01*
X53340000Y8636000D02*
X55880000Y11176000D01*
X55880000Y11176000D02*
X55880000Y13716000D01*
X55880000Y13716000D02*
X54610000Y14986000D01*
X54610000Y14986000D02*
X53340000Y14986000D01*
X89916000Y45847000D02*
X89916000Y25527000D01*
X89916000Y25527000D02*
X87376000Y25527000D01*
X87376000Y25527000D02*
X87376000Y45847000D01*
X87376000Y45847000D02*
X89916000Y45847000D01*
X87376000Y43307000D02*
X89916000Y43307000D01*
X43815000Y12065000D02*
X43307000Y12065000D01*
X36195000Y12065000D02*
X36703000Y12065000D01*
X36703000Y12065000D02*
X36703000Y11049000D01*
X36703000Y11049000D02*
X43307000Y11049000D01*
X43307000Y11049000D02*
X43307000Y13081000D01*
X43307000Y13081000D02*
X36703000Y13081000D01*
X36703000Y13081000D02*
X36703000Y12065000D01*
X43307000Y11557000D02*
X42799000Y11049000D01*
X82931000Y11684000D02*
X82931000Y12192000D01*
X82931000Y19304000D02*
X82931000Y18796000D01*
X82931000Y18796000D02*
X81915000Y18796000D01*
X81915000Y18796000D02*
X81915000Y12192000D01*
X81915000Y12192000D02*
X83947000Y12192000D01*
X83947000Y12192000D02*
X83947000Y18796000D01*
X83947000Y18796000D02*
X82931000Y18796000D01*
X82423000Y12192000D02*
X81915000Y12700000D01*
X80264000Y11684000D02*
X80264000Y12192000D01*
X80264000Y19304000D02*
X80264000Y18796000D01*
X80264000Y18796000D02*
X79248000Y18796000D01*
X79248000Y18796000D02*
X79248000Y12192000D01*
X79248000Y12192000D02*
X81280000Y12192000D01*
X81280000Y12192000D02*
X81280000Y18796000D01*
X81280000Y18796000D02*
X80264000Y18796000D01*
X79756000Y12192000D02*
X79248000Y12700000D01*
X72009000Y45974000D02*
X72517000Y45974000D01*
X79629000Y45974000D02*
X79121000Y45974000D01*
X79121000Y45974000D02*
X79121000Y46990000D01*
X79121000Y46990000D02*
X72517000Y46990000D01*
X72517000Y46990000D02*
X72517000Y44958000D01*
X72517000Y44958000D02*
X79121000Y44958000D01*
X79121000Y44958000D02*
X79121000Y45974000D01*
X72517000Y46482000D02*
X73025000Y46990000D01*
X16510000Y52705000D02*
X16002000Y52705000D01*
X8890000Y52705000D02*
X9398000Y52705000D01*
X9398000Y52705000D02*
X9398000Y51689000D01*
X9398000Y51689000D02*
X16002000Y51689000D01*
X16002000Y51689000D02*
X16002000Y53721000D01*
X16002000Y53721000D02*
X9398000Y53721000D01*
X9398000Y53721000D02*
X9398000Y52705000D01*
X16002000Y52197000D02*
X15494000Y51689000D01*
X36195000Y6985000D02*
X36703000Y6985000D01*
X43815000Y6985000D02*
X43307000Y6985000D01*
X43307000Y6985000D02*
X43307000Y8001000D01*
X43307000Y8001000D02*
X36703000Y8001000D01*
X36703000Y8001000D02*
X36703000Y5969000D01*
X36703000Y5969000D02*
X43307000Y5969000D01*
X43307000Y5969000D02*
X43307000Y6985000D01*
X36703000Y7493000D02*
X37211000Y8001000D01*
X78994000Y25654000D02*
X78486000Y25654000D01*
X71374000Y25654000D02*
X71882000Y25654000D01*
X71882000Y25654000D02*
X71882000Y24638000D01*
X71882000Y24638000D02*
X78486000Y24638000D01*
X78486000Y24638000D02*
X78486000Y26670000D01*
X78486000Y26670000D02*
X71882000Y26670000D01*
X71882000Y26670000D02*
X71882000Y25654000D01*
X78486000Y25146000D02*
X77978000Y24638000D01*
X43815000Y9525000D02*
X43307000Y9525000D01*
X36195000Y9525000D02*
X36703000Y9525000D01*
X36703000Y9525000D02*
X36703000Y8509000D01*
X36703000Y8509000D02*
X43307000Y8509000D01*
X43307000Y8509000D02*
X43307000Y10541000D01*
X43307000Y10541000D02*
X36703000Y10541000D01*
X36703000Y10541000D02*
X36703000Y9525000D01*
X43307000Y9017000D02*
X42799000Y8509000D01*
X43815000Y19685000D02*
X43307000Y19685000D01*
X36195000Y19685000D02*
X36703000Y19685000D01*
X36703000Y19685000D02*
X36703000Y18669000D01*
X36703000Y18669000D02*
X43307000Y18669000D01*
X43307000Y18669000D02*
X43307000Y20701000D01*
X43307000Y20701000D02*
X36703000Y20701000D01*
X36703000Y20701000D02*
X36703000Y19685000D01*
X43307000Y19177000D02*
X42799000Y18669000D01*
X36195000Y17145000D02*
X36703000Y17145000D01*
X43815000Y17145000D02*
X43307000Y17145000D01*
X43307000Y17145000D02*
X43307000Y18161000D01*
X43307000Y18161000D02*
X36703000Y18161000D01*
X36703000Y18161000D02*
X36703000Y16129000D01*
X36703000Y16129000D02*
X43307000Y16129000D01*
X43307000Y16129000D02*
X43307000Y17145000D01*
X36703000Y17653000D02*
X37211000Y18161000D01*
X36195000Y22225000D02*
X36703000Y22225000D01*
X43815000Y22225000D02*
X43307000Y22225000D01*
X43307000Y22225000D02*
X43307000Y23241000D01*
X43307000Y23241000D02*
X36703000Y23241000D01*
X36703000Y23241000D02*
X36703000Y21209000D01*
X36703000Y21209000D02*
X43307000Y21209000D01*
X43307000Y21209000D02*
X43307000Y22225000D01*
X36703000Y22733000D02*
X37211000Y23241000D01*
X88646000Y14859000D02*
X88646000Y15367000D01*
X88646000Y22479000D02*
X88646000Y21971000D01*
X88646000Y21971000D02*
X87630000Y21971000D01*
X87630000Y21971000D02*
X87630000Y15367000D01*
X87630000Y15367000D02*
X89662000Y15367000D01*
X89662000Y15367000D02*
X89662000Y21971000D01*
X89662000Y21971000D02*
X88646000Y21971000D01*
X88138000Y15367000D02*
X87630000Y15875000D01*
X16510000Y55880000D02*
X16002000Y55880000D01*
X8890000Y55880000D02*
X9398000Y55880000D01*
X9398000Y55880000D02*
X9398000Y54864000D01*
X9398000Y54864000D02*
X16002000Y54864000D01*
X16002000Y54864000D02*
X16002000Y56896000D01*
X16002000Y56896000D02*
X9398000Y56896000D01*
X9398000Y56896000D02*
X9398000Y55880000D01*
X16002000Y55372000D02*
X15494000Y54864000D01*
X36195000Y14605000D02*
X36703000Y14605000D01*
X43815000Y14605000D02*
X43307000Y14605000D01*
X43307000Y14605000D02*
X43307000Y15621000D01*
X43307000Y15621000D02*
X36703000Y15621000D01*
X36703000Y15621000D02*
X36703000Y13589000D01*
X36703000Y13589000D02*
X43307000Y13589000D01*
X43307000Y13589000D02*
X43307000Y14605000D01*
X36703000Y15113000D02*
X37211000Y15621000D01*
D15*
X73406000Y41021000D02*
G75*
G03X73406000Y41021000I-3175000J0D01*
G01*
X67564000Y21590000D02*
G75*
G03X67564000Y21590000I-3175000J0D01*
G01*
X51181000Y16002000D02*
G75*
G03X51181000Y16002000I-3175000J0D01*
G01*
X62611000Y12446000D02*
G75*
G03X62611000Y12446000I-3175000J0D01*
G01*
D12*
X67437000Y44958000D02*
X69977000Y44958000D01*
X69977000Y44958000D02*
X69977000Y52578000D01*
X69977000Y52578000D02*
X67437000Y52578000D01*
X67437000Y52578000D02*
X67437000Y44958000D01*
D11*
X68072000Y44958000D02*
X67437000Y45593000D01*
D12*
X81915000Y57785000D02*
X81915000Y55245000D01*
X81915000Y55245000D02*
X89535000Y55245000D01*
X89535000Y55245000D02*
X89535000Y57785000D01*
X89535000Y57785000D02*
X81915000Y57785000D01*
D11*
X81915000Y57150000D02*
X82550000Y57785000D01*
D13*
X80340200Y25273000D02*
X80340200Y22733000D01*
D14*
X83085864Y23027473D02*
G75*
G03X83439000Y24003000I-1170864J975527D01*
G01*
X83437111Y24003469D02*
G75*
G03X83052920Y25013920I-1522111J-469D01*
G01*
X80392853Y24002966D02*
G75*
G03X80759300Y23012400I1522147J34D01*
G01*
X80744136Y24978527D02*
G75*
G03X80391000Y24003000I1170864J-975527D01*
G01*
X80675834Y23115845D02*
G75*
G03X81915000Y22479000I1239166J887155D01*
G01*
X81915801Y22479000D02*
G75*
G03X83134200Y23088600I-801J1524000D01*
G01*
X81914558Y25525206D02*
G75*
G03X80713580Y24937720I442J-1522206D01*
G01*
X83117564Y24939171D02*
G75*
G03X81915000Y25527000I-1202564J-936171D01*
G01*
X81915000Y23368000D02*
G75*
G03X82550000Y24003000I0J635000D01*
G01*
X81915000Y22987000D02*
G75*
G03X82931000Y24003000I0J1016000D01*
G01*
X81915000Y24638000D02*
G75*
G03X81280000Y24003000I0J-635000D01*
G01*
X81915000Y25019000D02*
G75*
G03X80899000Y24003000I0J-1016000D01*
G01*
D13*
X80356120Y22699574D02*
G75*
G03X81915000Y21971000I1558880J1303426D01*
G01*
X81915975Y21973540D02*
G75*
G03X83705700Y23047960I-975J2029460D01*
G01*
X81912448Y26032386D02*
G75*
G03X80365600Y25313640I2552J-2029386D01*
G01*
X83678299Y25012851D02*
G75*
G03X81915000Y26035000I-1763299J-1009851D01*
G01*
X83704130Y23039653D02*
G75*
G03X83947000Y24003000I-1789130J963347D01*
G01*
X83945923Y24003100D02*
G75*
G03X83644740Y25067260I-2030923J-100D01*
G01*
D12*
X84074000Y29464000D02*
X45974000Y29464000D01*
X45974000Y29464000D02*
X45974000Y34544000D01*
X45974000Y34544000D02*
X84074000Y34544000D01*
X84074000Y34544000D02*
X84074000Y29464000D01*
X84074000Y30734000D02*
X82804000Y30734000D01*
X82804000Y30734000D02*
X82804000Y33274000D01*
X82804000Y33274000D02*
X84074000Y33274000D01*
D11*
X36195000Y24765000D02*
X36703000Y24765000D01*
X43815000Y24765000D02*
X43307000Y24765000D01*
X43307000Y24765000D02*
X43307000Y25781000D01*
X43307000Y25781000D02*
X36703000Y25781000D01*
X36703000Y25781000D02*
X36703000Y23749000D01*
X36703000Y23749000D02*
X43307000Y23749000D01*
X43307000Y23749000D02*
X43307000Y24765000D01*
X36703000Y25273000D02*
X37211000Y25781000D01*
X38735000Y40767000D02*
X38735000Y40005000D01*
X38735000Y40005000D02*
X37719000Y40005000D01*
X37719000Y40005000D02*
X37719000Y33909000D01*
X37719000Y33909000D02*
X38735000Y33909000D01*
X38735000Y33909000D02*
X38735000Y33147000D01*
X38735000Y33909000D02*
X39751000Y33909000D01*
X39751000Y33909000D02*
X39751000Y40005000D01*
X39751000Y40005000D02*
X38735000Y40005000D01*
X37719000Y39497000D02*
X39751000Y39497000D01*
X39751000Y39243000D02*
X37719000Y39243000D01*
X60756800Y40386000D02*
X65786000Y40386000D01*
X65786000Y40386000D02*
X65786000Y37846000D01*
X65786000Y37846000D02*
X60706000Y37846000D01*
X60706000Y37846000D02*
X60706000Y40386000D01*
X60706000Y39751000D02*
X61341000Y40386000D01*
D16*
G36*
X52278280Y38613080D02*
X52212240Y38549580D01*
X52029360Y38389560D01*
X51831240Y38232080D01*
X51620420Y38082220D01*
X51399440Y37939980D01*
X51175920Y37807900D01*
X50949860Y37691060D01*
X50723800Y37589460D01*
X50678080Y37569140D01*
X50632360Y37551360D01*
X50581560Y37531040D01*
X50525680Y37510720D01*
X50469800Y37490400D01*
X50419000Y37470080D01*
X50373280Y37454840D01*
X50340260Y37444680D01*
X50319940Y37439600D01*
X50317400Y37439600D01*
X50312320Y37447220D01*
X50299620Y37475160D01*
X50276760Y37515800D01*
X50248820Y37574220D01*
X50210720Y37647880D01*
X50165000Y37736780D01*
X50114200Y37838380D01*
X50055780Y37952680D01*
X49992280Y38077140D01*
X49923700Y38216840D01*
X49847500Y38364160D01*
X49768760Y38524180D01*
X49682400Y38691820D01*
X49596040Y38869620D01*
X49502060Y39055040D01*
X49405540Y39248080D01*
X49306480Y39446200D01*
X49202340Y39651940D01*
X49098200Y39860220D01*
X49022000Y40010080D01*
X48915320Y40223440D01*
X48811180Y40434260D01*
X48709580Y40637460D01*
X48613060Y40833040D01*
X48516540Y41023540D01*
X48425100Y41206420D01*
X48338740Y41381680D01*
X48257460Y41546780D01*
X48178720Y41704260D01*
X48107600Y41849040D01*
X48039020Y41983660D01*
X47978060Y42108120D01*
X47924720Y42217340D01*
X47876460Y42316400D01*
X47835820Y42400220D01*
X47800260Y42468800D01*
X47774860Y42522140D01*
X47757080Y42560240D01*
X47746920Y42580560D01*
X47744380Y42585640D01*
X47764700Y42595800D01*
X47795180Y42613580D01*
X47830740Y42638980D01*
X47868840Y42666920D01*
X47901860Y42694860D01*
X47927260Y42715180D01*
X47978060Y42760900D01*
X48122840Y42623740D01*
X48143160Y42603420D01*
X48176180Y42572940D01*
X48221900Y42527220D01*
X48280320Y42471340D01*
X48351440Y42402760D01*
X48435260Y42324020D01*
X48526700Y42235120D01*
X48628300Y42136060D01*
X48740060Y42026840D01*
X48861980Y41910000D01*
X48988980Y41788080D01*
X49126140Y41656000D01*
X49268380Y41518840D01*
X49418240Y41374060D01*
X49573180Y41226740D01*
X49730660Y41071800D01*
X49895760Y40914320D01*
X50063400Y40754300D01*
X50231040Y40589200D01*
X50274220Y40548560D01*
X52278280Y38613080D01*
X52278280Y38613080D01*
X52278280Y38613080D01*
G37*
X52278280Y38613080D02*
X52212240Y38549580D01*
X52029360Y38389560D01*
X51831240Y38232080D01*
X51620420Y38082220D01*
X51399440Y37939980D01*
X51175920Y37807900D01*
X50949860Y37691060D01*
X50723800Y37589460D01*
X50678080Y37569140D01*
X50632360Y37551360D01*
X50581560Y37531040D01*
X50525680Y37510720D01*
X50469800Y37490400D01*
X50419000Y37470080D01*
X50373280Y37454840D01*
X50340260Y37444680D01*
X50319940Y37439600D01*
X50317400Y37439600D01*
X50312320Y37447220D01*
X50299620Y37475160D01*
X50276760Y37515800D01*
X50248820Y37574220D01*
X50210720Y37647880D01*
X50165000Y37736780D01*
X50114200Y37838380D01*
X50055780Y37952680D01*
X49992280Y38077140D01*
X49923700Y38216840D01*
X49847500Y38364160D01*
X49768760Y38524180D01*
X49682400Y38691820D01*
X49596040Y38869620D01*
X49502060Y39055040D01*
X49405540Y39248080D01*
X49306480Y39446200D01*
X49202340Y39651940D01*
X49098200Y39860220D01*
X49022000Y40010080D01*
X48915320Y40223440D01*
X48811180Y40434260D01*
X48709580Y40637460D01*
X48613060Y40833040D01*
X48516540Y41023540D01*
X48425100Y41206420D01*
X48338740Y41381680D01*
X48257460Y41546780D01*
X48178720Y41704260D01*
X48107600Y41849040D01*
X48039020Y41983660D01*
X47978060Y42108120D01*
X47924720Y42217340D01*
X47876460Y42316400D01*
X47835820Y42400220D01*
X47800260Y42468800D01*
X47774860Y42522140D01*
X47757080Y42560240D01*
X47746920Y42580560D01*
X47744380Y42585640D01*
X47764700Y42595800D01*
X47795180Y42613580D01*
X47830740Y42638980D01*
X47868840Y42666920D01*
X47901860Y42694860D01*
X47927260Y42715180D01*
X47978060Y42760900D01*
X48122840Y42623740D01*
X48143160Y42603420D01*
X48176180Y42572940D01*
X48221900Y42527220D01*
X48280320Y42471340D01*
X48351440Y42402760D01*
X48435260Y42324020D01*
X48526700Y42235120D01*
X48628300Y42136060D01*
X48740060Y42026840D01*
X48861980Y41910000D01*
X48988980Y41788080D01*
X49126140Y41656000D01*
X49268380Y41518840D01*
X49418240Y41374060D01*
X49573180Y41226740D01*
X49730660Y41071800D01*
X49895760Y40914320D01*
X50063400Y40754300D01*
X50231040Y40589200D01*
X50274220Y40548560D01*
X52278280Y38613080D01*
X52278280Y38613080D01*
G36*
X47208440Y42494200D02*
X47203360Y42458640D01*
X47200820Y42445940D01*
X47198280Y42415460D01*
X47193200Y42364660D01*
X47185580Y42296080D01*
X47177960Y42212260D01*
X47167800Y42113200D01*
X47155100Y41998900D01*
X47139860Y41871900D01*
X47127160Y41732200D01*
X47109380Y41579800D01*
X47094140Y41417240D01*
X47073820Y41241980D01*
X47056040Y41061640D01*
X47035720Y40868600D01*
X47015400Y40670480D01*
X46992540Y40467280D01*
X46972220Y40256460D01*
X46954440Y40088820D01*
X46926500Y39829740D01*
X46901100Y39590980D01*
X46878240Y39367460D01*
X46857920Y39164260D01*
X46837600Y38978840D01*
X46819820Y38808660D01*
X46802040Y38653720D01*
X46786800Y38511480D01*
X46774100Y38387020D01*
X46763940Y38272720D01*
X46751240Y38171120D01*
X46743620Y38084760D01*
X46733460Y38006020D01*
X46725840Y37937440D01*
X46720760Y37881560D01*
X46715680Y37833300D01*
X46710600Y37790120D01*
X46705520Y37757100D01*
X46702980Y37731700D01*
X46700440Y37711380D01*
X46697900Y37696140D01*
X46697900Y37683440D01*
X46695360Y37675820D01*
X46695360Y37670740D01*
X46692820Y37670740D01*
X46692820Y37668200D01*
X46690280Y37668200D01*
X46690280Y37668200D01*
X46680120Y37673280D01*
X46654720Y37685980D01*
X46619160Y37703760D01*
X46573440Y37726620D01*
X46542960Y37741860D01*
X46266100Y37899340D01*
X46001940Y38069520D01*
X45753020Y38252400D01*
X45516800Y38447980D01*
X45298360Y38656260D01*
X45270420Y38681660D01*
X45229780Y38724840D01*
X45194220Y38762940D01*
X45166280Y38795960D01*
X45145960Y38816280D01*
X45138340Y38826440D01*
X45138340Y38828980D01*
X45143420Y38836600D01*
X45156120Y38864540D01*
X45176440Y38907720D01*
X45204380Y38966140D01*
X45237400Y39039800D01*
X45278040Y39126160D01*
X45326300Y39227760D01*
X45379640Y39339520D01*
X45438060Y39463980D01*
X45501560Y39598600D01*
X45570140Y39740840D01*
X45641260Y39893240D01*
X45717460Y40055800D01*
X45796200Y40223440D01*
X45880020Y40396160D01*
X45963840Y40573960D01*
X46024800Y40700960D01*
X46111160Y40881300D01*
X46194980Y41059100D01*
X46276260Y41231820D01*
X46355000Y41396920D01*
X46428660Y41554400D01*
X46499780Y41704260D01*
X46568360Y41846500D01*
X46629320Y41976040D01*
X46687740Y42095420D01*
X46738540Y42204640D01*
X46784260Y42301160D01*
X46822360Y42384980D01*
X46855380Y42453560D01*
X46880780Y42506900D01*
X46898560Y42545000D01*
X46908720Y42567860D01*
X46911260Y42572940D01*
X46921420Y42572940D01*
X46944280Y42565320D01*
X46974760Y42555160D01*
X47015400Y42539920D01*
X47063660Y42527220D01*
X47114460Y42514520D01*
X47122080Y42511980D01*
X47208440Y42494200D01*
X47208440Y42494200D01*
X47208440Y42494200D01*
G37*
X47208440Y42494200D02*
X47203360Y42458640D01*
X47200820Y42445940D01*
X47198280Y42415460D01*
X47193200Y42364660D01*
X47185580Y42296080D01*
X47177960Y42212260D01*
X47167800Y42113200D01*
X47155100Y41998900D01*
X47139860Y41871900D01*
X47127160Y41732200D01*
X47109380Y41579800D01*
X47094140Y41417240D01*
X47073820Y41241980D01*
X47056040Y41061640D01*
X47035720Y40868600D01*
X47015400Y40670480D01*
X46992540Y40467280D01*
X46972220Y40256460D01*
X46954440Y40088820D01*
X46926500Y39829740D01*
X46901100Y39590980D01*
X46878240Y39367460D01*
X46857920Y39164260D01*
X46837600Y38978840D01*
X46819820Y38808660D01*
X46802040Y38653720D01*
X46786800Y38511480D01*
X46774100Y38387020D01*
X46763940Y38272720D01*
X46751240Y38171120D01*
X46743620Y38084760D01*
X46733460Y38006020D01*
X46725840Y37937440D01*
X46720760Y37881560D01*
X46715680Y37833300D01*
X46710600Y37790120D01*
X46705520Y37757100D01*
X46702980Y37731700D01*
X46700440Y37711380D01*
X46697900Y37696140D01*
X46697900Y37683440D01*
X46695360Y37675820D01*
X46695360Y37670740D01*
X46692820Y37670740D01*
X46692820Y37668200D01*
X46690280Y37668200D01*
X46690280Y37668200D01*
X46680120Y37673280D01*
X46654720Y37685980D01*
X46619160Y37703760D01*
X46573440Y37726620D01*
X46542960Y37741860D01*
X46266100Y37899340D01*
X46001940Y38069520D01*
X45753020Y38252400D01*
X45516800Y38447980D01*
X45298360Y38656260D01*
X45270420Y38681660D01*
X45229780Y38724840D01*
X45194220Y38762940D01*
X45166280Y38795960D01*
X45145960Y38816280D01*
X45138340Y38826440D01*
X45138340Y38828980D01*
X45143420Y38836600D01*
X45156120Y38864540D01*
X45176440Y38907720D01*
X45204380Y38966140D01*
X45237400Y39039800D01*
X45278040Y39126160D01*
X45326300Y39227760D01*
X45379640Y39339520D01*
X45438060Y39463980D01*
X45501560Y39598600D01*
X45570140Y39740840D01*
X45641260Y39893240D01*
X45717460Y40055800D01*
X45796200Y40223440D01*
X45880020Y40396160D01*
X45963840Y40573960D01*
X46024800Y40700960D01*
X46111160Y40881300D01*
X46194980Y41059100D01*
X46276260Y41231820D01*
X46355000Y41396920D01*
X46428660Y41554400D01*
X46499780Y41704260D01*
X46568360Y41846500D01*
X46629320Y41976040D01*
X46687740Y42095420D01*
X46738540Y42204640D01*
X46784260Y42301160D01*
X46822360Y42384980D01*
X46855380Y42453560D01*
X46880780Y42506900D01*
X46898560Y42545000D01*
X46908720Y42567860D01*
X46911260Y42572940D01*
X46921420Y42572940D01*
X46944280Y42565320D01*
X46974760Y42555160D01*
X47015400Y42539920D01*
X47063660Y42527220D01*
X47114460Y42514520D01*
X47122080Y42511980D01*
X47208440Y42494200D01*
X47208440Y42494200D01*
G36*
X46512480Y42943780D02*
X46512480Y42938700D01*
X46502320Y42933620D01*
X46479460Y42915840D01*
X46438820Y42892980D01*
X46385480Y42859960D01*
X46319440Y42819320D01*
X46243240Y42771060D01*
X46154340Y42717720D01*
X46060360Y42656760D01*
X45953680Y42593260D01*
X45844460Y42524680D01*
X45727620Y42453560D01*
X45605700Y42377360D01*
X45481240Y42301160D01*
X45354240Y42222420D01*
X45224700Y42141140D01*
X45095160Y42062400D01*
X44968160Y41983660D01*
X44843700Y41907460D01*
X44721780Y41831260D01*
X44604940Y41760140D01*
X44493180Y41691560D01*
X44389040Y41625520D01*
X44289980Y41567100D01*
X44203620Y41511220D01*
X44124880Y41462960D01*
X44058840Y41422320D01*
X44002960Y41389300D01*
X43962320Y41363900D01*
X43936920Y41348660D01*
X43926760Y41343580D01*
X43921680Y41348660D01*
X43916600Y41371520D01*
X43911520Y41404540D01*
X43908980Y41407080D01*
X43886120Y41592500D01*
X43868340Y41785540D01*
X43860720Y41991280D01*
X43858180Y42113200D01*
X43860720Y42179240D01*
X43860720Y42250360D01*
X43863260Y42324020D01*
X43865800Y42397680D01*
X43868340Y42463720D01*
X43870880Y42527220D01*
X43875960Y42578020D01*
X43878500Y42618660D01*
X43881040Y42641520D01*
X43883580Y42646600D01*
X43893740Y42649140D01*
X43921680Y42656760D01*
X43967400Y42666920D01*
X44028360Y42682160D01*
X44102020Y42697400D01*
X44188380Y42717720D01*
X44284900Y42740580D01*
X44391580Y42765980D01*
X44505880Y42791380D01*
X44627800Y42819320D01*
X44757340Y42849800D01*
X44886880Y42877740D01*
X45021500Y42908220D01*
X45156120Y42938700D01*
X45290740Y42971720D01*
X45425360Y42999660D01*
X45554900Y43030140D01*
X45679360Y43058080D01*
X45798740Y43086020D01*
X45913040Y43111420D01*
X46014640Y43134280D01*
X46108620Y43154600D01*
X46189900Y43174920D01*
X46258480Y43190160D01*
X46314360Y43200320D01*
X46352460Y43210480D01*
X46375320Y43215560D01*
X46375320Y43215560D01*
X46393100Y43218100D01*
X46405800Y43213020D01*
X46413420Y43197780D01*
X46423580Y43167300D01*
X46433740Y43134280D01*
X46451520Y43088560D01*
X46471840Y43042840D01*
X46479460Y43030140D01*
X46497240Y42992040D01*
X46507400Y42961560D01*
X46512480Y42943780D01*
X46512480Y42943780D01*
X46512480Y42943780D01*
G37*
X46512480Y42943780D02*
X46512480Y42938700D01*
X46502320Y42933620D01*
X46479460Y42915840D01*
X46438820Y42892980D01*
X46385480Y42859960D01*
X46319440Y42819320D01*
X46243240Y42771060D01*
X46154340Y42717720D01*
X46060360Y42656760D01*
X45953680Y42593260D01*
X45844460Y42524680D01*
X45727620Y42453560D01*
X45605700Y42377360D01*
X45481240Y42301160D01*
X45354240Y42222420D01*
X45224700Y42141140D01*
X45095160Y42062400D01*
X44968160Y41983660D01*
X44843700Y41907460D01*
X44721780Y41831260D01*
X44604940Y41760140D01*
X44493180Y41691560D01*
X44389040Y41625520D01*
X44289980Y41567100D01*
X44203620Y41511220D01*
X44124880Y41462960D01*
X44058840Y41422320D01*
X44002960Y41389300D01*
X43962320Y41363900D01*
X43936920Y41348660D01*
X43926760Y41343580D01*
X43921680Y41348660D01*
X43916600Y41371520D01*
X43911520Y41404540D01*
X43908980Y41407080D01*
X43886120Y41592500D01*
X43868340Y41785540D01*
X43860720Y41991280D01*
X43858180Y42113200D01*
X43860720Y42179240D01*
X43860720Y42250360D01*
X43863260Y42324020D01*
X43865800Y42397680D01*
X43868340Y42463720D01*
X43870880Y42527220D01*
X43875960Y42578020D01*
X43878500Y42618660D01*
X43881040Y42641520D01*
X43883580Y42646600D01*
X43893740Y42649140D01*
X43921680Y42656760D01*
X43967400Y42666920D01*
X44028360Y42682160D01*
X44102020Y42697400D01*
X44188380Y42717720D01*
X44284900Y42740580D01*
X44391580Y42765980D01*
X44505880Y42791380D01*
X44627800Y42819320D01*
X44757340Y42849800D01*
X44886880Y42877740D01*
X45021500Y42908220D01*
X45156120Y42938700D01*
X45290740Y42971720D01*
X45425360Y42999660D01*
X45554900Y43030140D01*
X45679360Y43058080D01*
X45798740Y43086020D01*
X45913040Y43111420D01*
X46014640Y43134280D01*
X46108620Y43154600D01*
X46189900Y43174920D01*
X46258480Y43190160D01*
X46314360Y43200320D01*
X46352460Y43210480D01*
X46375320Y43215560D01*
X46375320Y43215560D01*
X46393100Y43218100D01*
X46405800Y43213020D01*
X46413420Y43197780D01*
X46423580Y43167300D01*
X46433740Y43134280D01*
X46451520Y43088560D01*
X46471840Y43042840D01*
X46479460Y43030140D01*
X46497240Y42992040D01*
X46507400Y42961560D01*
X46512480Y42943780D01*
X46512480Y42943780D01*
G36*
X53769260Y42237660D02*
X53769260Y42186860D01*
X53766720Y42153840D01*
X53764180Y42133520D01*
X53761640Y42123360D01*
X53754020Y42120820D01*
X53751480Y42120820D01*
X53741320Y42123360D01*
X53710840Y42128440D01*
X53662580Y42138600D01*
X53596540Y42151300D01*
X53515260Y42166540D01*
X53418740Y42186860D01*
X53306980Y42209720D01*
X53179980Y42235120D01*
X53040280Y42263060D01*
X52887880Y42293540D01*
X52725320Y42326560D01*
X52550060Y42359580D01*
X52367180Y42397680D01*
X52174140Y42435780D01*
X51970940Y42476420D01*
X51762660Y42519600D01*
X51544220Y42562780D01*
X51320700Y42608500D01*
X51094640Y42654220D01*
X51018440Y42669460D01*
X50789840Y42715180D01*
X50563780Y42760900D01*
X50345340Y42806620D01*
X50131980Y42847260D01*
X49926240Y42890440D01*
X49730660Y42928540D01*
X49542700Y42966640D01*
X49364900Y43004740D01*
X49194720Y43037760D01*
X49039780Y43068240D01*
X48895000Y43098720D01*
X48762920Y43124120D01*
X48646080Y43149520D01*
X48541940Y43169840D01*
X48455580Y43187620D01*
X48381920Y43200320D01*
X48328580Y43213020D01*
X48290480Y43220640D01*
X48272700Y43223180D01*
X48270160Y43223180D01*
X48249840Y43228260D01*
X48242220Y43238420D01*
X48242220Y43256200D01*
X48244760Y43271440D01*
X48247300Y43299380D01*
X48249840Y43340020D01*
X48249840Y43390820D01*
X48249840Y43423840D01*
X48249840Y43535600D01*
X50756820Y43888660D01*
X50977800Y43919140D01*
X51196240Y43949620D01*
X51407060Y43980100D01*
X51610260Y44008040D01*
X51805840Y44035980D01*
X51993800Y44061380D01*
X52174140Y44086780D01*
X52341780Y44112180D01*
X52499260Y44132500D01*
X52646580Y44155360D01*
X52778660Y44173140D01*
X52898040Y44190920D01*
X53004720Y44206160D01*
X53093620Y44218860D01*
X53167280Y44229020D01*
X53225700Y44236640D01*
X53263800Y44241720D01*
X53286660Y44244260D01*
X53289200Y44246800D01*
X53301900Y44246800D01*
X53309520Y44241720D01*
X53319680Y44229020D01*
X53332380Y44206160D01*
X53350160Y44168060D01*
X53357780Y44147740D01*
X53454300Y43896280D01*
X53540660Y43632120D01*
X53616860Y43360340D01*
X53675280Y43083480D01*
X53718460Y42832020D01*
X53731160Y42730420D01*
X53743860Y42623740D01*
X53754020Y42517060D01*
X53761640Y42412920D01*
X53766720Y42318940D01*
X53769260Y42240200D01*
X53769260Y42237660D01*
X53769260Y42237660D01*
X53769260Y42237660D01*
G37*
X53769260Y42237660D02*
X53769260Y42186860D01*
X53766720Y42153840D01*
X53764180Y42133520D01*
X53761640Y42123360D01*
X53754020Y42120820D01*
X53751480Y42120820D01*
X53741320Y42123360D01*
X53710840Y42128440D01*
X53662580Y42138600D01*
X53596540Y42151300D01*
X53515260Y42166540D01*
X53418740Y42186860D01*
X53306980Y42209720D01*
X53179980Y42235120D01*
X53040280Y42263060D01*
X52887880Y42293540D01*
X52725320Y42326560D01*
X52550060Y42359580D01*
X52367180Y42397680D01*
X52174140Y42435780D01*
X51970940Y42476420D01*
X51762660Y42519600D01*
X51544220Y42562780D01*
X51320700Y42608500D01*
X51094640Y42654220D01*
X51018440Y42669460D01*
X50789840Y42715180D01*
X50563780Y42760900D01*
X50345340Y42806620D01*
X50131980Y42847260D01*
X49926240Y42890440D01*
X49730660Y42928540D01*
X49542700Y42966640D01*
X49364900Y43004740D01*
X49194720Y43037760D01*
X49039780Y43068240D01*
X48895000Y43098720D01*
X48762920Y43124120D01*
X48646080Y43149520D01*
X48541940Y43169840D01*
X48455580Y43187620D01*
X48381920Y43200320D01*
X48328580Y43213020D01*
X48290480Y43220640D01*
X48272700Y43223180D01*
X48270160Y43223180D01*
X48249840Y43228260D01*
X48242220Y43238420D01*
X48242220Y43256200D01*
X48244760Y43271440D01*
X48247300Y43299380D01*
X48249840Y43340020D01*
X48249840Y43390820D01*
X48249840Y43423840D01*
X48249840Y43535600D01*
X50756820Y43888660D01*
X50977800Y43919140D01*
X51196240Y43949620D01*
X51407060Y43980100D01*
X51610260Y44008040D01*
X51805840Y44035980D01*
X51993800Y44061380D01*
X52174140Y44086780D01*
X52341780Y44112180D01*
X52499260Y44132500D01*
X52646580Y44155360D01*
X52778660Y44173140D01*
X52898040Y44190920D01*
X53004720Y44206160D01*
X53093620Y44218860D01*
X53167280Y44229020D01*
X53225700Y44236640D01*
X53263800Y44241720D01*
X53286660Y44244260D01*
X53289200Y44246800D01*
X53301900Y44246800D01*
X53309520Y44241720D01*
X53319680Y44229020D01*
X53332380Y44206160D01*
X53350160Y44168060D01*
X53357780Y44147740D01*
X53454300Y43896280D01*
X53540660Y43632120D01*
X53616860Y43360340D01*
X53675280Y43083480D01*
X53718460Y42832020D01*
X53731160Y42730420D01*
X53743860Y42623740D01*
X53754020Y42517060D01*
X53761640Y42412920D01*
X53766720Y42318940D01*
X53769260Y42240200D01*
X53769260Y42237660D01*
X53769260Y42237660D01*
G36*
X47845980Y43426380D02*
X47835820Y43332400D01*
X47810420Y43240960D01*
X47769780Y43154600D01*
X47713900Y43075860D01*
X47645320Y43009820D01*
X47566580Y42953940D01*
X47477680Y42913300D01*
X47449740Y42905680D01*
X47388780Y42892980D01*
X47325280Y42885360D01*
X47271940Y42885360D01*
X47264320Y42885360D01*
X47157640Y42905680D01*
X47061120Y42943780D01*
X46974760Y42997120D01*
X46901100Y43063160D01*
X46840140Y43144440D01*
X46794420Y43238420D01*
X46786800Y43256200D01*
X46776640Y43294300D01*
X46769020Y43329860D01*
X46766480Y43370500D01*
X46763940Y43423840D01*
X46763940Y43434000D01*
X46766480Y43487340D01*
X46769020Y43527980D01*
X46774100Y43558460D01*
X46784260Y43591480D01*
X46791880Y43611800D01*
X46840140Y43708320D01*
X46901100Y43792140D01*
X46974760Y43858180D01*
X47058580Y43911520D01*
X47152560Y43947080D01*
X47251620Y43964860D01*
X47343060Y43967400D01*
X47442120Y43949620D01*
X47536100Y43916600D01*
X47619920Y43865800D01*
X47693580Y43802300D01*
X47754540Y43723560D01*
X47802800Y43634660D01*
X47833280Y43533060D01*
X47835820Y43522900D01*
X47845980Y43426380D01*
X47845980Y43426380D01*
X47845980Y43426380D01*
G37*
X47845980Y43426380D02*
X47835820Y43332400D01*
X47810420Y43240960D01*
X47769780Y43154600D01*
X47713900Y43075860D01*
X47645320Y43009820D01*
X47566580Y42953940D01*
X47477680Y42913300D01*
X47449740Y42905680D01*
X47388780Y42892980D01*
X47325280Y42885360D01*
X47271940Y42885360D01*
X47264320Y42885360D01*
X47157640Y42905680D01*
X47061120Y42943780D01*
X46974760Y42997120D01*
X46901100Y43063160D01*
X46840140Y43144440D01*
X46794420Y43238420D01*
X46786800Y43256200D01*
X46776640Y43294300D01*
X46769020Y43329860D01*
X46766480Y43370500D01*
X46763940Y43423840D01*
X46763940Y43434000D01*
X46766480Y43487340D01*
X46769020Y43527980D01*
X46774100Y43558460D01*
X46784260Y43591480D01*
X46791880Y43611800D01*
X46840140Y43708320D01*
X46901100Y43792140D01*
X46974760Y43858180D01*
X47058580Y43911520D01*
X47152560Y43947080D01*
X47251620Y43964860D01*
X47343060Y43967400D01*
X47442120Y43949620D01*
X47536100Y43916600D01*
X47619920Y43865800D01*
X47693580Y43802300D01*
X47754540Y43723560D01*
X47802800Y43634660D01*
X47833280Y43533060D01*
X47835820Y43522900D01*
X47845980Y43426380D01*
X47845980Y43426380D01*
G36*
X46596300Y44023280D02*
X46593760Y44015660D01*
X46581060Y43992800D01*
X46560740Y43962320D01*
X46550580Y43944540D01*
X46525180Y43903900D01*
X46499780Y43858180D01*
X46482000Y43822620D01*
X46479460Y43815000D01*
X46464220Y43784520D01*
X46451520Y43766740D01*
X46443900Y43759120D01*
X46433740Y43764200D01*
X46405800Y43774360D01*
X46362620Y43789600D01*
X46301660Y43809920D01*
X46228000Y43837860D01*
X46141640Y43868340D01*
X46045120Y43903900D01*
X45938440Y43942000D01*
X45821600Y43985180D01*
X45697140Y44030900D01*
X45567600Y44079160D01*
X45438060Y44124880D01*
X45303440Y44173140D01*
X45173900Y44221400D01*
X45051980Y44267120D01*
X44935140Y44307760D01*
X44828460Y44348400D01*
X44734480Y44381420D01*
X44648120Y44414440D01*
X44577000Y44439840D01*
X44518580Y44460160D01*
X44475400Y44475400D01*
X44450000Y44485560D01*
X44442380Y44488100D01*
X44442380Y44498260D01*
X44452540Y44518580D01*
X44470320Y44551600D01*
X44493180Y44592240D01*
X44516040Y44637960D01*
X44541440Y44683680D01*
X44566840Y44726860D01*
X44587160Y44757340D01*
X44617640Y44805600D01*
X44653200Y44861480D01*
X44693840Y44922440D01*
X44737020Y44985940D01*
X44782740Y45049440D01*
X44825920Y45110400D01*
X44869100Y45168820D01*
X44907200Y45222160D01*
X44942760Y45265340D01*
X44968160Y45300900D01*
X44988480Y45321220D01*
X44996100Y45328840D01*
X45006260Y45323760D01*
X45029120Y45305980D01*
X45062140Y45275500D01*
X45110400Y45237400D01*
X45168820Y45191680D01*
X45234860Y45138340D01*
X45311060Y45077380D01*
X45392340Y45011340D01*
X45478700Y44940220D01*
X45570140Y44866560D01*
X45664120Y44787820D01*
X45760640Y44711620D01*
X45857160Y44630340D01*
X45951140Y44554140D01*
X46045120Y44477940D01*
X46136560Y44401740D01*
X46222920Y44333160D01*
X46301660Y44267120D01*
X46375320Y44206160D01*
X46441360Y44152820D01*
X46494700Y44109640D01*
X46540420Y44071540D01*
X46573440Y44043600D01*
X46591220Y44028360D01*
X46596300Y44023280D01*
X46596300Y44023280D01*
X46596300Y44023280D01*
G37*
X46596300Y44023280D02*
X46593760Y44015660D01*
X46581060Y43992800D01*
X46560740Y43962320D01*
X46550580Y43944540D01*
X46525180Y43903900D01*
X46499780Y43858180D01*
X46482000Y43822620D01*
X46479460Y43815000D01*
X46464220Y43784520D01*
X46451520Y43766740D01*
X46443900Y43759120D01*
X46433740Y43764200D01*
X46405800Y43774360D01*
X46362620Y43789600D01*
X46301660Y43809920D01*
X46228000Y43837860D01*
X46141640Y43868340D01*
X46045120Y43903900D01*
X45938440Y43942000D01*
X45821600Y43985180D01*
X45697140Y44030900D01*
X45567600Y44079160D01*
X45438060Y44124880D01*
X45303440Y44173140D01*
X45173900Y44221400D01*
X45051980Y44267120D01*
X44935140Y44307760D01*
X44828460Y44348400D01*
X44734480Y44381420D01*
X44648120Y44414440D01*
X44577000Y44439840D01*
X44518580Y44460160D01*
X44475400Y44475400D01*
X44450000Y44485560D01*
X44442380Y44488100D01*
X44442380Y44498260D01*
X44452540Y44518580D01*
X44470320Y44551600D01*
X44493180Y44592240D01*
X44516040Y44637960D01*
X44541440Y44683680D01*
X44566840Y44726860D01*
X44587160Y44757340D01*
X44617640Y44805600D01*
X44653200Y44861480D01*
X44693840Y44922440D01*
X44737020Y44985940D01*
X44782740Y45049440D01*
X44825920Y45110400D01*
X44869100Y45168820D01*
X44907200Y45222160D01*
X44942760Y45265340D01*
X44968160Y45300900D01*
X44988480Y45321220D01*
X44996100Y45328840D01*
X45006260Y45323760D01*
X45029120Y45305980D01*
X45062140Y45275500D01*
X45110400Y45237400D01*
X45168820Y45191680D01*
X45234860Y45138340D01*
X45311060Y45077380D01*
X45392340Y45011340D01*
X45478700Y44940220D01*
X45570140Y44866560D01*
X45664120Y44787820D01*
X45760640Y44711620D01*
X45857160Y44630340D01*
X45951140Y44554140D01*
X46045120Y44477940D01*
X46136560Y44401740D01*
X46222920Y44333160D01*
X46301660Y44267120D01*
X46375320Y44206160D01*
X46441360Y44152820D01*
X46494700Y44109640D01*
X46540420Y44071540D01*
X46573440Y44043600D01*
X46591220Y44028360D01*
X46596300Y44023280D01*
X46596300Y44023280D01*
G36*
X51368960Y46423580D02*
X49728120Y45204380D01*
X49568100Y45085000D01*
X49410620Y44968160D01*
X49258220Y44853860D01*
X49113440Y44747180D01*
X48973740Y44643040D01*
X48841660Y44543980D01*
X48717200Y44452540D01*
X48600360Y44366180D01*
X48496220Y44287440D01*
X48399700Y44216320D01*
X48315880Y44155360D01*
X48242220Y44099480D01*
X48183800Y44056300D01*
X48135540Y44020740D01*
X48102520Y43997880D01*
X48084740Y43985180D01*
X48082200Y43982640D01*
X48072040Y43987720D01*
X48051720Y44005500D01*
X48023780Y44033440D01*
X47998380Y44058840D01*
X47965360Y44091860D01*
X47929800Y44124880D01*
X47904400Y44150280D01*
X47891700Y44160440D01*
X47858680Y44183300D01*
X48803560Y45587920D01*
X48905160Y45740320D01*
X49004220Y45887640D01*
X49100740Y46029880D01*
X49192180Y46164500D01*
X49278540Y46294040D01*
X49359820Y46415960D01*
X49436020Y46527720D01*
X49504600Y46629320D01*
X49568100Y46723300D01*
X49621440Y46804580D01*
X49667160Y46873160D01*
X49705260Y46929040D01*
X49733200Y46969680D01*
X49750980Y46997620D01*
X49758600Y47007780D01*
X49758600Y47010320D01*
X49763680Y47015400D01*
X49776380Y47017940D01*
X49796700Y47015400D01*
X49827180Y47010320D01*
X49875440Y47002700D01*
X49885600Y47000160D01*
X50025300Y46969680D01*
X50175160Y46929040D01*
X50335180Y46878240D01*
X50497740Y46824900D01*
X50662840Y46761400D01*
X50774600Y46718220D01*
X50820320Y46697900D01*
X50878740Y46672500D01*
X50944780Y46642020D01*
X51013360Y46609000D01*
X51084480Y46573440D01*
X51153060Y46540420D01*
X51216560Y46509940D01*
X51269900Y46482000D01*
X51310540Y46459140D01*
X51330860Y46446440D01*
X51368960Y46423580D01*
X51368960Y46423580D01*
X51368960Y46423580D01*
G37*
X51368960Y46423580D02*
X49728120Y45204380D01*
X49568100Y45085000D01*
X49410620Y44968160D01*
X49258220Y44853860D01*
X49113440Y44747180D01*
X48973740Y44643040D01*
X48841660Y44543980D01*
X48717200Y44452540D01*
X48600360Y44366180D01*
X48496220Y44287440D01*
X48399700Y44216320D01*
X48315880Y44155360D01*
X48242220Y44099480D01*
X48183800Y44056300D01*
X48135540Y44020740D01*
X48102520Y43997880D01*
X48084740Y43985180D01*
X48082200Y43982640D01*
X48072040Y43987720D01*
X48051720Y44005500D01*
X48023780Y44033440D01*
X47998380Y44058840D01*
X47965360Y44091860D01*
X47929800Y44124880D01*
X47904400Y44150280D01*
X47891700Y44160440D01*
X47858680Y44183300D01*
X48803560Y45587920D01*
X48905160Y45740320D01*
X49004220Y45887640D01*
X49100740Y46029880D01*
X49192180Y46164500D01*
X49278540Y46294040D01*
X49359820Y46415960D01*
X49436020Y46527720D01*
X49504600Y46629320D01*
X49568100Y46723300D01*
X49621440Y46804580D01*
X49667160Y46873160D01*
X49705260Y46929040D01*
X49733200Y46969680D01*
X49750980Y46997620D01*
X49758600Y47007780D01*
X49758600Y47010320D01*
X49763680Y47015400D01*
X49776380Y47017940D01*
X49796700Y47015400D01*
X49827180Y47010320D01*
X49875440Y47002700D01*
X49885600Y47000160D01*
X50025300Y46969680D01*
X50175160Y46929040D01*
X50335180Y46878240D01*
X50497740Y46824900D01*
X50662840Y46761400D01*
X50774600Y46718220D01*
X50820320Y46697900D01*
X50878740Y46672500D01*
X50944780Y46642020D01*
X51013360Y46609000D01*
X51084480Y46573440D01*
X51153060Y46540420D01*
X51216560Y46509940D01*
X51269900Y46482000D01*
X51310540Y46459140D01*
X51330860Y46446440D01*
X51368960Y46423580D01*
X51368960Y46423580D01*
G36*
X47409100Y46840140D02*
X47409100Y46814740D01*
X47409100Y46771560D01*
X47406560Y46710600D01*
X47406560Y46634400D01*
X47404020Y46545500D01*
X47401480Y46443900D01*
X47398940Y46332140D01*
X47396400Y46212760D01*
X47393860Y46085760D01*
X47391320Y45956220D01*
X47386240Y45821600D01*
X47383700Y45684440D01*
X47381160Y45547280D01*
X47378620Y45410120D01*
X47373540Y45278040D01*
X47371000Y45151040D01*
X47368460Y45029120D01*
X47365920Y44914820D01*
X47363380Y44810680D01*
X47360840Y44719240D01*
X47358300Y44640500D01*
X47355760Y44574460D01*
X47353220Y44526200D01*
X47353220Y44495720D01*
X47353220Y44493180D01*
X47348140Y44361100D01*
X47271940Y44353480D01*
X47221140Y44348400D01*
X47165260Y44338240D01*
X47124620Y44330620D01*
X47089060Y44320460D01*
X47061120Y44315380D01*
X47048420Y44315380D01*
X47048420Y44315380D01*
X47045880Y44325540D01*
X47038260Y44353480D01*
X47023020Y44396660D01*
X47005240Y44457620D01*
X46979840Y44531280D01*
X46951900Y44617640D01*
X46921420Y44714160D01*
X46885860Y44823380D01*
X46847760Y44942760D01*
X46807120Y45069760D01*
X46763940Y45201840D01*
X46718220Y45341540D01*
X46702980Y45384720D01*
X46657260Y45524420D01*
X46614080Y45661580D01*
X46573440Y45791120D01*
X46532800Y45910500D01*
X46497240Y46024800D01*
X46464220Y46126400D01*
X46436280Y46217840D01*
X46410880Y46294040D01*
X46390560Y46360080D01*
X46375320Y46408340D01*
X46365160Y46441360D01*
X46360080Y46459140D01*
X46360080Y46459140D01*
X46367700Y46466760D01*
X46393100Y46479460D01*
X46431200Y46499780D01*
X46479460Y46525180D01*
X46537880Y46558200D01*
X46606460Y46591220D01*
X46647100Y46611540D01*
X46809660Y46690280D01*
X46959520Y46758860D01*
X47096680Y46817280D01*
X47218600Y46865540D01*
X47325280Y46901100D01*
X47325280Y46901100D01*
X47409100Y46926500D01*
X47409100Y46840140D01*
X47409100Y46840140D01*
X47409100Y46840140D01*
G37*
X47409100Y46840140D02*
X47409100Y46814740D01*
X47409100Y46771560D01*
X47406560Y46710600D01*
X47406560Y46634400D01*
X47404020Y46545500D01*
X47401480Y46443900D01*
X47398940Y46332140D01*
X47396400Y46212760D01*
X47393860Y46085760D01*
X47391320Y45956220D01*
X47386240Y45821600D01*
X47383700Y45684440D01*
X47381160Y45547280D01*
X47378620Y45410120D01*
X47373540Y45278040D01*
X47371000Y45151040D01*
X47368460Y45029120D01*
X47365920Y44914820D01*
X47363380Y44810680D01*
X47360840Y44719240D01*
X47358300Y44640500D01*
X47355760Y44574460D01*
X47353220Y44526200D01*
X47353220Y44495720D01*
X47353220Y44493180D01*
X47348140Y44361100D01*
X47271940Y44353480D01*
X47221140Y44348400D01*
X47165260Y44338240D01*
X47124620Y44330620D01*
X47089060Y44320460D01*
X47061120Y44315380D01*
X47048420Y44315380D01*
X47048420Y44315380D01*
X47045880Y44325540D01*
X47038260Y44353480D01*
X47023020Y44396660D01*
X47005240Y44457620D01*
X46979840Y44531280D01*
X46951900Y44617640D01*
X46921420Y44714160D01*
X46885860Y44823380D01*
X46847760Y44942760D01*
X46807120Y45069760D01*
X46763940Y45201840D01*
X46718220Y45341540D01*
X46702980Y45384720D01*
X46657260Y45524420D01*
X46614080Y45661580D01*
X46573440Y45791120D01*
X46532800Y45910500D01*
X46497240Y46024800D01*
X46464220Y46126400D01*
X46436280Y46217840D01*
X46410880Y46294040D01*
X46390560Y46360080D01*
X46375320Y46408340D01*
X46365160Y46441360D01*
X46360080Y46459140D01*
X46360080Y46459140D01*
X46367700Y46466760D01*
X46393100Y46479460D01*
X46431200Y46499780D01*
X46479460Y46525180D01*
X46537880Y46558200D01*
X46606460Y46591220D01*
X46647100Y46611540D01*
X46809660Y46690280D01*
X46959520Y46758860D01*
X47096680Y46817280D01*
X47218600Y46865540D01*
X47325280Y46901100D01*
X47325280Y46901100D01*
X47409100Y46926500D01*
X47409100Y46840140D01*
X47409100Y46840140D01*
D17*
X74930000Y16408400D02*
X71831200Y16408400D01*
X74904600Y21793200D02*
X71831200Y21793200D01*
X71807600Y21800800D02*
X71807600Y16400800D01*
X74902800Y21800800D02*
X74902800Y16400800D01*
X71920555Y22078600D02*
G75*
G03X71920555Y22078600I-360555J0D01*
G01*
X73863200Y21767800D02*
X73863200Y21259800D01*
X73863200Y21259800D02*
X72847200Y21259800D01*
X72847200Y21259800D02*
X72847200Y21767800D01*
D18*
X15943761Y19957627D02*
X17179290Y19957627D01*
X17426396Y19905859D01*
X17591133Y19802324D01*
X17673501Y19647021D01*
X17673501Y19543486D01*
X17673501Y21044747D02*
X17673501Y20423535D01*
X17673501Y20734141D02*
X15943761Y20734141D01*
X16190867Y20630606D01*
X16355604Y20527071D01*
X16437973Y20423535D01*
D13*
X20483286Y15173476D02*
X20555857Y15125095D01*
X20628429Y14979952D01*
X20628429Y14883190D01*
X20555857Y14738048D01*
X20410714Y14641286D01*
X20265571Y14592905D01*
X19975286Y14544524D01*
X19757571Y14544524D01*
X19467286Y14592905D01*
X19322143Y14641286D01*
X19177000Y14738048D01*
X19104429Y14883190D01*
X19104429Y14979952D01*
X19177000Y15125095D01*
X19249571Y15173476D01*
X19104429Y15802429D02*
X19104429Y15995952D01*
X19177000Y16092714D01*
X19322143Y16189476D01*
X19612429Y16237857D01*
X20120429Y16237857D01*
X20410714Y16189476D01*
X20555857Y16092714D01*
X20628429Y15995952D01*
X20628429Y15802429D01*
X20555857Y15705667D01*
X20410714Y15608905D01*
X20120429Y15560524D01*
X19612429Y15560524D01*
X19322143Y15608905D01*
X19177000Y15705667D01*
X19104429Y15802429D01*
X20628429Y16673286D02*
X19104429Y16673286D01*
X20628429Y17253857D01*
X19104429Y17253857D01*
X20047857Y17737667D02*
X20047857Y18511762D01*
X20555857Y18947191D02*
X20628429Y19092334D01*
X20628429Y19334238D01*
X20555857Y19431000D01*
X20483286Y19479381D01*
X20338143Y19527762D01*
X20193000Y19527762D01*
X20047857Y19479381D01*
X19975286Y19431000D01*
X19902714Y19334238D01*
X19830143Y19140715D01*
X19757571Y19043953D01*
X19685000Y18995572D01*
X19539857Y18947191D01*
X19394714Y18947191D01*
X19249571Y18995572D01*
X19177000Y19043953D01*
X19104429Y19140715D01*
X19104429Y19382619D01*
X19177000Y19527762D01*
X20628429Y19963191D02*
X19104429Y19963191D01*
X19104429Y20205096D01*
X19177000Y20350238D01*
X19322143Y20447000D01*
X19467286Y20495381D01*
X19757571Y20543762D01*
X19975286Y20543762D01*
X20265571Y20495381D01*
X20410714Y20447000D01*
X20555857Y20350238D01*
X20628429Y20205096D01*
X20628429Y19963191D01*
X20047857Y20979191D02*
X20047857Y21753286D01*
X20628429Y22237096D02*
X19104429Y22237096D01*
X20193000Y22575762D01*
X19104429Y22914429D01*
X20628429Y22914429D01*
X20628429Y23398239D02*
X19104429Y23398239D01*
X20193000Y23736905D01*
X19104429Y24075572D01*
X20628429Y24075572D01*
X20483286Y25139953D02*
X20555857Y25091572D01*
X20628429Y24946429D01*
X20628429Y24849667D01*
X20555857Y24704525D01*
X20410714Y24607763D01*
X20265571Y24559382D01*
X19975286Y24511001D01*
X19757571Y24511001D01*
X19467286Y24559382D01*
X19322143Y24607763D01*
X19177000Y24704525D01*
X19104429Y24849667D01*
X19104429Y24946429D01*
X19177000Y25091572D01*
X19249571Y25139953D01*
X20047857Y25575382D02*
X20047857Y26349477D01*
X19104429Y26736525D02*
X19104429Y27365477D01*
X19685000Y27026811D01*
X19685000Y27171953D01*
X19757571Y27268715D01*
X19830143Y27317096D01*
X19975286Y27365477D01*
X20338143Y27365477D01*
X20483286Y27317096D01*
X20555857Y27268715D01*
X20628429Y27171953D01*
X20628429Y26881668D01*
X20555857Y26784906D01*
X20483286Y26736525D01*
D19*
X53424667Y37737143D02*
X53376286Y37688762D01*
X53231143Y37640381D01*
X53134381Y37640381D01*
X52989239Y37688762D01*
X52892477Y37785524D01*
X52844096Y37882286D01*
X52795715Y38075810D01*
X52795715Y38220952D01*
X52844096Y38414476D01*
X52892477Y38511238D01*
X52989239Y38608000D01*
X53134381Y38656381D01*
X53231143Y38656381D01*
X53376286Y38608000D01*
X53424667Y38559619D01*
X54343905Y38656381D02*
X53860096Y38656381D01*
X53811715Y38172571D01*
X53860096Y38220952D01*
X53956858Y38269333D01*
X54198762Y38269333D01*
X54295524Y38220952D01*
X54343905Y38172571D01*
X54392286Y38075810D01*
X54392286Y37833905D01*
X54343905Y37737143D01*
X54295524Y37688762D01*
X54198762Y37640381D01*
X53956858Y37640381D01*
X53860096Y37688762D01*
X53811715Y37737143D01*
D11*
X52215143Y23440571D02*
X52215143Y24964571D01*
X52795715Y24964571D01*
X52940857Y24892000D01*
X53013429Y24819429D01*
X53086000Y24674286D01*
X53086000Y24456571D01*
X53013429Y24311429D01*
X52940857Y24238857D01*
X52795715Y24166286D01*
X52215143Y24166286D01*
X53666572Y24819429D02*
X53739143Y24892000D01*
X53884286Y24964571D01*
X54247143Y24964571D01*
X54392286Y24892000D01*
X54464857Y24819429D01*
X54537429Y24674286D01*
X54537429Y24529143D01*
X54464857Y24311429D01*
X53594000Y23440571D01*
X54537429Y23440571D01*
X56297286Y22805571D02*
X56297286Y24329571D01*
X56950429Y22878143D02*
X57168143Y22805571D01*
X57531000Y22805571D01*
X57676143Y22878143D01*
X57748714Y22950714D01*
X57821286Y23095857D01*
X57821286Y23241000D01*
X57748714Y23386143D01*
X57676143Y23458714D01*
X57531000Y23531286D01*
X57240714Y23603857D01*
X57095572Y23676429D01*
X57023000Y23749000D01*
X56950429Y23894143D01*
X56950429Y24039286D01*
X57023000Y24184429D01*
X57095572Y24257000D01*
X57240714Y24329571D01*
X57603572Y24329571D01*
X57821286Y24257000D01*
X58474429Y22805571D02*
X58474429Y24329571D01*
X59055001Y24329571D01*
X59200143Y24257000D01*
X59272715Y24184429D01*
X59345286Y24039286D01*
X59345286Y23821571D01*
X59272715Y23676429D01*
X59200143Y23603857D01*
X59055001Y23531286D01*
X58474429Y23531286D01*
D20*
X8067524Y56720619D02*
X6797524Y56720619D01*
X6797524Y57023000D01*
X6858000Y57204428D01*
X6978952Y57325381D01*
X7099905Y57385857D01*
X7341810Y57446333D01*
X7523238Y57446333D01*
X7765143Y57385857D01*
X7886095Y57325381D01*
X8007048Y57204428D01*
X8067524Y57023000D01*
X8067524Y56720619D01*
X6797524Y58595381D02*
X6797524Y57990619D01*
X7402286Y57930143D01*
X7341810Y57990619D01*
X7281333Y58111571D01*
X7281333Y58413952D01*
X7341810Y58534905D01*
X7402286Y58595381D01*
X7523238Y58655857D01*
X7825619Y58655857D01*
X7946571Y58595381D01*
X8007048Y58534905D01*
X8067524Y58413952D01*
X8067524Y58111571D01*
X8007048Y57990619D01*
X7946571Y57930143D01*
X3114524Y53340001D02*
X1844524Y53340001D01*
X1844524Y53642382D01*
X1905000Y53823810D01*
X2025952Y53944763D01*
X2146905Y54005239D01*
X2388810Y54065715D01*
X2570238Y54065715D01*
X2812143Y54005239D01*
X2933095Y53944763D01*
X3054048Y53823810D01*
X3114524Y53642382D01*
X3114524Y53340001D01*
X2751667Y54549525D02*
X2751667Y55154287D01*
X3114524Y54428572D02*
X1844524Y54851906D01*
X3114524Y55275239D01*
X1844524Y55517143D02*
X1844524Y56242858D01*
X3114524Y55880001D02*
X1844524Y55880001D01*
X2751667Y56605715D02*
X2751667Y57210477D01*
X3114524Y56484762D02*
X1844524Y56908096D01*
X3114524Y57331429D01*
X8575524Y47957619D02*
X7305524Y47957619D01*
X7305524Y48260000D01*
X7366000Y48441428D01*
X7486952Y48562381D01*
X7607905Y48622857D01*
X7849810Y48683333D01*
X8031238Y48683333D01*
X8273143Y48622857D01*
X8394095Y48562381D01*
X8515048Y48441428D01*
X8575524Y48260000D01*
X8575524Y47957619D01*
X8575524Y49892857D02*
X8575524Y49167143D01*
X8575524Y49530000D02*
X7305524Y49530000D01*
X7486952Y49409048D01*
X7607905Y49288095D01*
X7668381Y49167143D01*
X3114524Y47836667D02*
X1844524Y47836667D01*
X1844524Y48320476D01*
X1905000Y48441429D01*
X1965476Y48501905D01*
X2086429Y48562381D01*
X2267857Y48562381D01*
X2388810Y48501905D01*
X2449286Y48441429D01*
X2509762Y48320476D01*
X2509762Y47836667D01*
X1844524Y48985715D02*
X3114524Y49288096D01*
X2207381Y49530000D01*
X3114524Y49771905D01*
X1844524Y50074286D01*
X3114524Y51283810D02*
X2509762Y50860477D01*
X3114524Y50558096D02*
X1844524Y50558096D01*
X1844524Y51041905D01*
X1905000Y51162858D01*
X1965476Y51223334D01*
X2086429Y51283810D01*
X2267857Y51283810D01*
X2388810Y51223334D01*
X2449286Y51162858D01*
X2509762Y51041905D01*
X2509762Y50558096D01*
D18*
X5608501Y42123602D02*
X3878761Y42123602D01*
X3878761Y42537743D01*
X3961130Y42641278D01*
X4043499Y42693046D01*
X4208236Y42744814D01*
X4455341Y42744814D01*
X4620079Y42693046D01*
X4702447Y42641278D01*
X4784816Y42537743D01*
X4784816Y42123602D01*
X5608501Y43780166D02*
X5608501Y43158954D01*
X5608501Y43469560D02*
X3878761Y43469560D01*
X4125867Y43366025D01*
X4290604Y43262490D01*
X4372973Y43158954D01*
X81554501Y40726602D02*
X79824761Y40726602D01*
X79824761Y41140743D01*
X79907130Y41244278D01*
X79989499Y41296046D01*
X80154236Y41347814D01*
X80401341Y41347814D01*
X80566079Y41296046D01*
X80648447Y41244278D01*
X80730816Y41140743D01*
X80730816Y40726602D01*
X79824761Y41710187D02*
X79824761Y42383166D01*
X80483710Y42020793D01*
X80483710Y42176095D01*
X80566079Y42279631D01*
X80648447Y42331398D01*
X80813184Y42383166D01*
X81225027Y42383166D01*
X81389764Y42331398D01*
X81472133Y42279631D01*
X81554501Y42176095D01*
X81554501Y41865490D01*
X81472133Y41761954D01*
X81389764Y41710187D01*
D13*
X86287429Y45937715D02*
X84763429Y45937715D01*
X84763429Y46324762D01*
X84836000Y46421524D01*
X84908571Y46469905D01*
X85053714Y46518286D01*
X85271429Y46518286D01*
X85416571Y46469905D01*
X85489143Y46421524D01*
X85561714Y46324762D01*
X85561714Y45937715D01*
X86287429Y47534286D02*
X85561714Y47195620D01*
X86287429Y46953715D02*
X84763429Y46953715D01*
X84763429Y47340762D01*
X84836000Y47437524D01*
X84908571Y47485905D01*
X85053714Y47534286D01*
X85271429Y47534286D01*
X85416571Y47485905D01*
X85489143Y47437524D01*
X85561714Y47340762D01*
X85561714Y46953715D01*
X84763429Y48163239D02*
X84763429Y48356762D01*
X84836000Y48453524D01*
X84981143Y48550286D01*
X85271429Y48598667D01*
X85779429Y48598667D01*
X86069714Y48550286D01*
X86214857Y48453524D01*
X86287429Y48356762D01*
X86287429Y48163239D01*
X86214857Y48066477D01*
X86069714Y47969715D01*
X85779429Y47921334D01*
X85271429Y47921334D01*
X84981143Y47969715D01*
X84836000Y48066477D01*
X84763429Y48163239D01*
X84836000Y49566286D02*
X84763429Y49469524D01*
X84763429Y49324381D01*
X84836000Y49179239D01*
X84981143Y49082477D01*
X85126286Y49034096D01*
X85416571Y48985715D01*
X85634286Y48985715D01*
X85924571Y49034096D01*
X86069714Y49082477D01*
X86214857Y49179239D01*
X86287429Y49324381D01*
X86287429Y49421143D01*
X86214857Y49566286D01*
X86142286Y49614667D01*
X85634286Y49614667D01*
X85634286Y49421143D01*
X86287429Y50630667D02*
X85561714Y50292001D01*
X86287429Y50050096D02*
X84763429Y50050096D01*
X84763429Y50437143D01*
X84836000Y50533905D01*
X84908571Y50582286D01*
X85053714Y50630667D01*
X85271429Y50630667D01*
X85416571Y50582286D01*
X85489143Y50533905D01*
X85561714Y50437143D01*
X85561714Y50050096D01*
X85852000Y51017715D02*
X85852000Y51501524D01*
X86287429Y50920953D02*
X84763429Y51259620D01*
X86287429Y51598286D01*
X86287429Y51936953D02*
X84763429Y51936953D01*
X85852000Y52275619D01*
X84763429Y52614286D01*
X86287429Y52614286D01*
D19*
X71162334Y52420762D02*
X71307477Y52372381D01*
X71549381Y52372381D01*
X71646143Y52420762D01*
X71694524Y52469143D01*
X71742905Y52565905D01*
X71742905Y52662667D01*
X71694524Y52759429D01*
X71646143Y52807810D01*
X71549381Y52856190D01*
X71355858Y52904571D01*
X71259096Y52952952D01*
X71210715Y53001333D01*
X71162334Y53098095D01*
X71162334Y53194857D01*
X71210715Y53291619D01*
X71259096Y53340000D01*
X71355858Y53388381D01*
X71597762Y53388381D01*
X71742905Y53340000D01*
X72081572Y53388381D02*
X72323477Y52372381D01*
X72517000Y53098095D01*
X72710524Y52372381D01*
X72952429Y53388381D01*
X73871667Y52372381D02*
X73291096Y52372381D01*
X73581382Y52372381D02*
X73581382Y53388381D01*
X73484620Y53243238D01*
X73387858Y53146476D01*
X73291096Y53098095D01*
X74597381Y49705381D02*
X74258715Y50189190D01*
X74016810Y49705381D02*
X74016810Y50721381D01*
X74403857Y50721381D01*
X74500619Y50673000D01*
X74549000Y50624619D01*
X74597381Y50527857D01*
X74597381Y50382714D01*
X74549000Y50285952D01*
X74500619Y50237571D01*
X74403857Y50189190D01*
X74016810Y50189190D01*
X75032810Y50237571D02*
X75371476Y50237571D01*
X75516619Y49705381D02*
X75032810Y49705381D01*
X75032810Y50721381D01*
X75516619Y50721381D01*
X75903667Y49753762D02*
X76048810Y49705381D01*
X76290714Y49705381D01*
X76387476Y49753762D01*
X76435857Y49802143D01*
X76484238Y49898905D01*
X76484238Y49995667D01*
X76435857Y50092429D01*
X76387476Y50140810D01*
X76290714Y50189190D01*
X76097191Y50237571D01*
X76000429Y50285952D01*
X75952048Y50334333D01*
X75903667Y50431095D01*
X75903667Y50527857D01*
X75952048Y50624619D01*
X76000429Y50673000D01*
X76097191Y50721381D01*
X76339095Y50721381D01*
X76484238Y50673000D01*
X76919667Y50237571D02*
X77258333Y50237571D01*
X77403476Y49705381D02*
X76919667Y49705381D01*
X76919667Y50721381D01*
X77403476Y50721381D01*
X77693762Y50721381D02*
X78274333Y50721381D01*
X77984048Y49705381D02*
X77984048Y50721381D01*
X62973857Y15959667D02*
X63022238Y15911286D01*
X63070619Y15766143D01*
X63070619Y15669381D01*
X63022238Y15524239D01*
X62925476Y15427477D01*
X62828714Y15379096D01*
X62635190Y15330715D01*
X62490048Y15330715D01*
X62296524Y15379096D01*
X62199762Y15427477D01*
X62103000Y15524239D01*
X62054619Y15669381D01*
X62054619Y15766143D01*
X62103000Y15911286D01*
X62151381Y15959667D01*
X62490048Y16540239D02*
X62441667Y16443477D01*
X62393286Y16395096D01*
X62296524Y16346715D01*
X62248143Y16346715D01*
X62151381Y16395096D01*
X62103000Y16443477D01*
X62054619Y16540239D01*
X62054619Y16733762D01*
X62103000Y16830524D01*
X62151381Y16878905D01*
X62248143Y16927286D01*
X62296524Y16927286D01*
X62393286Y16878905D01*
X62441667Y16830524D01*
X62490048Y16733762D01*
X62490048Y16540239D01*
X62538429Y16443477D01*
X62586810Y16395096D01*
X62683571Y16346715D01*
X62877095Y16346715D01*
X62973857Y16395096D01*
X63022238Y16443477D01*
X63070619Y16540239D01*
X63070619Y16733762D01*
X63022238Y16830524D01*
X62973857Y16878905D01*
X62877095Y16927286D01*
X62683571Y16927286D01*
X62586810Y16878905D01*
X62538429Y16830524D01*
X62490048Y16733762D01*
X42623619Y36207096D02*
X41607619Y36207096D01*
X41607619Y36449001D01*
X41656000Y36594143D01*
X41752762Y36690905D01*
X41849524Y36739286D01*
X42043048Y36787667D01*
X42188190Y36787667D01*
X42381714Y36739286D01*
X42478476Y36690905D01*
X42575238Y36594143D01*
X42623619Y36449001D01*
X42623619Y36207096D01*
X41704381Y37174715D02*
X41656000Y37223096D01*
X41607619Y37319858D01*
X41607619Y37561762D01*
X41656000Y37658524D01*
X41704381Y37706905D01*
X41801143Y37755286D01*
X41897905Y37755286D01*
X42043048Y37706905D01*
X42623619Y37126334D01*
X42623619Y37755286D01*
D13*
X73599524Y9978571D02*
X74276857Y8454571D01*
X74276857Y9978571D02*
X73599524Y8454571D01*
X75196095Y8454571D02*
X74615524Y8454571D01*
X74905810Y8454571D02*
X74905810Y9978571D01*
X74809048Y9760857D01*
X74712286Y9615714D01*
X74615524Y9543143D01*
D11*
X28520571Y46844857D02*
X28738285Y46772286D01*
X28810857Y46699714D01*
X28883428Y46554571D01*
X28883428Y46336857D01*
X28810857Y46191714D01*
X28738285Y46119143D01*
X28593143Y46046571D01*
X28012571Y46046571D01*
X28012571Y47570571D01*
X28520571Y47570571D01*
X28665714Y47498000D01*
X28738285Y47425429D01*
X28810857Y47280286D01*
X28810857Y47135143D01*
X28738285Y46990000D01*
X28665714Y46917429D01*
X28520571Y46844857D01*
X28012571Y46844857D01*
X29318857Y47570571D02*
X30189714Y47570571D01*
X29754285Y46046571D02*
X29754285Y47570571D01*
X31496000Y46046571D02*
X30625143Y46046571D01*
X31060571Y46046571D02*
X31060571Y47570571D01*
X30915428Y47352857D01*
X30770286Y47207714D01*
X30625143Y47135143D01*
D21*
X66209333Y17290143D02*
X67648667Y17290143D01*
X67818000Y17344571D01*
X67902667Y17399000D01*
X67987333Y17507857D01*
X67987333Y17725571D01*
X67902667Y17834429D01*
X67818000Y17888857D01*
X67648667Y17943286D01*
X66209333Y17943286D01*
X67987333Y19086286D02*
X67987333Y18433143D01*
X67987333Y18759715D02*
X66209333Y18759715D01*
X66463333Y18650858D01*
X66632667Y18542000D01*
X66717333Y18433143D01*
D22*
D23*
X73652333Y12755619D02*
X73652333Y13755619D01*
X73918999Y13755619D01*
X73985666Y13708000D01*
X74018999Y13660381D01*
X74052333Y13565143D01*
X74052333Y13422286D01*
X74018999Y13327048D01*
X73985666Y13279429D01*
X73918999Y13231810D01*
X73652333Y13231810D01*
X74752333Y12850857D02*
X74718999Y12803238D01*
X74618999Y12755619D01*
X74552333Y12755619D01*
X74452333Y12803238D01*
X74385666Y12898476D01*
X74352333Y12993714D01*
X74318999Y13184190D01*
X74318999Y13327048D01*
X74352333Y13517524D01*
X74385666Y13612762D01*
X74452333Y13708000D01*
X74552333Y13755619D01*
X74618999Y13755619D01*
X74718999Y13708000D01*
X74752333Y13660381D01*
X75285666Y13279429D02*
X75052333Y13279429D01*
X75052333Y12755619D02*
X75052333Y13755619D01*
X75385666Y13755619D01*
X75752333Y13327048D02*
X75685666Y13374667D01*
X75652333Y13422286D01*
X75618999Y13517524D01*
X75618999Y13565143D01*
X75652333Y13660381D01*
X75685666Y13708000D01*
X75752333Y13755619D01*
X75885666Y13755619D01*
X75952333Y13708000D01*
X75985666Y13660381D01*
X76018999Y13565143D01*
X76018999Y13517524D01*
X75985666Y13422286D01*
X75952333Y13374667D01*
X75885666Y13327048D01*
X75752333Y13327048D01*
X75685666Y13279429D01*
X75652333Y13231810D01*
X75618999Y13136571D01*
X75618999Y12946095D01*
X75652333Y12850857D01*
X75685666Y12803238D01*
X75752333Y12755619D01*
X75885666Y12755619D01*
X75952333Y12803238D01*
X75985666Y12850857D01*
X76018999Y12946095D01*
X76018999Y13136571D01*
X75985666Y13231810D01*
X75952333Y13279429D01*
X75885666Y13327048D01*
X76652333Y13755619D02*
X76319000Y13755619D01*
X76285666Y13279429D01*
X76319000Y13327048D01*
X76385666Y13374667D01*
X76552333Y13374667D01*
X76619000Y13327048D01*
X76652333Y13279429D01*
X76685666Y13184190D01*
X76685666Y12946095D01*
X76652333Y12850857D01*
X76619000Y12803238D01*
X76552333Y12755619D01*
X76385666Y12755619D01*
X76319000Y12803238D01*
X76285666Y12850857D01*
X77285667Y13755619D02*
X77152333Y13755619D01*
X77085667Y13708000D01*
X77052333Y13660381D01*
X76985667Y13517524D01*
X76952333Y13327048D01*
X76952333Y12946095D01*
X76985667Y12850857D01*
X77019000Y12803238D01*
X77085667Y12755619D01*
X77219000Y12755619D01*
X77285667Y12803238D01*
X77319000Y12850857D01*
X77352333Y12946095D01*
X77352333Y13184190D01*
X77319000Y13279429D01*
X77285667Y13327048D01*
X77219000Y13374667D01*
X77085667Y13374667D01*
X77019000Y13327048D01*
X76985667Y13279429D01*
X76952333Y13184190D01*
X77585667Y13755619D02*
X78019000Y13755619D01*
X77785667Y13374667D01*
X77885667Y13374667D01*
X77952334Y13327048D01*
X77985667Y13279429D01*
X78019000Y13184190D01*
X78019000Y12946095D01*
X77985667Y12850857D01*
X77952334Y12803238D01*
X77885667Y12755619D01*
X77685667Y12755619D01*
X77619000Y12803238D01*
X77585667Y12850857D01*
D11*
X59218285Y43633571D02*
X60234285Y42109571D01*
X60234285Y43633571D02*
X59218285Y42109571D01*
X60742286Y43488429D02*
X60814857Y43561000D01*
X60960000Y43633571D01*
X61322857Y43633571D01*
X61468000Y43561000D01*
X61540571Y43488429D01*
X61613143Y43343286D01*
X61613143Y43198143D01*
X61540571Y42980429D01*
X60669714Y42109571D01*
X61613143Y42109571D01*
X58129715Y45284571D02*
X57258858Y45284571D01*
X57694286Y45284571D02*
X57694286Y46808571D01*
X57549143Y46590857D01*
X57404001Y46445714D01*
X57258858Y46373143D01*
X59436001Y46808571D02*
X59145715Y46808571D01*
X59000572Y46736000D01*
X58928001Y46663429D01*
X58782858Y46445714D01*
X58710287Y46155429D01*
X58710287Y45574857D01*
X58782858Y45429714D01*
X58855430Y45357143D01*
X59000572Y45284571D01*
X59290858Y45284571D01*
X59436001Y45357143D01*
X59508572Y45429714D01*
X59581144Y45574857D01*
X59581144Y45937714D01*
X59508572Y46082857D01*
X59436001Y46155429D01*
X59290858Y46228000D01*
X59000572Y46228000D01*
X58855430Y46155429D01*
X58782858Y46082857D01*
X58710287Y45937714D01*
X60234287Y45284571D02*
X60234287Y46808571D01*
X60742287Y45720000D01*
X61250287Y46808571D01*
X61250287Y45284571D01*
X61976001Y45284571D02*
X61976001Y46808571D01*
X61976001Y46082857D02*
X62846858Y46082857D01*
X62846858Y45284571D02*
X62846858Y46808571D01*
X63427429Y46300571D02*
X64225715Y46300571D01*
X63427429Y45284571D01*
X64225715Y45284571D01*
D19*
X47612905Y9954381D02*
X47612905Y9131905D01*
X47661286Y9035143D01*
X47709667Y8986762D01*
X47806429Y8938381D01*
X47999952Y8938381D01*
X48096714Y8986762D01*
X48145095Y9035143D01*
X48193476Y9131905D01*
X48193476Y9954381D01*
X48628905Y9857619D02*
X48677286Y9906000D01*
X48774048Y9954381D01*
X49015952Y9954381D01*
X49112714Y9906000D01*
X49161095Y9857619D01*
X49209476Y9760857D01*
X49209476Y9664095D01*
X49161095Y9518952D01*
X48580524Y8938381D01*
X49209476Y8938381D01*
X51828096Y15415381D02*
X51828096Y16431381D01*
X52166762Y15705667D01*
X52505429Y16431381D01*
X52505429Y15415381D01*
X53569810Y15512143D02*
X53521429Y15463762D01*
X53376286Y15415381D01*
X53279524Y15415381D01*
X53134382Y15463762D01*
X53037620Y15560524D01*
X52989239Y15657286D01*
X52940858Y15850810D01*
X52940858Y15995952D01*
X52989239Y16189476D01*
X53037620Y16286238D01*
X53134382Y16383000D01*
X53279524Y16431381D01*
X53376286Y16431381D01*
X53521429Y16383000D01*
X53569810Y16334619D01*
X54005239Y15415381D02*
X54005239Y16431381D01*
X54392286Y16431381D01*
X54489048Y16383000D01*
X54537429Y16334619D01*
X54585810Y16237857D01*
X54585810Y16092714D01*
X54537429Y15995952D01*
X54489048Y15947571D01*
X54392286Y15899190D01*
X54005239Y15899190D01*
X55553429Y15415381D02*
X54972858Y15415381D01*
X55263144Y15415381D02*
X55263144Y16431381D01*
X55166382Y16286238D01*
X55069620Y16189476D01*
X54972858Y16141095D01*
X55892096Y16431381D02*
X56569429Y16431381D01*
X56134001Y15415381D01*
X57150001Y16431381D02*
X57246762Y16431381D01*
X57343524Y16383000D01*
X57391905Y16334619D01*
X57440286Y16237857D01*
X57488667Y16044333D01*
X57488667Y15802429D01*
X57440286Y15608905D01*
X57391905Y15512143D01*
X57343524Y15463762D01*
X57246762Y15415381D01*
X57150001Y15415381D01*
X57053239Y15463762D01*
X57004858Y15512143D01*
X56956477Y15608905D01*
X56908096Y15802429D01*
X56908096Y16044333D01*
X56956477Y16237857D01*
X57004858Y16334619D01*
X57053239Y16383000D01*
X57150001Y16431381D01*
X57827334Y16431381D02*
X58456286Y16431381D01*
X58117620Y16044333D01*
X58262762Y16044333D01*
X58359524Y15995952D01*
X58407905Y15947571D01*
X58456286Y15850810D01*
X58456286Y15608905D01*
X58407905Y15512143D01*
X58359524Y15463762D01*
X58262762Y15415381D01*
X57972477Y15415381D01*
X57875715Y15463762D01*
X57827334Y15512143D01*
D18*
X86634501Y36154602D02*
X84904761Y36154602D01*
X84904761Y36568743D01*
X84987130Y36672278D01*
X85069499Y36724046D01*
X85234236Y36775814D01*
X85481341Y36775814D01*
X85646079Y36724046D01*
X85728447Y36672278D01*
X85810816Y36568743D01*
X85810816Y36154602D01*
X85481341Y37707631D02*
X86634501Y37707631D01*
X84822393Y37448793D02*
X86057921Y37189954D01*
X86057921Y37862934D01*
D13*
X86595857Y27825096D02*
X86668429Y27970239D01*
X86668429Y28212143D01*
X86595857Y28308905D01*
X86523286Y28357286D01*
X86378143Y28405667D01*
X86233000Y28405667D01*
X86087857Y28357286D01*
X86015286Y28308905D01*
X85942714Y28212143D01*
X85870143Y28018620D01*
X85797571Y27921858D01*
X85725000Y27873477D01*
X85579857Y27825096D01*
X85434714Y27825096D01*
X85289571Y27873477D01*
X85217000Y27921858D01*
X85144429Y28018620D01*
X85144429Y28260524D01*
X85217000Y28405667D01*
X85870143Y28841096D02*
X85870143Y29179762D01*
X86668429Y29324905D02*
X86668429Y28841096D01*
X85144429Y28841096D01*
X85144429Y29324905D01*
X86668429Y29760334D02*
X85144429Y29760334D01*
X86668429Y30340905D01*
X85144429Y30340905D01*
X86595857Y30776334D02*
X86668429Y30921477D01*
X86668429Y31163381D01*
X86595857Y31260143D01*
X86523286Y31308524D01*
X86378143Y31356905D01*
X86233000Y31356905D01*
X86087857Y31308524D01*
X86015286Y31260143D01*
X85942714Y31163381D01*
X85870143Y30969858D01*
X85797571Y30873096D01*
X85725000Y30824715D01*
X85579857Y30776334D01*
X85434714Y30776334D01*
X85289571Y30824715D01*
X85217000Y30873096D01*
X85144429Y30969858D01*
X85144429Y31211762D01*
X85217000Y31356905D01*
X85144429Y31985858D02*
X85144429Y32179381D01*
X85217000Y32276143D01*
X85362143Y32372905D01*
X85652429Y32421286D01*
X86160429Y32421286D01*
X86450714Y32372905D01*
X86595857Y32276143D01*
X86668429Y32179381D01*
X86668429Y31985858D01*
X86595857Y31889096D01*
X86450714Y31792334D01*
X86160429Y31743953D01*
X85652429Y31743953D01*
X85362143Y31792334D01*
X85217000Y31889096D01*
X85144429Y31985858D01*
X86668429Y33437286D02*
X85942714Y33098620D01*
X86668429Y32856715D02*
X85144429Y32856715D01*
X85144429Y33243762D01*
X85217000Y33340524D01*
X85289571Y33388905D01*
X85434714Y33437286D01*
X85652429Y33437286D01*
X85797571Y33388905D01*
X85870143Y33340524D01*
X85942714Y33243762D01*
X85942714Y32856715D01*
X86595857Y33824334D02*
X86668429Y33969477D01*
X86668429Y34211381D01*
X86595857Y34308143D01*
X86523286Y34356524D01*
X86378143Y34404905D01*
X86233000Y34404905D01*
X86087857Y34356524D01*
X86015286Y34308143D01*
X85942714Y34211381D01*
X85870143Y34017858D01*
X85797571Y33921096D01*
X85725000Y33872715D01*
X85579857Y33824334D01*
X85434714Y33824334D01*
X85289571Y33872715D01*
X85217000Y33921096D01*
X85144429Y34017858D01*
X85144429Y34259762D01*
X85217000Y34404905D01*
D19*
X39793333Y11433024D02*
X39370000Y12098262D01*
X39067619Y11433024D02*
X39067619Y12830024D01*
X39551428Y12830024D01*
X39672381Y12763500D01*
X39732857Y12696976D01*
X39793333Y12563929D01*
X39793333Y12364357D01*
X39732857Y12231310D01*
X39672381Y12164786D01*
X39551428Y12098262D01*
X39067619Y12098262D01*
X40216667Y12830024D02*
X41063333Y12830024D01*
X40519048Y11433024D01*
X83562976Y15282333D02*
X82897738Y14859000D01*
X83562976Y14556619D02*
X82165976Y14556619D01*
X82165976Y15040428D01*
X82232500Y15161381D01*
X82299024Y15221857D01*
X82432071Y15282333D01*
X82631643Y15282333D01*
X82764690Y15221857D01*
X82831214Y15161381D01*
X82897738Y15040428D01*
X82897738Y14556619D01*
X82631643Y16370905D02*
X83562976Y16370905D01*
X82099452Y16068524D02*
X83097310Y15766143D01*
X83097310Y16552333D01*
X80895976Y15282333D02*
X80230738Y14859000D01*
X80895976Y14556619D02*
X79498976Y14556619D01*
X79498976Y15040428D01*
X79565500Y15161381D01*
X79632024Y15221857D01*
X79765071Y15282333D01*
X79964643Y15282333D01*
X80097690Y15221857D01*
X80164214Y15161381D01*
X80230738Y15040428D01*
X80230738Y14556619D01*
X79498976Y15705667D02*
X79498976Y16491857D01*
X80031167Y16068524D01*
X80031167Y16249952D01*
X80097690Y16370905D01*
X80164214Y16431381D01*
X80297262Y16491857D01*
X80629881Y16491857D01*
X80762929Y16431381D01*
X80829452Y16370905D01*
X80895976Y16249952D01*
X80895976Y15887095D01*
X80829452Y15766143D01*
X80762929Y15705667D01*
X75607333Y45342024D02*
X75184000Y46007262D01*
X74881619Y45342024D02*
X74881619Y46739024D01*
X75365428Y46739024D01*
X75486381Y46672500D01*
X75546857Y46605976D01*
X75607333Y46472929D01*
X75607333Y46273357D01*
X75546857Y46140310D01*
X75486381Y46073786D01*
X75365428Y46007262D01*
X74881619Y46007262D01*
X76091143Y46605976D02*
X76151619Y46672500D01*
X76272571Y46739024D01*
X76574952Y46739024D01*
X76695905Y46672500D01*
X76756381Y46605976D01*
X76816857Y46472929D01*
X76816857Y46339881D01*
X76756381Y46140310D01*
X76030667Y45342024D01*
X76816857Y45342024D01*
X12488333Y52073024D02*
X12065000Y52738262D01*
X11762619Y52073024D02*
X11762619Y53470024D01*
X12246428Y53470024D01*
X12367381Y53403500D01*
X12427857Y53336976D01*
X12488333Y53203929D01*
X12488333Y53004357D01*
X12427857Y52871310D01*
X12367381Y52804786D01*
X12246428Y52738262D01*
X11762619Y52738262D01*
X13697857Y52073024D02*
X12972143Y52073024D01*
X13335000Y52073024D02*
X13335000Y53470024D01*
X13214048Y53270452D01*
X13093095Y53137405D01*
X12972143Y53070881D01*
X39188571Y6353024D02*
X38765238Y7018262D01*
X38462857Y6353024D02*
X38462857Y7750024D01*
X38946666Y7750024D01*
X39067619Y7683500D01*
X39128095Y7616976D01*
X39188571Y7483929D01*
X39188571Y7284357D01*
X39128095Y7151310D01*
X39067619Y7084786D01*
X38946666Y7018262D01*
X38462857Y7018262D01*
X40398095Y6353024D02*
X39672381Y6353024D01*
X40035238Y6353024D02*
X40035238Y7750024D01*
X39914286Y7550452D01*
X39793333Y7417405D01*
X39672381Y7350881D01*
X41607619Y6353024D02*
X40881905Y6353024D01*
X41244762Y6353024D02*
X41244762Y7750024D01*
X41123810Y7550452D01*
X41002857Y7417405D01*
X40881905Y7350881D01*
X74972333Y25022024D02*
X74549000Y25687262D01*
X74246619Y25022024D02*
X74246619Y26419024D01*
X74730428Y26419024D01*
X74851381Y26352500D01*
X74911857Y26285976D01*
X74972333Y26152929D01*
X74972333Y25953357D01*
X74911857Y25820310D01*
X74851381Y25753786D01*
X74730428Y25687262D01*
X74246619Y25687262D01*
X76121381Y26419024D02*
X75516619Y26419024D01*
X75456143Y25753786D01*
X75516619Y25820310D01*
X75637571Y25886833D01*
X75939952Y25886833D01*
X76060905Y25820310D01*
X76121381Y25753786D01*
X76181857Y25620738D01*
X76181857Y25288119D01*
X76121381Y25155071D01*
X76060905Y25088548D01*
X75939952Y25022024D01*
X75637571Y25022024D01*
X75516619Y25088548D01*
X75456143Y25155071D01*
X39793333Y8893024D02*
X39370000Y9558262D01*
X39067619Y8893024D02*
X39067619Y10290024D01*
X39551428Y10290024D01*
X39672381Y10223500D01*
X39732857Y10156976D01*
X39793333Y10023929D01*
X39793333Y9824357D01*
X39732857Y9691310D01*
X39672381Y9624786D01*
X39551428Y9558262D01*
X39067619Y9558262D01*
X40881905Y10290024D02*
X40640000Y10290024D01*
X40519048Y10223500D01*
X40458571Y10156976D01*
X40337619Y9957405D01*
X40277143Y9691310D01*
X40277143Y9159119D01*
X40337619Y9026071D01*
X40398095Y8959548D01*
X40519048Y8893024D01*
X40760952Y8893024D01*
X40881905Y8959548D01*
X40942381Y9026071D01*
X41002857Y9159119D01*
X41002857Y9491738D01*
X40942381Y9624786D01*
X40881905Y9691310D01*
X40760952Y9757833D01*
X40519048Y9757833D01*
X40398095Y9691310D01*
X40337619Y9624786D01*
X40277143Y9491738D01*
X39793333Y19053024D02*
X39370000Y19718262D01*
X39067619Y19053024D02*
X39067619Y20450024D01*
X39551428Y20450024D01*
X39672381Y20383500D01*
X39732857Y20316976D01*
X39793333Y20183929D01*
X39793333Y19984357D01*
X39732857Y19851310D01*
X39672381Y19784786D01*
X39551428Y19718262D01*
X39067619Y19718262D01*
X40519048Y19851310D02*
X40398095Y19917833D01*
X40337619Y19984357D01*
X40277143Y20117405D01*
X40277143Y20183929D01*
X40337619Y20316976D01*
X40398095Y20383500D01*
X40519048Y20450024D01*
X40760952Y20450024D01*
X40881905Y20383500D01*
X40942381Y20316976D01*
X41002857Y20183929D01*
X41002857Y20117405D01*
X40942381Y19984357D01*
X40881905Y19917833D01*
X40760952Y19851310D01*
X40519048Y19851310D01*
X40398095Y19784786D01*
X40337619Y19718262D01*
X40277143Y19585214D01*
X40277143Y19319119D01*
X40337619Y19186071D01*
X40398095Y19119548D01*
X40519048Y19053024D01*
X40760952Y19053024D01*
X40881905Y19119548D01*
X40942381Y19186071D01*
X41002857Y19319119D01*
X41002857Y19585214D01*
X40942381Y19718262D01*
X40881905Y19784786D01*
X40760952Y19851310D01*
X39793333Y16513024D02*
X39370000Y17178262D01*
X39067619Y16513024D02*
X39067619Y17910024D01*
X39551428Y17910024D01*
X39672381Y17843500D01*
X39732857Y17776976D01*
X39793333Y17643929D01*
X39793333Y17444357D01*
X39732857Y17311310D01*
X39672381Y17244786D01*
X39551428Y17178262D01*
X39067619Y17178262D01*
X40398095Y16513024D02*
X40640000Y16513024D01*
X40760952Y16579548D01*
X40821428Y16646071D01*
X40942381Y16845643D01*
X41002857Y17111738D01*
X41002857Y17643929D01*
X40942381Y17776976D01*
X40881905Y17843500D01*
X40760952Y17910024D01*
X40519048Y17910024D01*
X40398095Y17843500D01*
X40337619Y17776976D01*
X40277143Y17643929D01*
X40277143Y17311310D01*
X40337619Y17178262D01*
X40398095Y17111738D01*
X40519048Y17045214D01*
X40760952Y17045214D01*
X40881905Y17111738D01*
X40942381Y17178262D01*
X41002857Y17311310D01*
X39188571Y21593024D02*
X38765238Y22258262D01*
X38462857Y21593024D02*
X38462857Y22990024D01*
X38946666Y22990024D01*
X39067619Y22923500D01*
X39128095Y22856976D01*
X39188571Y22723929D01*
X39188571Y22524357D01*
X39128095Y22391310D01*
X39067619Y22324786D01*
X38946666Y22258262D01*
X38462857Y22258262D01*
X40398095Y21593024D02*
X39672381Y21593024D01*
X40035238Y21593024D02*
X40035238Y22990024D01*
X39914286Y22790452D01*
X39793333Y22657405D01*
X39672381Y22590881D01*
X40881905Y22856976D02*
X40942381Y22923500D01*
X41063333Y22990024D01*
X41365714Y22990024D01*
X41486667Y22923500D01*
X41547143Y22856976D01*
X41607619Y22723929D01*
X41607619Y22590881D01*
X41547143Y22391310D01*
X40821429Y21593024D01*
X41607619Y21593024D01*
X89277976Y17852571D02*
X88612738Y17429238D01*
X89277976Y17126857D02*
X87880976Y17126857D01*
X87880976Y17610666D01*
X87947500Y17731619D01*
X88014024Y17792095D01*
X88147071Y17852571D01*
X88346643Y17852571D01*
X88479690Y17792095D01*
X88546214Y17731619D01*
X88612738Y17610666D01*
X88612738Y17126857D01*
X89277976Y19062095D02*
X89277976Y18336381D01*
X89277976Y18699238D02*
X87880976Y18699238D01*
X88080548Y18578286D01*
X88213595Y18457333D01*
X88280119Y18336381D01*
X87880976Y19485429D02*
X87880976Y20271619D01*
X88413167Y19848286D01*
X88413167Y20029714D01*
X88479690Y20150667D01*
X88546214Y20211143D01*
X88679262Y20271619D01*
X89011881Y20271619D01*
X89144929Y20211143D01*
X89211452Y20150667D01*
X89277976Y20029714D01*
X89277976Y19666857D01*
X89211452Y19545905D01*
X89144929Y19485429D01*
X11883571Y55248024D02*
X11460238Y55913262D01*
X11157857Y55248024D02*
X11157857Y56645024D01*
X11641666Y56645024D01*
X11762619Y56578500D01*
X11823095Y56511976D01*
X11883571Y56378929D01*
X11883571Y56179357D01*
X11823095Y56046310D01*
X11762619Y55979786D01*
X11641666Y55913262D01*
X11157857Y55913262D01*
X13093095Y55248024D02*
X12367381Y55248024D01*
X12730238Y55248024D02*
X12730238Y56645024D01*
X12609286Y56445452D01*
X12488333Y56312405D01*
X12367381Y56245881D01*
X14181667Y56179357D02*
X14181667Y55248024D01*
X13879286Y56711548D02*
X13576905Y55713690D01*
X14363095Y55713690D01*
X39188571Y13973024D02*
X38765238Y14638262D01*
X38462857Y13973024D02*
X38462857Y15370024D01*
X38946666Y15370024D01*
X39067619Y15303500D01*
X39128095Y15236976D01*
X39188571Y15103929D01*
X39188571Y14904357D01*
X39128095Y14771310D01*
X39067619Y14704786D01*
X38946666Y14638262D01*
X38462857Y14638262D01*
X40398095Y13973024D02*
X39672381Y13973024D01*
X40035238Y13973024D02*
X40035238Y15370024D01*
X39914286Y15170452D01*
X39793333Y15037405D01*
X39672381Y14970881D01*
X41184286Y15370024D02*
X41305238Y15370024D01*
X41426190Y15303500D01*
X41486667Y15236976D01*
X41547143Y15103929D01*
X41607619Y14837833D01*
X41607619Y14505214D01*
X41547143Y14239119D01*
X41486667Y14106071D01*
X41426190Y14039548D01*
X41305238Y13973024D01*
X41184286Y13973024D01*
X41063333Y14039548D01*
X41002857Y14106071D01*
X40942381Y14239119D01*
X40881905Y14505214D01*
X40881905Y14837833D01*
X40942381Y15103929D01*
X41002857Y15236976D01*
X41063333Y15303500D01*
X41184286Y15370024D01*
X70082834Y42136786D02*
X70040500Y42082357D01*
X69913500Y42027929D01*
X69828834Y42027929D01*
X69701834Y42082357D01*
X69617167Y42191214D01*
X69574834Y42300071D01*
X69532500Y42517786D01*
X69532500Y42681071D01*
X69574834Y42898786D01*
X69617167Y43007643D01*
X69701834Y43116500D01*
X69828834Y43170929D01*
X69913500Y43170929D01*
X70040500Y43116500D01*
X70082834Y43062071D01*
X70929500Y42027929D02*
X70421500Y42027929D01*
X70675500Y42027929D02*
X70675500Y43170929D01*
X70590834Y43007643D01*
X70506167Y42898786D01*
X70421500Y42844357D01*
X68855166Y38979929D02*
X68347166Y38979929D01*
X68601166Y38979929D02*
X68601166Y40122929D01*
X68516500Y39959643D01*
X68431833Y39850786D01*
X68347166Y39796357D01*
X69405500Y40122929D02*
X69490167Y40122929D01*
X69574833Y40068500D01*
X69617167Y40014071D01*
X69659500Y39905214D01*
X69701833Y39687500D01*
X69701833Y39415357D01*
X69659500Y39197643D01*
X69617167Y39088786D01*
X69574833Y39034357D01*
X69490167Y38979929D01*
X69405500Y38979929D01*
X69320833Y39034357D01*
X69278500Y39088786D01*
X69236167Y39197643D01*
X69193833Y39415357D01*
X69193833Y39687500D01*
X69236167Y39905214D01*
X69278500Y40014071D01*
X69320833Y40068500D01*
X69405500Y40122929D01*
X70252167Y40122929D02*
X70336834Y40122929D01*
X70421500Y40068500D01*
X70463834Y40014071D01*
X70506167Y39905214D01*
X70548500Y39687500D01*
X70548500Y39415357D01*
X70506167Y39197643D01*
X70463834Y39088786D01*
X70421500Y39034357D01*
X70336834Y38979929D01*
X70252167Y38979929D01*
X70167500Y39034357D01*
X70125167Y39088786D01*
X70082834Y39197643D01*
X70040500Y39415357D01*
X70040500Y39687500D01*
X70082834Y39905214D01*
X70125167Y40014071D01*
X70167500Y40068500D01*
X70252167Y40122929D01*
X71310501Y39741929D02*
X71310501Y38979929D01*
X70929501Y39741929D02*
X70929501Y39143214D01*
X70971834Y39034357D01*
X71056501Y38979929D01*
X71183501Y38979929D01*
X71268167Y39034357D01*
X71310501Y39088786D01*
X72030167Y39578643D02*
X71733834Y39578643D01*
X71733834Y38979929D02*
X71733834Y40122929D01*
X72157167Y40122929D01*
D21*
X72335572Y40939357D02*
X73206429Y40939357D01*
X72771000Y40503929D02*
X72771000Y41374786D01*
D22*
D19*
X63019214Y21568834D02*
X63073643Y21526500D01*
X63128071Y21399500D01*
X63128071Y21314834D01*
X63073643Y21187834D01*
X62964786Y21103167D01*
X62855929Y21060834D01*
X62638214Y21018500D01*
X62474929Y21018500D01*
X62257214Y21060834D01*
X62148357Y21103167D01*
X62039500Y21187834D01*
X61985071Y21314834D01*
X61985071Y21399500D01*
X62039500Y21526500D01*
X62093929Y21568834D01*
X61985071Y21865167D02*
X61985071Y22415500D01*
X62420500Y22119167D01*
X62420500Y22246167D01*
X62474929Y22330834D01*
X62529357Y22373167D01*
X62638214Y22415500D01*
X62910357Y22415500D01*
X63019214Y22373167D01*
X63073643Y22330834D01*
X63128071Y22246167D01*
X63128071Y21992167D01*
X63073643Y21907500D01*
X63019214Y21865167D01*
X67065071Y20510500D02*
X67065071Y20002500D01*
X67065071Y20256500D02*
X65922071Y20256500D01*
X66085357Y20171834D01*
X66194214Y20087167D01*
X66248643Y20002500D01*
X65922071Y21060834D02*
X65922071Y21145501D01*
X65976500Y21230167D01*
X66030929Y21272501D01*
X66139786Y21314834D01*
X66357500Y21357167D01*
X66629643Y21357167D01*
X66847357Y21314834D01*
X66956214Y21272501D01*
X67010643Y21230167D01*
X67065071Y21145501D01*
X67065071Y21060834D01*
X67010643Y20976167D01*
X66956214Y20933834D01*
X66847357Y20891501D01*
X66629643Y20849167D01*
X66357500Y20849167D01*
X66139786Y20891501D01*
X66030929Y20933834D01*
X65976500Y20976167D01*
X65922071Y21060834D01*
X66303071Y22119168D02*
X67065071Y22119168D01*
X66303071Y21738168D02*
X66901786Y21738168D01*
X67010643Y21780501D01*
X67065071Y21865168D01*
X67065071Y21992168D01*
X67010643Y22076834D01*
X66956214Y22119168D01*
X66466357Y22838834D02*
X66466357Y22542501D01*
X67065071Y22542501D02*
X65922071Y22542501D01*
X65922071Y22965834D01*
D21*
X62565643Y23059572D02*
X62565643Y23930429D01*
X63001071Y23495000D02*
X62130214Y23495000D01*
D22*
D19*
X50700214Y16107834D02*
X50754643Y16065500D01*
X50809071Y15938500D01*
X50809071Y15853834D01*
X50754643Y15726834D01*
X50645786Y15642167D01*
X50536929Y15599834D01*
X50319214Y15557500D01*
X50155929Y15557500D01*
X49938214Y15599834D01*
X49829357Y15642167D01*
X49720500Y15726834D01*
X49666071Y15853834D01*
X49666071Y15938500D01*
X49720500Y16065500D01*
X49774929Y16107834D01*
X49666071Y16404167D02*
X49666071Y16996834D01*
X50809071Y16615834D01*
X46618071Y14922500D02*
X46618071Y14414500D01*
X46618071Y14668500D02*
X45475071Y14668500D01*
X45638357Y14583834D01*
X45747214Y14499167D01*
X45801643Y14414500D01*
X45475071Y15472834D02*
X45475071Y15557501D01*
X45529500Y15642167D01*
X45583929Y15684501D01*
X45692786Y15726834D01*
X45910500Y15769167D01*
X46182643Y15769167D01*
X46400357Y15726834D01*
X46509214Y15684501D01*
X46563643Y15642167D01*
X46618071Y15557501D01*
X46618071Y15472834D01*
X46563643Y15388167D01*
X46509214Y15345834D01*
X46400357Y15303501D01*
X46182643Y15261167D01*
X45910500Y15261167D01*
X45692786Y15303501D01*
X45583929Y15345834D01*
X45529500Y15388167D01*
X45475071Y15472834D01*
X45856071Y16531168D02*
X46618071Y16531168D01*
X45856071Y16150168D02*
X46454786Y16150168D01*
X46563643Y16192501D01*
X46618071Y16277168D01*
X46618071Y16404168D01*
X46563643Y16488834D01*
X46509214Y16531168D01*
X46019357Y17250834D02*
X46019357Y16954501D01*
X46618071Y16954501D02*
X45475071Y16954501D01*
X45475071Y17377834D01*
D21*
X49865643Y13915572D02*
X49865643Y14786429D01*
X50301071Y14351000D02*
X49430214Y14351000D01*
D22*
D19*
X61876214Y12297834D02*
X61930643Y12255500D01*
X61985071Y12128500D01*
X61985071Y12043834D01*
X61930643Y11916834D01*
X61821786Y11832167D01*
X61712929Y11789834D01*
X61495214Y11747500D01*
X61331929Y11747500D01*
X61114214Y11789834D01*
X61005357Y11832167D01*
X60896500Y11916834D01*
X60842071Y12043834D01*
X60842071Y12128500D01*
X60896500Y12255500D01*
X60950929Y12297834D01*
X60842071Y13059834D02*
X60842071Y12890500D01*
X60896500Y12805834D01*
X60950929Y12763500D01*
X61114214Y12678834D01*
X61331929Y12636500D01*
X61767357Y12636500D01*
X61876214Y12678834D01*
X61930643Y12721167D01*
X61985071Y12805834D01*
X61985071Y12975167D01*
X61930643Y13059834D01*
X61876214Y13102167D01*
X61767357Y13144500D01*
X61495214Y13144500D01*
X61386357Y13102167D01*
X61331929Y13059834D01*
X61277500Y12975167D01*
X61277500Y12805834D01*
X61331929Y12721167D01*
X61386357Y12678834D01*
X61495214Y12636500D01*
X58048071Y11493500D02*
X58048071Y10985500D01*
X58048071Y11239500D02*
X56905071Y11239500D01*
X57068357Y11154834D01*
X57177214Y11070167D01*
X57231643Y10985500D01*
X56905071Y12043834D02*
X56905071Y12128501D01*
X56959500Y12213167D01*
X57013929Y12255501D01*
X57122786Y12297834D01*
X57340500Y12340167D01*
X57612643Y12340167D01*
X57830357Y12297834D01*
X57939214Y12255501D01*
X57993643Y12213167D01*
X58048071Y12128501D01*
X58048071Y12043834D01*
X57993643Y11959167D01*
X57939214Y11916834D01*
X57830357Y11874501D01*
X57612643Y11832167D01*
X57340500Y11832167D01*
X57122786Y11874501D01*
X57013929Y11916834D01*
X56959500Y11959167D01*
X56905071Y12043834D01*
X57286071Y13102168D02*
X58048071Y13102168D01*
X57286071Y12721168D02*
X57884786Y12721168D01*
X57993643Y12763501D01*
X58048071Y12848168D01*
X58048071Y12975168D01*
X57993643Y13059834D01*
X57939214Y13102168D01*
X57449357Y13821834D02*
X57449357Y13525501D01*
X58048071Y13525501D02*
X56905071Y13525501D01*
X56905071Y13948834D01*
D21*
X61168643Y10232572D02*
X61168643Y11103429D01*
X61604071Y10668000D02*
X60733214Y10668000D01*
D22*
D19*
X69196857Y49043167D02*
X69245238Y48994786D01*
X69293619Y48849643D01*
X69293619Y48752881D01*
X69245238Y48607739D01*
X69148476Y48510977D01*
X69051714Y48462596D01*
X68858190Y48414215D01*
X68713048Y48414215D01*
X68519524Y48462596D01*
X68422762Y48510977D01*
X68326000Y48607739D01*
X68277619Y48752881D01*
X68277619Y48849643D01*
X68326000Y48994786D01*
X68374381Y49043167D01*
X68374381Y49430215D02*
X68326000Y49478596D01*
X68277619Y49575358D01*
X68277619Y49817262D01*
X68326000Y49914024D01*
X68374381Y49962405D01*
X68471143Y50010786D01*
X68567905Y50010786D01*
X68713048Y49962405D01*
X69293619Y49381834D01*
X69293619Y50010786D01*
X86000167Y56025143D02*
X85951786Y55976762D01*
X85806643Y55928381D01*
X85709881Y55928381D01*
X85564739Y55976762D01*
X85467977Y56073524D01*
X85419596Y56170286D01*
X85371215Y56363810D01*
X85371215Y56508952D01*
X85419596Y56702476D01*
X85467977Y56799238D01*
X85564739Y56896000D01*
X85709881Y56944381D01*
X85806643Y56944381D01*
X85951786Y56896000D01*
X86000167Y56847619D01*
X86483977Y55928381D02*
X86677501Y55928381D01*
X86774262Y55976762D01*
X86822643Y56025143D01*
X86919405Y56170286D01*
X86967786Y56363810D01*
X86967786Y56750857D01*
X86919405Y56847619D01*
X86871024Y56896000D01*
X86774262Y56944381D01*
X86580739Y56944381D01*
X86483977Y56896000D01*
X86435596Y56847619D01*
X86387215Y56750857D01*
X86387215Y56508952D01*
X86435596Y56412190D01*
X86483977Y56363810D01*
X86580739Y56315429D01*
X86774262Y56315429D01*
X86871024Y56363810D01*
X86919405Y56412190D01*
X86967786Y56508952D01*
D20*
X75262619Y21523476D02*
X75262619Y22793476D01*
X75565000Y22793476D01*
X75746428Y22733000D01*
X75867381Y22612048D01*
X75927857Y22491095D01*
X75988333Y22249190D01*
X75988333Y22067762D01*
X75927857Y21825857D01*
X75867381Y21704905D01*
X75746428Y21583952D01*
X75565000Y21523476D01*
X75262619Y21523476D01*
X77076905Y22370143D02*
X77076905Y21523476D01*
X76774524Y22853952D02*
X76472143Y21946810D01*
X77258333Y21946810D01*
X83856286Y25714476D02*
X83432953Y26319238D01*
X83130572Y25714476D02*
X83130572Y26984476D01*
X83614381Y26984476D01*
X83735334Y26924000D01*
X83795810Y26863524D01*
X83856286Y26742571D01*
X83856286Y26561143D01*
X83795810Y26440190D01*
X83735334Y26379714D01*
X83614381Y26319238D01*
X83130572Y26319238D01*
X84219143Y26984476D02*
X84944858Y26984476D01*
X84582001Y25714476D02*
X84582001Y26984476D01*
X86093905Y25835429D02*
X86033429Y25774952D01*
X85852000Y25714476D01*
X85731048Y25714476D01*
X85549620Y25774952D01*
X85428667Y25895905D01*
X85368191Y26016857D01*
X85307715Y26258762D01*
X85307715Y26440190D01*
X85368191Y26682095D01*
X85428667Y26803048D01*
X85549620Y26924000D01*
X85731048Y26984476D01*
X85852000Y26984476D01*
X86033429Y26924000D01*
X86093905Y26863524D01*
D21*
X75338215Y31314571D02*
X75338215Y32838571D01*
X76535644Y31459714D02*
X76481215Y31387143D01*
X76317929Y31314571D01*
X76209072Y31314571D01*
X76045787Y31387143D01*
X75936929Y31532286D01*
X75882501Y31677429D01*
X75828072Y31967714D01*
X75828072Y32185429D01*
X75882501Y32475714D01*
X75936929Y32620857D01*
X76045787Y32766000D01*
X76209072Y32838571D01*
X76317929Y32838571D01*
X76481215Y32766000D01*
X76535644Y32693429D01*
X77624215Y31314571D02*
X76971072Y31314571D01*
X77297644Y31314571D02*
X77297644Y32838571D01*
X77188787Y32620857D01*
X77079929Y32475714D01*
X76971072Y32403143D01*
D22*
D21*
X51616429Y31750000D02*
X52160715Y31750000D01*
X51507572Y31314571D02*
X51888572Y32838571D01*
X52269572Y31314571D01*
X52487286Y32838571D02*
X53140429Y32838571D01*
X52813858Y31314571D02*
X52813858Y32838571D01*
X53521429Y31314571D02*
X53521429Y32838571D01*
X53902429Y31750000D01*
X54283429Y32838571D01*
X54283429Y31314571D01*
X54827715Y32112857D02*
X55208715Y32112857D01*
X55372001Y31314571D02*
X54827715Y31314571D01*
X54827715Y32838571D01*
X55372001Y32838571D01*
X56460572Y32766000D02*
X56351715Y32838571D01*
X56188429Y32838571D01*
X56025144Y32766000D01*
X55916286Y32620857D01*
X55861858Y32475714D01*
X55807429Y32185429D01*
X55807429Y31967714D01*
X55861858Y31677429D01*
X55916286Y31532286D01*
X56025144Y31387143D01*
X56188429Y31314571D01*
X56297286Y31314571D01*
X56460572Y31387143D01*
X56515001Y31459714D01*
X56515001Y31967714D01*
X56297286Y31967714D01*
X56950429Y31750000D02*
X57494715Y31750000D01*
X56841572Y31314571D02*
X57222572Y32838571D01*
X57603572Y31314571D01*
X57875715Y32838571D02*
X58583286Y32838571D01*
X58202286Y32258000D01*
X58365572Y32258000D01*
X58474429Y32185429D01*
X58528858Y32112857D01*
X58583286Y31967714D01*
X58583286Y31604857D01*
X58528858Y31459714D01*
X58474429Y31387143D01*
X58365572Y31314571D01*
X58039000Y31314571D01*
X57930143Y31387143D01*
X57875715Y31459714D01*
X59018714Y32693429D02*
X59073143Y32766000D01*
X59182000Y32838571D01*
X59454143Y32838571D01*
X59563000Y32766000D01*
X59617429Y32693429D01*
X59671857Y32548286D01*
X59671857Y32403143D01*
X59617429Y32185429D01*
X58964286Y31314571D01*
X59671857Y31314571D01*
X60325000Y32185429D02*
X60216142Y32258000D01*
X60161714Y32330571D01*
X60107285Y32475714D01*
X60107285Y32548286D01*
X60161714Y32693429D01*
X60216142Y32766000D01*
X60325000Y32838571D01*
X60542714Y32838571D01*
X60651571Y32766000D01*
X60706000Y32693429D01*
X60760428Y32548286D01*
X60760428Y32475714D01*
X60706000Y32330571D01*
X60651571Y32258000D01*
X60542714Y32185429D01*
X60325000Y32185429D01*
X60216142Y32112857D01*
X60161714Y32040286D01*
X60107285Y31895143D01*
X60107285Y31604857D01*
X60161714Y31459714D01*
X60216142Y31387143D01*
X60325000Y31314571D01*
X60542714Y31314571D01*
X60651571Y31387143D01*
X60706000Y31459714D01*
X60760428Y31604857D01*
X60760428Y31895143D01*
X60706000Y32040286D01*
X60651571Y32112857D01*
X60542714Y32185429D01*
X61250285Y31314571D02*
X61250285Y32838571D01*
X61685713Y32838571D01*
X61794571Y32766000D01*
X61848999Y32693429D01*
X61903428Y32548286D01*
X61903428Y32330571D01*
X61848999Y32185429D01*
X61794571Y32112857D01*
X61685713Y32040286D01*
X61250285Y32040286D01*
X62393285Y31895143D02*
X63264142Y31895143D01*
X63808428Y31314571D02*
X63808428Y32838571D01*
X64243856Y32838571D01*
X64352714Y32766000D01*
X64407142Y32693429D01*
X64461571Y32548286D01*
X64461571Y32330571D01*
X64407142Y32185429D01*
X64352714Y32112857D01*
X64243856Y32040286D01*
X63808428Y32040286D01*
D22*
D19*
X39188571Y24133024D02*
X38765238Y24798262D01*
X38462857Y24133024D02*
X38462857Y25530024D01*
X38946666Y25530024D01*
X39067619Y25463500D01*
X39128095Y25396976D01*
X39188571Y25263929D01*
X39188571Y25064357D01*
X39128095Y24931310D01*
X39067619Y24864786D01*
X38946666Y24798262D01*
X38462857Y24798262D01*
X40398095Y24133024D02*
X39672381Y24133024D01*
X40035238Y24133024D02*
X40035238Y25530024D01*
X39914286Y25330452D01*
X39793333Y25197405D01*
X39672381Y25130881D01*
X41547143Y25530024D02*
X40942381Y25530024D01*
X40881905Y24864786D01*
X40942381Y24931310D01*
X41063333Y24997833D01*
X41365714Y24997833D01*
X41486667Y24931310D01*
X41547143Y24864786D01*
X41607619Y24731738D01*
X41607619Y24399119D01*
X41547143Y24266071D01*
X41486667Y24199548D01*
X41365714Y24133024D01*
X41063333Y24133024D01*
X40942381Y24199548D01*
X40881905Y24266071D01*
X39194619Y36207096D02*
X38178619Y36207096D01*
X38178619Y36449001D01*
X38227000Y36594143D01*
X38323762Y36690905D01*
X38420524Y36739286D01*
X38614048Y36787667D01*
X38759190Y36787667D01*
X38952714Y36739286D01*
X39049476Y36690905D01*
X39146238Y36594143D01*
X39194619Y36449001D01*
X39194619Y36207096D01*
X38178619Y37126334D02*
X38178619Y37755286D01*
X38565667Y37416620D01*
X38565667Y37561762D01*
X38614048Y37658524D01*
X38662429Y37706905D01*
X38759190Y37755286D01*
X39001095Y37755286D01*
X39097857Y37706905D01*
X39146238Y37658524D01*
X39194619Y37561762D01*
X39194619Y37271477D01*
X39146238Y37174715D01*
X39097857Y37126334D01*
X66886667Y39769143D02*
X66838286Y39720762D01*
X66693143Y39672381D01*
X66596381Y39672381D01*
X66451239Y39720762D01*
X66354477Y39817524D01*
X66306096Y39914286D01*
X66257715Y40107810D01*
X66257715Y40252952D01*
X66306096Y40446476D01*
X66354477Y40543238D01*
X66451239Y40640000D01*
X66596381Y40688381D01*
X66693143Y40688381D01*
X66838286Y40640000D01*
X66886667Y40591619D01*
X67757524Y40349714D02*
X67757524Y39672381D01*
X67515620Y40736762D02*
X67273715Y40011048D01*
X67902667Y40011048D01*
D14*
X73043143Y19294929D02*
X73043143Y18369643D01*
X73097571Y18260786D01*
X73152000Y18206357D01*
X73260857Y18151929D01*
X73478571Y18151929D01*
X73587429Y18206357D01*
X73641857Y18260786D01*
X73696286Y18369643D01*
X73696286Y19294929D01*
X74131715Y19294929D02*
X74839286Y19294929D01*
X74458286Y18859500D01*
X74621572Y18859500D01*
X74730429Y18805071D01*
X74784858Y18750643D01*
X74839286Y18641786D01*
X74839286Y18369643D01*
X74784858Y18260786D01*
X74730429Y18206357D01*
X74621572Y18151929D01*
X74295000Y18151929D01*
X74186143Y18206357D01*
X74131715Y18260786D01*
M02*
